<?xml version="1.0" encoding="utf-8" standalone="no"?>
<!DOCTYPE svg PUBLIC "-//W3C//DTD SVG 1.1//EN"
  "http://www.w3.org/Graphics/SVG/1.1/DTD/svg11.dtd">
<svg xmlns:xlink="http://www.w3.org/1999/xlink" width="460.8pt" height="244.8pt" viewBox="0 0 460.8 244.8" xmlns="http://www.w3.org/2000/svg" version="1.1">
 <metadata>
  <rdf:RDF xmlns:dc="http://purl.org/dc/elements/1.1/" xmlns:cc="http://creativecommons.org/ns#" xmlns:rdf="http://www.w3.org/1999/02/22-rdf-syntax-ns#">
   <cc:Work>
    <dc:type rdf:resource="http://purl.org/dc/dcmitype/StillImage"/>
    <dc:date>2026-08-26T16:01:40.162379</dc:date>
    <dc:format>image/svg+xml</dc:format>
    <dc:creator>
     <cc:Agent>
      <dc:title>Matplotlib v3.9.4, https://matplotlib.org/</dc:title>
     </cc:Agent>
    </dc:creator>
   </cc:Work>
  </rdf:RDF>
 </metadata>
 <defs>
  <style type="text/css">*{stroke-linejoin: round; stroke-linecap: butt}</style>
 </defs>
 <g id="figure_1">
  <g id="patch_1">
   <path d="M 0 244.8 
L 460.8 244.8 
L 460.8 0 
L 0 0 
z
" style="fill: #ffffff"/>
  </g>
  <g id="axes_1">
   <g id="patch_2">
    <path d="M 59.24 199.528 
L 450 199.528 
L 450 24.72 
L 59.24 24.72 
z
" style="fill: #ffffff"/>
   </g>
   <g id="matplotlib.axis_1">
    <g id="xtick_1">
     <g id="line2d_1">
      <path d="M 147.941995 199.528 
L 147.941995 24.72 
" clip-path="url(#p96734d8624)" style="fill: none; stroke: #b0b0b0; stroke-opacity: 0.25; stroke-width: 0.8; stroke-linecap: square"/>
     </g>
     <g id="line2d_2">
      <defs>
       <path id="m563e657ab3" d="M 0 0 
L 0 3.5 
" style="stroke: #000000; stroke-width: 0.8"/>
      </defs>
      <g>
       <use xlink:href="#m563e657ab3" x="147.941995" y="199.528" style="stroke: #000000; stroke-width: 0.8"/>
      </g>
     </g>
     <g id="text_1">
      <!-- $\mathdefault{10^{2}}$ -->
      <g transform="translate(139.141995 214.126438)">
       <text>
        <tspan style="font: 10px 'DejaVu Sans'" x="0 6.362305" y="-0.9765625">10</tspan>
        <tspan style="font: 7px 'DejaVu Sans'" x="12.820312" y="-4.8046875">2</tspan>
       </text>
      </g>
     </g>
    </g>
    <g id="xtick_2">
     <g id="line2d_3">
      <path d="M 274.845859 199.528 
L 274.845859 24.72 
" clip-path="url(#p96734d8624)" style="fill: none; stroke: #b0b0b0; stroke-opacity: 0.25; stroke-width: 0.8; stroke-linecap: square"/>
     </g>
     <g id="line2d_4">
      <g>
       <use xlink:href="#m563e657ab3" x="274.845859" y="199.528" style="stroke: #000000; stroke-width: 0.8"/>
      </g>
     </g>
     <g id="text_2">
      <!-- $\mathdefault{10^{3}}$ -->
      <g transform="translate(266.045859 214.126438)">
       <text>
        <tspan style="font: 10px 'DejaVu Sans'" x="0 6.362305" y="-0.9765625">10</tspan>
        <tspan style="font: 7px 'DejaVu Sans'" x="12.820312" y="-4.8046875">3</tspan>
       </text>
      </g>
     </g>
    </g>
    <g id="xtick_3">
     <g id="line2d_5">
      <path d="M 401.749724 199.528 
L 401.749724 24.72 
" clip-path="url(#p96734d8624)" style="fill: none; stroke: #b0b0b0; stroke-opacity: 0.25; stroke-width: 0.8; stroke-linecap: square"/>
     </g>
     <g id="line2d_6">
      <g>
       <use xlink:href="#m563e657ab3" x="401.749724" y="199.528" style="stroke: #000000; stroke-width: 0.8"/>
      </g>
     </g>
     <g id="text_3">
      <!-- $\mathdefault{10^{4}}$ -->
      <g transform="translate(392.949724 214.126438)">
       <text>
        <tspan style="font: 10px 'DejaVu Sans'" x="0 6.362305" y="-0.06406250000000036">10</tspan>
        <tspan style="font: 7px 'DejaVu Sans'" x="12.820312" y="-3.8921875000000004">4</tspan>
       </text>
      </g>
     </g>
    </g>
    <g id="xtick_4">
     <g id="line2d_7">
      <defs>
       <path id="m7e17458732" d="M 0 0 
L 0 2 
" style="stroke: #000000; stroke-width: 0.6"/>
      </defs>
      <g>
       <use xlink:href="#m7e17458732" x="59.24" y="199.528" style="stroke: #000000; stroke-width: 0.6"/>
      </g>
     </g>
    </g>
    <g id="xtick_5">
     <g id="line2d_8">
      <g>
       <use xlink:href="#m7e17458732" x="81.586661" y="199.528" style="stroke: #000000; stroke-width: 0.6"/>
      </g>
     </g>
    </g>
    <g id="xtick_6">
     <g id="line2d_9">
      <g>
       <use xlink:href="#m7e17458732" x="97.44187" y="199.528" style="stroke: #000000; stroke-width: 0.6"/>
      </g>
     </g>
    </g>
    <g id="xtick_7">
     <g id="line2d_10">
      <g>
       <use xlink:href="#m7e17458732" x="109.740125" y="199.528" style="stroke: #000000; stroke-width: 0.6"/>
      </g>
     </g>
    </g>
    <g id="xtick_8">
     <g id="line2d_11">
      <g>
       <use xlink:href="#m7e17458732" x="119.788531" y="199.528" style="stroke: #000000; stroke-width: 0.6"/>
      </g>
     </g>
    </g>
    <g id="xtick_9">
     <g id="line2d_12">
      <g>
       <use xlink:href="#m7e17458732" x="128.284337" y="199.528" style="stroke: #000000; stroke-width: 0.6"/>
      </g>
     </g>
    </g>
    <g id="xtick_10">
     <g id="line2d_13">
      <g>
       <use xlink:href="#m7e17458732" x="135.64374" y="199.528" style="stroke: #000000; stroke-width: 0.6"/>
      </g>
     </g>
    </g>
    <g id="xtick_11">
     <g id="line2d_14">
      <g>
       <use xlink:href="#m7e17458732" x="142.135192" y="199.528" style="stroke: #000000; stroke-width: 0.6"/>
      </g>
     </g>
    </g>
    <g id="xtick_12">
     <g id="line2d_15">
      <g>
       <use xlink:href="#m7e17458732" x="186.143865" y="199.528" style="stroke: #000000; stroke-width: 0.6"/>
      </g>
     </g>
    </g>
    <g id="xtick_13">
     <g id="line2d_16">
      <g>
       <use xlink:href="#m7e17458732" x="208.490526" y="199.528" style="stroke: #000000; stroke-width: 0.6"/>
      </g>
     </g>
    </g>
    <g id="xtick_14">
     <g id="line2d_17">
      <g>
       <use xlink:href="#m7e17458732" x="224.345734" y="199.528" style="stroke: #000000; stroke-width: 0.6"/>
      </g>
     </g>
    </g>
    <g id="xtick_15">
     <g id="line2d_18">
      <g>
       <use xlink:href="#m7e17458732" x="236.64399" y="199.528" style="stroke: #000000; stroke-width: 0.6"/>
      </g>
     </g>
    </g>
    <g id="xtick_16">
     <g id="line2d_19">
      <g>
       <use xlink:href="#m7e17458732" x="246.692396" y="199.528" style="stroke: #000000; stroke-width: 0.6"/>
      </g>
     </g>
    </g>
    <g id="xtick_17">
     <g id="line2d_20">
      <g>
       <use xlink:href="#m7e17458732" x="255.188202" y="199.528" style="stroke: #000000; stroke-width: 0.6"/>
      </g>
     </g>
    </g>
    <g id="xtick_18">
     <g id="line2d_21">
      <g>
       <use xlink:href="#m7e17458732" x="262.547604" y="199.528" style="stroke: #000000; stroke-width: 0.6"/>
      </g>
     </g>
    </g>
    <g id="xtick_19">
     <g id="line2d_22">
      <g>
       <use xlink:href="#m7e17458732" x="269.039057" y="199.528" style="stroke: #000000; stroke-width: 0.6"/>
      </g>
     </g>
    </g>
    <g id="xtick_20">
     <g id="line2d_23">
      <g>
       <use xlink:href="#m7e17458732" x="313.047729" y="199.528" style="stroke: #000000; stroke-width: 0.6"/>
      </g>
     </g>
    </g>
    <g id="xtick_21">
     <g id="line2d_24">
      <g>
       <use xlink:href="#m7e17458732" x="335.394391" y="199.528" style="stroke: #000000; stroke-width: 0.6"/>
      </g>
     </g>
    </g>
    <g id="xtick_22">
     <g id="line2d_25">
      <g>
       <use xlink:href="#m7e17458732" x="351.249599" y="199.528" style="stroke: #000000; stroke-width: 0.6"/>
      </g>
     </g>
    </g>
    <g id="xtick_23">
     <g id="line2d_26">
      <g>
       <use xlink:href="#m7e17458732" x="363.547854" y="199.528" style="stroke: #000000; stroke-width: 0.6"/>
      </g>
     </g>
    </g>
    <g id="xtick_24">
     <g id="line2d_27">
      <g>
       <use xlink:href="#m7e17458732" x="373.59626" y="199.528" style="stroke: #000000; stroke-width: 0.6"/>
      </g>
     </g>
    </g>
    <g id="xtick_25">
     <g id="line2d_28">
      <g>
       <use xlink:href="#m7e17458732" x="382.092067" y="199.528" style="stroke: #000000; stroke-width: 0.6"/>
      </g>
     </g>
    </g>
    <g id="xtick_26">
     <g id="line2d_29">
      <g>
       <use xlink:href="#m7e17458732" x="389.451469" y="199.528" style="stroke: #000000; stroke-width: 0.6"/>
      </g>
     </g>
    </g>
    <g id="xtick_27">
     <g id="line2d_30">
      <g>
       <use xlink:href="#m7e17458732" x="395.942922" y="199.528" style="stroke: #000000; stroke-width: 0.6"/>
      </g>
     </g>
    </g>
    <g id="xtick_28">
     <g id="line2d_31">
      <g>
       <use xlink:href="#m7e17458732" x="439.951594" y="199.528" style="stroke: #000000; stroke-width: 0.6"/>
      </g>
     </g>
    </g>
    <g id="text_4">
     <text style="font: 10px 'DejaVu Sans', 'Bitstream Vera Sans', 'Computer Modern Sans Serif', 'Lucida Grande', 'Verdana', 'Geneva', 'Lucid', 'Arial', 'Helvetica', 'Avant Garde', sans-serif; text-anchor: middle" x="254.62" y="227.804563" transform="rotate(-0 254.62 227.804563)">Hz</text>
    </g>
   </g>
   <g id="matplotlib.axis_2">
    <g id="ytick_1">
     <g id="line2d_32">
      <path d="M 59.24 186.081231 
L 450 186.081231 
" clip-path="url(#p96734d8624)" style="fill: none; stroke: #b0b0b0; stroke-opacity: 0.25; stroke-width: 0.8; stroke-linecap: square"/>
     </g>
     <g id="line2d_33">
      <defs>
       <path id="me7c6d7ce2b" d="M 0 0 
L -3.5 0 
" style="stroke: #000000; stroke-width: 0.8"/>
      </defs>
      <g>
       <use xlink:href="#me7c6d7ce2b" x="59.24" y="186.081231" style="stroke: #000000; stroke-width: 0.8"/>
      </g>
     </g>
     <g id="text_5">
      <text style="font: 10px 'DejaVu Sans', 'Bitstream Vera Sans', 'Computer Modern Sans Serif', 'Lucida Grande', 'Verdana', 'Geneva', 'Lucid', 'Arial', 'Helvetica', 'Avant Garde', sans-serif; text-anchor: end" x="52.24" y="189.88045" transform="rotate(-0 52.24 189.88045)">−100</text>
     </g>
    </g>
    <g id="ytick_2">
     <g id="line2d_34">
      <path d="M 59.24 159.187692 
L 450 159.187692 
" clip-path="url(#p96734d8624)" style="fill: none; stroke: #b0b0b0; stroke-opacity: 0.25; stroke-width: 0.8; stroke-linecap: square"/>
     </g>
     <g id="line2d_35">
      <g>
       <use xlink:href="#me7c6d7ce2b" x="59.24" y="159.187692" style="stroke: #000000; stroke-width: 0.8"/>
      </g>
     </g>
     <g id="text_6">
      <text style="font: 10px 'DejaVu Sans', 'Bitstream Vera Sans', 'Computer Modern Sans Serif', 'Lucida Grande', 'Verdana', 'Geneva', 'Lucid', 'Arial', 'Helvetica', 'Avant Garde', sans-serif; text-anchor: end" x="52.24" y="162.986911" transform="rotate(-0 52.24 162.986911)">−80</text>
     </g>
    </g>
    <g id="ytick_3">
     <g id="line2d_36">
      <path d="M 59.24 132.294154 
L 450 132.294154 
" clip-path="url(#p96734d8624)" style="fill: none; stroke: #b0b0b0; stroke-opacity: 0.25; stroke-width: 0.8; stroke-linecap: square"/>
     </g>
     <g id="line2d_37">
      <g>
       <use xlink:href="#me7c6d7ce2b" x="59.24" y="132.294154" style="stroke: #000000; stroke-width: 0.8"/>
      </g>
     </g>
     <g id="text_7">
      <text style="font: 10px 'DejaVu Sans', 'Bitstream Vera Sans', 'Computer Modern Sans Serif', 'Lucida Grande', 'Verdana', 'Geneva', 'Lucid', 'Arial', 'Helvetica', 'Avant Garde', sans-serif; text-anchor: end" x="52.24" y="136.093373" transform="rotate(-0 52.24 136.093373)">−60</text>
     </g>
    </g>
    <g id="ytick_4">
     <g id="line2d_38">
      <path d="M 59.24 105.400615 
L 450 105.400615 
" clip-path="url(#p96734d8624)" style="fill: none; stroke: #b0b0b0; stroke-opacity: 0.25; stroke-width: 0.8; stroke-linecap: square"/>
     </g>
     <g id="line2d_39">
      <g>
       <use xlink:href="#me7c6d7ce2b" x="59.24" y="105.400615" style="stroke: #000000; stroke-width: 0.8"/>
      </g>
     </g>
     <g id="text_8">
      <text style="font: 10px 'DejaVu Sans', 'Bitstream Vera Sans', 'Computer Modern Sans Serif', 'Lucida Grande', 'Verdana', 'Geneva', 'Lucid', 'Arial', 'Helvetica', 'Avant Garde', sans-serif; text-anchor: end" x="52.24" y="109.199834" transform="rotate(-0 52.24 109.199834)">−40</text>
     </g>
    </g>
    <g id="ytick_5">
     <g id="line2d_40">
      <path d="M 59.24 78.507077 
L 450 78.507077 
" clip-path="url(#p96734d8624)" style="fill: none; stroke: #b0b0b0; stroke-opacity: 0.25; stroke-width: 0.8; stroke-linecap: square"/>
     </g>
     <g id="line2d_41">
      <g>
       <use xlink:href="#me7c6d7ce2b" x="59.24" y="78.507077" style="stroke: #000000; stroke-width: 0.8"/>
      </g>
     </g>
     <g id="text_9">
      <text style="font: 10px 'DejaVu Sans', 'Bitstream Vera Sans', 'Computer Modern Sans Serif', 'Lucida Grande', 'Verdana', 'Geneva', 'Lucid', 'Arial', 'Helvetica', 'Avant Garde', sans-serif; text-anchor: end" x="52.24" y="82.306296" transform="rotate(-0 52.24 82.306296)">−20</text>
     </g>
    </g>
    <g id="ytick_6">
     <g id="line2d_42">
      <path d="M 59.24 51.613538 
L 450 51.613538 
" clip-path="url(#p96734d8624)" style="fill: none; stroke: #b0b0b0; stroke-opacity: 0.25; stroke-width: 0.8; stroke-linecap: square"/>
     </g>
     <g id="line2d_43">
      <g>
       <use xlink:href="#me7c6d7ce2b" x="59.24" y="51.613538" style="stroke: #000000; stroke-width: 0.8"/>
      </g>
     </g>
     <g id="text_10">
      <text style="font: 10px 'DejaVu Sans', 'Bitstream Vera Sans', 'Computer Modern Sans Serif', 'Lucida Grande', 'Verdana', 'Geneva', 'Lucid', 'Arial', 'Helvetica', 'Avant Garde', sans-serif; text-anchor: end" x="52.24" y="55.412757" transform="rotate(-0 52.24 55.412757)">0</text>
     </g>
    </g>
    <g id="ytick_7">
     <g id="line2d_44">
      <path d="M 59.24 24.72 
L 450 24.72 
" clip-path="url(#p96734d8624)" style="fill: none; stroke: #b0b0b0; stroke-opacity: 0.25; stroke-width: 0.8; stroke-linecap: square"/>
     </g>
     <g id="line2d_45">
      <g>
       <use xlink:href="#me7c6d7ce2b" x="59.24" y="24.72" style="stroke: #000000; stroke-width: 0.8"/>
      </g>
     </g>
     <g id="text_11">
      <text style="font: 10px 'DejaVu Sans', 'Bitstream Vera Sans', 'Computer Modern Sans Serif', 'Lucida Grande', 'Verdana', 'Geneva', 'Lucid', 'Arial', 'Helvetica', 'Avant Garde', sans-serif; text-anchor: end" x="52.24" y="28.519219" transform="rotate(-0 52.24 28.519219)">20</text>
     </g>
    </g>
    <g id="text_12">
     <text style="font: 10px 'DejaVu Sans', 'Bitstream Vera Sans', 'Computer Modern Sans Serif', 'Lucida Grande', 'Verdana', 'Geneva', 'Lucid', 'Arial', 'Helvetica', 'Avant Garde', sans-serif; text-anchor: middle" x="18.693125" y="112.124" transform="rotate(-90 18.693125 112.124)">dB</text>
    </g>
   </g>
   <g id="line2d_46">
    <path d="M -1 159.220883 
L 42.077687 159.345201 
L 67.981302 159.598861 
L 85.532449 159.976933 
L 98.823769 160.488404 
L 109.524416 161.146415 
L 118.481427 161.969691 
L 126.184217 162.984909 
L 130.779682 163.786768 
L 135.021286 164.706489 
L 138.95965 165.765069 
L 142.635255 166.991232 
L 146.08098 168.425622 
L 149.323894 170.128327 
L 150.876494 171.107721 
L 152.386552 172.193496 
L 153.856336 173.407831 
L 155.28794 174.781033 
L 156.683297 176.356071 
L 158.044197 178.196771 
L 159.372301 180.403985 
L 160.669152 183.15124 
L 161.936188 186.7774 
L 163.174749 192.099791 
L 164.386087 202.222711 
L 165.571373 213.42508 
L 166.731703 195.560521 
L 167.868107 188.800255 
L 168.981552 184.54768 
L 170.072947 181.44149 
L 171.143148 178.996609 
L 172.192964 176.983595 
L 174.234444 173.795084 
L 176.202997 171.328686 
L 178.103656 169.333183 
L 179.940948 167.672376 
L 182.586911 165.63766 
L 185.111642 164.01098 
L 187.525764 162.696498 
L 190.588421 161.330808 
L 193.48981 160.333 
L 196.246066 159.656639 
L 198.871022 159.279716 
L 201.376619 159.198863 
L 203.183786 159.340306 
L 204.933573 159.669013 
L 206.629511 160.206184 
L 208.274817 160.98418 
L 209.872426 162.052269 
L 210.912337 162.961894 
L 211.932989 164.067576 
L 212.935083 165.418136 
L 213.919281 167.087566 
L 214.886212 169.195708 
L 215.836471 171.956086 
L 216.770623 175.809393 
L 217.231828 178.446581 
L 217.689205 181.936417 
L 218.142818 187.04452 
L 218.592728 196.548227 
L 219.038995 211.755615 
L 219.481677 191.379026 
L 219.920832 184.311172 
L 220.356515 179.921372 
L 221.217683 174.231331 
L 222.065602 170.446793 
L 222.900673 167.646725 
L 223.723281 165.465823 
L 224.934618 162.985694 
L 226.119904 161.20659 
L 227.280234 159.998407 
L 228.040434 159.48873 
L 228.790291 159.221641 
L 229.530083 159.219447 
L 230.260076 159.525072 
L 230.980526 160.213628 
L 231.69168 161.418128 
L 232.393774 163.393025 
L 233.087036 166.707083 
L 233.430425 169.292344 
L 233.771687 173.108918 
L 234.110849 179.714417 
L 234.447936 201.493117 
L 234.782975 182.623708 
L 235.115989 172.795291 
L 235.77604 163.036877 
L 236.42828 157.03047 
L 237.392392 150.581093 
L 238.652187 144.159702 
L 239.883829 139.008018 
L 241.385656 133.582543 
L 243.421748 127.132005 
L 245.93369 120.032911 
L 248.856062 112.471655 
L 253.088082 102.213459 
L 263.136488 78.125239 
L 266.618508 69.013296 
L 271.288906 56.600097 
L 272.312718 54.518525 
L 273.151603 53.240796 
L 273.97791 52.390844 
L 274.792011 51.904427 
L 275.594262 51.679012 
L 276.698149 51.615634 
L 279.290416 51.796905 
L 282.191804 51.880946 
L 286.668435 51.72957 
L 292.240211 51.613741 
L 299.304413 51.739576 
L 309.834164 51.882437 
L 322.132419 51.775425 
L 343.256077 51.614222 
L 369.751507 51.702667 
L 426.156455 51.869269 
L 450 51.882474 
L 450 51.882474 
" clip-path="url(#p96734d8624)" style="fill: none; stroke: #1f6feb; stroke-width: 1.3; stroke-linecap: square"/>
   </g>
   <g id="patch_3">
    <path d="M 59.24 199.528 
L 59.24 24.72 
" style="fill: none; stroke: #000000; stroke-width: 0.8; stroke-linejoin: miter; stroke-linecap: square"/>
   </g>
   <g id="patch_4">
    <path d="M 450 199.528 
L 450 24.72 
" style="fill: none; stroke: #000000; stroke-width: 0.8; stroke-linejoin: miter; stroke-linecap: square"/>
   </g>
   <g id="patch_5">
    <path d="M 59.24 199.528 
L 450 199.528 
" style="fill: none; stroke: #000000; stroke-width: 0.8; stroke-linejoin: miter; stroke-linecap: square"/>
   </g>
   <g id="patch_6">
    <path d="M 59.24 24.72 
L 450 24.72 
" style="fill: none; stroke: #000000; stroke-width: 0.8; stroke-linejoin: miter; stroke-linecap: square"/>
   </g>
   <g id="text_13">
    <text style="font: 10px 'DejaVu Sans', 'Bitstream Vera Sans', 'Computer Modern Sans Serif', 'Lucida Grande', 'Verdana', 'Geneva', 'Lucid', 'Arial', 'Helvetica', 'Avant Garde', sans-serif; text-anchor: middle" x="254.62" y="18.72" transform="rotate(-0 254.62 18.72)">fi.highpass6e(1000) — 6th-order elliptic</text>
   </g>
   <g id="line2d_47">
    <defs>
     <path id="mef2a1bc067" d="M 0 2 
C 0.530406 2 1.03916 1.789267 1.414214 1.414214 
C 1.789267 1.03916 2 0.530406 2 0 
C 2 -0.530406 1.789267 -1.03916 1.414214 -1.414214 
C 1.03916 -1.789267 0.530406 -2 0 -2 
C -0.530406 -2 -1.03916 -1.789267 -1.414214 -1.414214 
C -1.789267 -1.03916 -2 -0.530406 -2 0 
C -2 0.530406 -1.789267 1.03916 -1.414214 1.414214 
C -1.03916 1.789267 -0.530406 2 0 2 
z
" style="stroke: #333333"/>
    </defs>
    <g clip-path="url(#p96734d8624)">
     <use xlink:href="#mef2a1bc067" x="401.749724" y="51.613538" style="fill-opacity: 0; stroke: #333333"/>
    </g>
   </g>
   <g id="line2d_48">
    <g clip-path="url(#p96734d8624)">
     <use xlink:href="#mef2a1bc067" x="198.44212" y="159.187692" style="fill-opacity: 0; stroke: #333333"/>
    </g>
   </g>
  </g>
 </g>
 <defs>
  <clipPath id="p96734d8624">
   <rect x="59.24" y="24.72" width="390.76" height="174.808"/>
  </clipPath>
 </defs>
</svg>
