<?xml version="1.0" encoding="utf-8" standalone="no"?>
<!DOCTYPE svg PUBLIC "-//W3C//DTD SVG 1.1//EN"
  "http://www.w3.org/Graphics/SVG/1.1/DTD/svg11.dtd">
<svg xmlns:xlink="http://www.w3.org/1999/xlink" width="648pt" height="230.4pt" viewBox="0 0 648 230.4" xmlns="http://www.w3.org/2000/svg" version="1.1">
 <metadata>
  <rdf:RDF xmlns:dc="http://purl.org/dc/elements/1.1/" xmlns:cc="http://creativecommons.org/ns#" xmlns:rdf="http://www.w3.org/1999/02/22-rdf-syntax-ns#">
   <cc:Work>
    <dc:type rdf:resource="http://purl.org/dc/dcmitype/StillImage"/>
    <dc:date>2026-08-26T16:29:13.779930</dc:date>
    <dc:format>image/svg+xml</dc:format>
    <dc:creator>
     <cc:Agent>
      <dc:title>Matplotlib v3.9.4, https://matplotlib.org/</dc:title>
     </cc:Agent>
    </dc:creator>
   </cc:Work>
  </rdf:RDF>
 </metadata>
 <defs>
  <style type="text/css">*{stroke-linejoin: round; stroke-linecap: butt}</style>
 </defs>
 <g id="figure_1">
  <g id="patch_1">
   <path d="M 0 230.4 
L 648 230.4 
L 648 0 
L 0 0 
z
" style="fill: #ffffff"/>
  </g>
  <g id="axes_1">
   <g id="patch_2">
    <path d="M 48.22 188.44 
L 313.09 188.44 
L 313.09 24.72 
L 48.22 24.72 
z
" style="fill: #ffffff"/>
   </g>
   <g id="matplotlib.axis_1">
    <g id="xtick_1">
     <g id="line2d_1">
      <path d="M 60.259545 188.44 
L 60.259545 24.72 
" clip-path="url(#p79bd3beaf9)" style="fill: none; stroke: #b0b0b0; stroke-opacity: 0.25; stroke-width: 0.8; stroke-linecap: square"/>
     </g>
     <g id="line2d_2">
      <defs>
       <path id="me86d7578cc" d="M 0 0 
L 0 3.5 
" style="stroke: #000000; stroke-width: 0.8"/>
      </defs>
      <g>
       <use xlink:href="#me86d7578cc" x="60.259545" y="188.44" style="stroke: #000000; stroke-width: 0.8"/>
      </g>
     </g>
     <g id="text_1">
      <text style="font: 10px 'DejaVu Sans', 'Bitstream Vera Sans', 'Computer Modern Sans Serif', 'Lucida Grande', 'Verdana', 'Geneva', 'Lucid', 'Arial', 'Helvetica', 'Avant Garde', sans-serif; text-anchor: middle" x="60.259545" y="203.038437" transform="rotate(-0 60.259545 203.038437)">0.0</text>
     </g>
    </g>
    <g id="xtick_2">
     <g id="line2d_3">
      <path d="M 105.584893 188.44 
L 105.584893 24.72 
" clip-path="url(#p79bd3beaf9)" style="fill: none; stroke: #b0b0b0; stroke-opacity: 0.25; stroke-width: 0.8; stroke-linecap: square"/>
     </g>
     <g id="line2d_4">
      <g>
       <use xlink:href="#me86d7578cc" x="105.584893" y="188.44" style="stroke: #000000; stroke-width: 0.8"/>
      </g>
     </g>
     <g id="text_2">
      <text style="font: 10px 'DejaVu Sans', 'Bitstream Vera Sans', 'Computer Modern Sans Serif', 'Lucida Grande', 'Verdana', 'Geneva', 'Lucid', 'Arial', 'Helvetica', 'Avant Garde', sans-serif; text-anchor: middle" x="105.584893" y="203.038437" transform="rotate(-0 105.584893 203.038437)">0.2</text>
     </g>
    </g>
    <g id="xtick_3">
     <g id="line2d_5">
      <path d="M 150.910241 188.44 
L 150.910241 24.72 
" clip-path="url(#p79bd3beaf9)" style="fill: none; stroke: #b0b0b0; stroke-opacity: 0.25; stroke-width: 0.8; stroke-linecap: square"/>
     </g>
     <g id="line2d_6">
      <g>
       <use xlink:href="#me86d7578cc" x="150.910241" y="188.44" style="stroke: #000000; stroke-width: 0.8"/>
      </g>
     </g>
     <g id="text_3">
      <text style="font: 10px 'DejaVu Sans', 'Bitstream Vera Sans', 'Computer Modern Sans Serif', 'Lucida Grande', 'Verdana', 'Geneva', 'Lucid', 'Arial', 'Helvetica', 'Avant Garde', sans-serif; text-anchor: middle" x="150.910241" y="203.038437" transform="rotate(-0 150.910241 203.038437)">0.4</text>
     </g>
    </g>
    <g id="xtick_4">
     <g id="line2d_7">
      <path d="M 196.235588 188.44 
L 196.235588 24.72 
" clip-path="url(#p79bd3beaf9)" style="fill: none; stroke: #b0b0b0; stroke-opacity: 0.25; stroke-width: 0.8; stroke-linecap: square"/>
     </g>
     <g id="line2d_8">
      <g>
       <use xlink:href="#me86d7578cc" x="196.235588" y="188.44" style="stroke: #000000; stroke-width: 0.8"/>
      </g>
     </g>
     <g id="text_4">
      <text style="font: 10px 'DejaVu Sans', 'Bitstream Vera Sans', 'Computer Modern Sans Serif', 'Lucida Grande', 'Verdana', 'Geneva', 'Lucid', 'Arial', 'Helvetica', 'Avant Garde', sans-serif; text-anchor: middle" x="196.235588" y="203.038437" transform="rotate(-0 196.235588 203.038437)">0.6</text>
     </g>
    </g>
    <g id="xtick_5">
     <g id="line2d_9">
      <path d="M 241.560936 188.44 
L 241.560936 24.72 
" clip-path="url(#p79bd3beaf9)" style="fill: none; stroke: #b0b0b0; stroke-opacity: 0.25; stroke-width: 0.8; stroke-linecap: square"/>
     </g>
     <g id="line2d_10">
      <g>
       <use xlink:href="#me86d7578cc" x="241.560936" y="188.44" style="stroke: #000000; stroke-width: 0.8"/>
      </g>
     </g>
     <g id="text_5">
      <text style="font: 10px 'DejaVu Sans', 'Bitstream Vera Sans', 'Computer Modern Sans Serif', 'Lucida Grande', 'Verdana', 'Geneva', 'Lucid', 'Arial', 'Helvetica', 'Avant Garde', sans-serif; text-anchor: middle" x="241.560936" y="203.038437" transform="rotate(-0 241.560936 203.038437)">0.8</text>
     </g>
    </g>
    <g id="xtick_6">
     <g id="line2d_11">
      <path d="M 286.886283 188.44 
L 286.886283 24.72 
" clip-path="url(#p79bd3beaf9)" style="fill: none; stroke: #b0b0b0; stroke-opacity: 0.25; stroke-width: 0.8; stroke-linecap: square"/>
     </g>
     <g id="line2d_12">
      <g>
       <use xlink:href="#me86d7578cc" x="286.886283" y="188.44" style="stroke: #000000; stroke-width: 0.8"/>
      </g>
     </g>
     <g id="text_6">
      <text style="font: 10px 'DejaVu Sans', 'Bitstream Vera Sans', 'Computer Modern Sans Serif', 'Lucida Grande', 'Verdana', 'Geneva', 'Lucid', 'Arial', 'Helvetica', 'Avant Garde', sans-serif; text-anchor: middle" x="286.886283" y="203.038437" transform="rotate(-0 286.886283 203.038437)">1.0</text>
     </g>
    </g>
    <g id="text_7">
     <text style="font: 10px 'DejaVu Sans', 'Bitstream Vera Sans', 'Computer Modern Sans Serif', 'Lucida Grande', 'Verdana', 'Geneva', 'Lucid', 'Arial', 'Helvetica', 'Avant Garde', sans-serif; text-anchor: middle" x="180.655" y="216.716562" transform="rotate(-0 180.655 216.716562)">ms</text>
    </g>
   </g>
   <g id="matplotlib.axis_2">
    <g id="ytick_1">
     <g id="line2d_13">
      <path d="M 48.22 170.327099 
L 313.09 170.327099 
" clip-path="url(#p79bd3beaf9)" style="fill: none; stroke: #b0b0b0; stroke-opacity: 0.25; stroke-width: 0.8; stroke-linecap: square"/>
     </g>
     <g id="line2d_14">
      <defs>
       <path id="m9ff39248bf" d="M 0 0 
L -3.5 0 
" style="stroke: #000000; stroke-width: 0.8"/>
      </defs>
      <g>
       <use xlink:href="#m9ff39248bf" x="48.22" y="170.327099" style="stroke: #000000; stroke-width: 0.8"/>
      </g>
     </g>
     <g id="text_8">
      <text style="font: 10px 'DejaVu Sans', 'Bitstream Vera Sans', 'Computer Modern Sans Serif', 'Lucida Grande', 'Verdana', 'Geneva', 'Lucid', 'Arial', 'Helvetica', 'Avant Garde', sans-serif; text-anchor: end" x="41.22" y="174.126318" transform="rotate(-0 41.22 174.126318)">−0.75</text>
     </g>
    </g>
    <g id="ytick_2">
     <g id="line2d_15">
      <path d="M 48.22 149.641385 
L 313.09 149.641385 
" clip-path="url(#p79bd3beaf9)" style="fill: none; stroke: #b0b0b0; stroke-opacity: 0.25; stroke-width: 0.8; stroke-linecap: square"/>
     </g>
     <g id="line2d_16">
      <g>
       <use xlink:href="#m9ff39248bf" x="48.22" y="149.641385" style="stroke: #000000; stroke-width: 0.8"/>
      </g>
     </g>
     <g id="text_9">
      <text style="font: 10px 'DejaVu Sans', 'Bitstream Vera Sans', 'Computer Modern Sans Serif', 'Lucida Grande', 'Verdana', 'Geneva', 'Lucid', 'Arial', 'Helvetica', 'Avant Garde', sans-serif; text-anchor: end" x="41.22" y="153.440604" transform="rotate(-0 41.22 153.440604)">−0.50</text>
     </g>
    </g>
    <g id="ytick_3">
     <g id="line2d_17">
      <path d="M 48.22 128.95567 
L 313.09 128.95567 
" clip-path="url(#p79bd3beaf9)" style="fill: none; stroke: #b0b0b0; stroke-opacity: 0.25; stroke-width: 0.8; stroke-linecap: square"/>
     </g>
     <g id="line2d_18">
      <g>
       <use xlink:href="#m9ff39248bf" x="48.22" y="128.95567" style="stroke: #000000; stroke-width: 0.8"/>
      </g>
     </g>
     <g id="text_10">
      <text style="font: 10px 'DejaVu Sans', 'Bitstream Vera Sans', 'Computer Modern Sans Serif', 'Lucida Grande', 'Verdana', 'Geneva', 'Lucid', 'Arial', 'Helvetica', 'Avant Garde', sans-serif; text-anchor: end" x="41.22" y="132.754889" transform="rotate(-0 41.22 132.754889)">−0.25</text>
     </g>
    </g>
    <g id="ytick_4">
     <g id="line2d_19">
      <path d="M 48.22 108.269956 
L 313.09 108.269956 
" clip-path="url(#p79bd3beaf9)" style="fill: none; stroke: #b0b0b0; stroke-opacity: 0.25; stroke-width: 0.8; stroke-linecap: square"/>
     </g>
     <g id="line2d_20">
      <g>
       <use xlink:href="#m9ff39248bf" x="48.22" y="108.269956" style="stroke: #000000; stroke-width: 0.8"/>
      </g>
     </g>
     <g id="text_11">
      <text style="font: 10px 'DejaVu Sans', 'Bitstream Vera Sans', 'Computer Modern Sans Serif', 'Lucida Grande', 'Verdana', 'Geneva', 'Lucid', 'Arial', 'Helvetica', 'Avant Garde', sans-serif; text-anchor: end" x="41.22" y="112.069174" transform="rotate(-0 41.22 112.069174)">0.00</text>
     </g>
    </g>
    <g id="ytick_5">
     <g id="line2d_21">
      <path d="M 48.22 87.584241 
L 313.09 87.584241 
" clip-path="url(#p79bd3beaf9)" style="fill: none; stroke: #b0b0b0; stroke-opacity: 0.25; stroke-width: 0.8; stroke-linecap: square"/>
     </g>
     <g id="line2d_22">
      <g>
       <use xlink:href="#m9ff39248bf" x="48.22" y="87.584241" style="stroke: #000000; stroke-width: 0.8"/>
      </g>
     </g>
     <g id="text_12">
      <text style="font: 10px 'DejaVu Sans', 'Bitstream Vera Sans', 'Computer Modern Sans Serif', 'Lucida Grande', 'Verdana', 'Geneva', 'Lucid', 'Arial', 'Helvetica', 'Avant Garde', sans-serif; text-anchor: end" x="41.22" y="91.38346" transform="rotate(-0 41.22 91.38346)">0.25</text>
     </g>
    </g>
    <g id="ytick_6">
     <g id="line2d_23">
      <path d="M 48.22 66.898526 
L 313.09 66.898526 
" clip-path="url(#p79bd3beaf9)" style="fill: none; stroke: #b0b0b0; stroke-opacity: 0.25; stroke-width: 0.8; stroke-linecap: square"/>
     </g>
     <g id="line2d_24">
      <g>
       <use xlink:href="#m9ff39248bf" x="48.22" y="66.898526" style="stroke: #000000; stroke-width: 0.8"/>
      </g>
     </g>
     <g id="text_13">
      <text style="font: 10px 'DejaVu Sans', 'Bitstream Vera Sans', 'Computer Modern Sans Serif', 'Lucida Grande', 'Verdana', 'Geneva', 'Lucid', 'Arial', 'Helvetica', 'Avant Garde', sans-serif; text-anchor: end" x="41.22" y="70.697745" transform="rotate(-0 41.22 70.697745)">0.50</text>
     </g>
    </g>
    <g id="ytick_7">
     <g id="line2d_25">
      <path d="M 48.22 46.212812 
L 313.09 46.212812 
" clip-path="url(#p79bd3beaf9)" style="fill: none; stroke: #b0b0b0; stroke-opacity: 0.25; stroke-width: 0.8; stroke-linecap: square"/>
     </g>
     <g id="line2d_26">
      <g>
       <use xlink:href="#m9ff39248bf" x="48.22" y="46.212812" style="stroke: #000000; stroke-width: 0.8"/>
      </g>
     </g>
     <g id="text_14">
      <text style="font: 10px 'DejaVu Sans', 'Bitstream Vera Sans', 'Computer Modern Sans Serif', 'Lucida Grande', 'Verdana', 'Geneva', 'Lucid', 'Arial', 'Helvetica', 'Avant Garde', sans-serif; text-anchor: end" x="41.22" y="50.012031" transform="rotate(-0 41.22 50.012031)">0.75</text>
     </g>
    </g>
    <g id="ytick_8">
     <g id="line2d_27">
      <path d="M 48.22 25.527097 
L 313.09 25.527097 
" clip-path="url(#p79bd3beaf9)" style="fill: none; stroke: #b0b0b0; stroke-opacity: 0.25; stroke-width: 0.8; stroke-linecap: square"/>
     </g>
     <g id="line2d_28">
      <g>
       <use xlink:href="#m9ff39248bf" x="48.22" y="25.527097" style="stroke: #000000; stroke-width: 0.8"/>
      </g>
     </g>
     <g id="text_15">
      <text style="font: 10px 'DejaVu Sans', 'Bitstream Vera Sans', 'Computer Modern Sans Serif', 'Lucida Grande', 'Verdana', 'Geneva', 'Lucid', 'Arial', 'Helvetica', 'Avant Garde', sans-serif; text-anchor: end" x="41.22" y="29.326316" transform="rotate(-0 41.22 29.326316)">1.00</text>
     </g>
    </g>
   </g>
   <g id="line2d_29">
    <path d="M 60.259545 45.762563 
L 64.980936 32.161818 
L 69.702326 44.136618 
L 74.423717 63.430951 
L 79.145107 82.706608 
L 83.866497 101.962991 
L 88.587888 121.200117 
L 93.309278 140.418005 
L 98.030668 159.616676 
L 102.752059 176.598268 
L 107.473449 180.102226 
L 112.19484 165.23748 
L 116.91623 145.950069 
L 121.63762 126.681569 
L 126.359011 107.432338 
L 131.080401 88.202357 
L 135.801791 68.991605 
L 140.523182 49.800063 
L 145.244572 33.263788 
L 149.965963 40.181356 
L 154.687353 59.372259 
L 159.408743 78.651974 
L 164.130134 97.912411 
L 168.851524 117.153589 
L 173.572914 136.375523 
L 178.294305 155.578238 
L 183.015695 173.721121 
L 187.737086 180.998182 
L 192.458476 169.235077 
L 197.179866 150.00866 
L 201.901257 130.736103 
L 206.622647 111.482818 
L 211.344037 92.248786 
L 216.065428 73.033988 
L 220.786818 53.838402 
L 225.508209 35.633566 
L 230.229599 36.662445 
L 234.950989 55.312698 
L 239.67238 74.596475 
L 244.39377 93.860968 
L 249.11516 113.106196 
L 253.836551 132.332179 
L 258.557941 151.538937 
L 263.279332 170.342955 
L 268.000722 180.954535 
L 272.722112 172.968894 
L 277.443503 154.068098 
L 282.164893 134.791479 
L 286.886283 115.534138 
L 291.607674 96.296055 
L 296.329064 77.07721 
L 301.050455 57.877585 
" clip-path="url(#p79bd3beaf9)" style="fill: none; stroke: #1f6feb; stroke-width: 1.2; stroke-linecap: square"/>
   </g>
   <g id="patch_3">
    <path d="M 48.22 188.44 
L 48.22 24.72 
" style="fill: none; stroke: #000000; stroke-width: 0.8; stroke-linejoin: miter; stroke-linecap: square"/>
   </g>
   <g id="patch_4">
    <path d="M 313.09 188.44 
L 313.09 24.72 
" style="fill: none; stroke: #000000; stroke-width: 0.8; stroke-linejoin: miter; stroke-linecap: square"/>
   </g>
   <g id="patch_5">
    <path d="M 48.22 188.44 
L 313.09 188.44 
" style="fill: none; stroke: #000000; stroke-width: 0.8; stroke-linejoin: miter; stroke-linecap: square"/>
   </g>
   <g id="patch_6">
    <path d="M 48.22 24.72 
L 313.09 24.72 
" style="fill: none; stroke: #000000; stroke-width: 0.8; stroke-linejoin: miter; stroke-linecap: square"/>
   </g>
   <g id="text_16">
    <text style="font: 10px 'DejaVu Sans', 'Bitstream Vera Sans', 'Computer Modern Sans Serif', 'Lucida Grande', 'Verdana', 'Geneva', 'Lucid', 'Arial', 'Helvetica', 'Avant Garde', sans-serif; text-anchor: middle" x="180.655" y="18.72" transform="rotate(-0 180.655 18.72)">os.triangleN(4) — waveform</text>
   </g>
  </g>
  <g id="axes_2">
   <g id="patch_7">
    <path d="M 372.33 188.44 
L 637.2 188.44 
L 637.2 24.72 
L 372.33 24.72 
z
" style="fill: #ffffff"/>
   </g>
   <g id="line2d_30">
    <path d="M 403.110101 188.44 
L 403.110101 24.72 
" clip-path="url(#p6773e908bc)" style="fill: none; stroke: #d0d7de; stroke-width: 0.7; stroke-linecap: square"/>
   </g>
   <g id="line2d_31">
    <path d="M 433.890202 188.44 
L 433.890202 24.72 
" clip-path="url(#p6773e908bc)" style="fill: none; stroke: #d0d7de; stroke-width: 0.7; stroke-linecap: square"/>
   </g>
   <g id="line2d_32">
    <path d="M 464.670304 188.44 
L 464.670304 24.72 
" clip-path="url(#p6773e908bc)" style="fill: none; stroke: #d0d7de; stroke-width: 0.7; stroke-linecap: square"/>
   </g>
   <g id="line2d_33">
    <path d="M 495.450405 188.44 
L 495.450405 24.72 
" clip-path="url(#p6773e908bc)" style="fill: none; stroke: #d0d7de; stroke-width: 0.7; stroke-linecap: square"/>
   </g>
   <g id="line2d_34">
    <path d="M 526.230506 188.44 
L 526.230506 24.72 
" clip-path="url(#p6773e908bc)" style="fill: none; stroke: #d0d7de; stroke-width: 0.7; stroke-linecap: square"/>
   </g>
   <g id="line2d_35">
    <path d="M 557.010607 188.44 
L 557.010607 24.72 
" clip-path="url(#p6773e908bc)" style="fill: none; stroke: #d0d7de; stroke-width: 0.7; stroke-linecap: square"/>
   </g>
   <g id="line2d_36">
    <path d="M 587.790709 188.44 
L 587.790709 24.72 
" clip-path="url(#p6773e908bc)" style="fill: none; stroke: #d0d7de; stroke-width: 0.7; stroke-linecap: square"/>
   </g>
   <g id="line2d_37">
    <path d="M 618.57081 188.44 
L 618.57081 24.72 
" clip-path="url(#p6773e908bc)" style="fill: none; stroke: #d0d7de; stroke-width: 0.7; stroke-linecap: square"/>
   </g>
   <g id="matplotlib.axis_3">
    <g id="xtick_7">
     <g id="line2d_38">
      <path d="M 372.33 188.44 
L 372.33 24.72 
" clip-path="url(#p6773e908bc)" style="fill: none; stroke: #b0b0b0; stroke-opacity: 0.25; stroke-width: 0.8; stroke-linecap: square"/>
     </g>
     <g id="line2d_39">
      <g>
       <use xlink:href="#me86d7578cc" x="372.33" y="188.44" style="stroke: #000000; stroke-width: 0.8"/>
      </g>
     </g>
     <g id="text_17">
      <text style="font: 10px 'DejaVu Sans', 'Bitstream Vera Sans', 'Computer Modern Sans Serif', 'Lucida Grande', 'Verdana', 'Geneva', 'Lucid', 'Arial', 'Helvetica', 'Avant Garde', sans-serif; text-anchor: middle" x="372.33" y="203.038437" transform="rotate(-0 372.33 203.038437)">0</text>
     </g>
    </g>
    <g id="xtick_8">
     <g id="line2d_40">
      <path d="M 427.51125 188.44 
L 427.51125 24.72 
" clip-path="url(#p6773e908bc)" style="fill: none; stroke: #b0b0b0; stroke-opacity: 0.25; stroke-width: 0.8; stroke-linecap: square"/>
     </g>
     <g id="line2d_41">
      <g>
       <use xlink:href="#me86d7578cc" x="427.51125" y="188.44" style="stroke: #000000; stroke-width: 0.8"/>
      </g>
     </g>
     <g id="text_18">
      <text style="font: 10px 'DejaVu Sans', 'Bitstream Vera Sans', 'Computer Modern Sans Serif', 'Lucida Grande', 'Verdana', 'Geneva', 'Lucid', 'Arial', 'Helvetica', 'Avant Garde', sans-serif; text-anchor: middle" x="427.51125" y="203.038437" transform="rotate(-0 427.51125 203.038437)">5000</text>
     </g>
    </g>
    <g id="xtick_9">
     <g id="line2d_42">
      <path d="M 482.6925 188.44 
L 482.6925 24.72 
" clip-path="url(#p6773e908bc)" style="fill: none; stroke: #b0b0b0; stroke-opacity: 0.25; stroke-width: 0.8; stroke-linecap: square"/>
     </g>
     <g id="line2d_43">
      <g>
       <use xlink:href="#me86d7578cc" x="482.6925" y="188.44" style="stroke: #000000; stroke-width: 0.8"/>
      </g>
     </g>
     <g id="text_19">
      <text style="font: 10px 'DejaVu Sans', 'Bitstream Vera Sans', 'Computer Modern Sans Serif', 'Lucida Grande', 'Verdana', 'Geneva', 'Lucid', 'Arial', 'Helvetica', 'Avant Garde', sans-serif; text-anchor: middle" x="482.6925" y="203.038437" transform="rotate(-0 482.6925 203.038437)">10000</text>
     </g>
    </g>
    <g id="xtick_10">
     <g id="line2d_44">
      <path d="M 537.87375 188.44 
L 537.87375 24.72 
" clip-path="url(#p6773e908bc)" style="fill: none; stroke: #b0b0b0; stroke-opacity: 0.25; stroke-width: 0.8; stroke-linecap: square"/>
     </g>
     <g id="line2d_45">
      <g>
       <use xlink:href="#me86d7578cc" x="537.87375" y="188.44" style="stroke: #000000; stroke-width: 0.8"/>
      </g>
     </g>
     <g id="text_20">
      <text style="font: 10px 'DejaVu Sans', 'Bitstream Vera Sans', 'Computer Modern Sans Serif', 'Lucida Grande', 'Verdana', 'Geneva', 'Lucid', 'Arial', 'Helvetica', 'Avant Garde', sans-serif; text-anchor: middle" x="537.87375" y="203.038437" transform="rotate(-0 537.87375 203.038437)">15000</text>
     </g>
    </g>
    <g id="xtick_11">
     <g id="line2d_46">
      <path d="M 593.055 188.44 
L 593.055 24.72 
" clip-path="url(#p6773e908bc)" style="fill: none; stroke: #b0b0b0; stroke-opacity: 0.25; stroke-width: 0.8; stroke-linecap: square"/>
     </g>
     <g id="line2d_47">
      <g>
       <use xlink:href="#me86d7578cc" x="593.055" y="188.44" style="stroke: #000000; stroke-width: 0.8"/>
      </g>
     </g>
     <g id="text_21">
      <text style="font: 10px 'DejaVu Sans', 'Bitstream Vera Sans', 'Computer Modern Sans Serif', 'Lucida Grande', 'Verdana', 'Geneva', 'Lucid', 'Arial', 'Helvetica', 'Avant Garde', sans-serif; text-anchor: middle" x="593.055" y="203.038437" transform="rotate(-0 593.055 203.038437)">20000</text>
     </g>
    </g>
    <g id="text_22">
     <text style="font: 10px 'DejaVu Sans', 'Bitstream Vera Sans', 'Computer Modern Sans Serif', 'Lucida Grande', 'Verdana', 'Geneva', 'Lucid', 'Arial', 'Helvetica', 'Avant Garde', sans-serif; text-anchor: middle" x="504.765" y="216.716562" transform="rotate(-0 504.765 216.716562)">Hz</text>
    </g>
   </g>
   <g id="matplotlib.axis_4">
    <g id="ytick_9">
     <g id="line2d_48">
      <path d="M 372.33 188.44 
L 637.2 188.44 
" clip-path="url(#p6773e908bc)" style="fill: none; stroke: #b0b0b0; stroke-opacity: 0.25; stroke-width: 0.8; stroke-linecap: square"/>
     </g>
     <g id="line2d_49">
      <g>
       <use xlink:href="#m9ff39248bf" x="372.33" y="188.44" style="stroke: #000000; stroke-width: 0.8"/>
      </g>
     </g>
     <g id="text_23">
      <text style="font: 10px 'DejaVu Sans', 'Bitstream Vera Sans', 'Computer Modern Sans Serif', 'Lucida Grande', 'Verdana', 'Geneva', 'Lucid', 'Arial', 'Helvetica', 'Avant Garde', sans-serif; text-anchor: end" x="365.33" y="192.239219" transform="rotate(-0 365.33 192.239219)">−120</text>
     </g>
    </g>
    <g id="ytick_10">
     <g id="line2d_50">
      <path d="M 372.33 162.2448 
L 637.2 162.2448 
" clip-path="url(#p6773e908bc)" style="fill: none; stroke: #b0b0b0; stroke-opacity: 0.25; stroke-width: 0.8; stroke-linecap: square"/>
     </g>
     <g id="line2d_51">
      <g>
       <use xlink:href="#m9ff39248bf" x="372.33" y="162.2448" style="stroke: #000000; stroke-width: 0.8"/>
      </g>
     </g>
     <g id="text_24">
      <text style="font: 10px 'DejaVu Sans', 'Bitstream Vera Sans', 'Computer Modern Sans Serif', 'Lucida Grande', 'Verdana', 'Geneva', 'Lucid', 'Arial', 'Helvetica', 'Avant Garde', sans-serif; text-anchor: end" x="365.33" y="166.044019" transform="rotate(-0 365.33 166.044019)">−100</text>
     </g>
    </g>
    <g id="ytick_11">
     <g id="line2d_52">
      <path d="M 372.33 136.0496 
L 637.2 136.0496 
" clip-path="url(#p6773e908bc)" style="fill: none; stroke: #b0b0b0; stroke-opacity: 0.25; stroke-width: 0.8; stroke-linecap: square"/>
     </g>
     <g id="line2d_53">
      <g>
       <use xlink:href="#m9ff39248bf" x="372.33" y="136.0496" style="stroke: #000000; stroke-width: 0.8"/>
      </g>
     </g>
     <g id="text_25">
      <text style="font: 10px 'DejaVu Sans', 'Bitstream Vera Sans', 'Computer Modern Sans Serif', 'Lucida Grande', 'Verdana', 'Geneva', 'Lucid', 'Arial', 'Helvetica', 'Avant Garde', sans-serif; text-anchor: end" x="365.33" y="139.848819" transform="rotate(-0 365.33 139.848819)">−80</text>
     </g>
    </g>
    <g id="ytick_12">
     <g id="line2d_54">
      <path d="M 372.33 109.8544 
L 637.2 109.8544 
" clip-path="url(#p6773e908bc)" style="fill: none; stroke: #b0b0b0; stroke-opacity: 0.25; stroke-width: 0.8; stroke-linecap: square"/>
     </g>
     <g id="line2d_55">
      <g>
       <use xlink:href="#m9ff39248bf" x="372.33" y="109.8544" style="stroke: #000000; stroke-width: 0.8"/>
      </g>
     </g>
     <g id="text_26">
      <text style="font: 10px 'DejaVu Sans', 'Bitstream Vera Sans', 'Computer Modern Sans Serif', 'Lucida Grande', 'Verdana', 'Geneva', 'Lucid', 'Arial', 'Helvetica', 'Avant Garde', sans-serif; text-anchor: end" x="365.33" y="113.653619" transform="rotate(-0 365.33 113.653619)">−60</text>
     </g>
    </g>
    <g id="ytick_13">
     <g id="line2d_56">
      <path d="M 372.33 83.6592 
L 637.2 83.6592 
" clip-path="url(#p6773e908bc)" style="fill: none; stroke: #b0b0b0; stroke-opacity: 0.25; stroke-width: 0.8; stroke-linecap: square"/>
     </g>
     <g id="line2d_57">
      <g>
       <use xlink:href="#m9ff39248bf" x="372.33" y="83.6592" style="stroke: #000000; stroke-width: 0.8"/>
      </g>
     </g>
     <g id="text_27">
      <text style="font: 10px 'DejaVu Sans', 'Bitstream Vera Sans', 'Computer Modern Sans Serif', 'Lucida Grande', 'Verdana', 'Geneva', 'Lucid', 'Arial', 'Helvetica', 'Avant Garde', sans-serif; text-anchor: end" x="365.33" y="87.458419" transform="rotate(-0 365.33 87.458419)">−40</text>
     </g>
    </g>
    <g id="ytick_14">
     <g id="line2d_58">
      <path d="M 372.33 57.464 
L 637.2 57.464 
" clip-path="url(#p6773e908bc)" style="fill: none; stroke: #b0b0b0; stroke-opacity: 0.25; stroke-width: 0.8; stroke-linecap: square"/>
     </g>
     <g id="line2d_59">
      <g>
       <use xlink:href="#m9ff39248bf" x="372.33" y="57.464" style="stroke: #000000; stroke-width: 0.8"/>
      </g>
     </g>
     <g id="text_28">
      <text style="font: 10px 'DejaVu Sans', 'Bitstream Vera Sans', 'Computer Modern Sans Serif', 'Lucida Grande', 'Verdana', 'Geneva', 'Lucid', 'Arial', 'Helvetica', 'Avant Garde', sans-serif; text-anchor: end" x="365.33" y="61.263219" transform="rotate(-0 365.33 61.263219)">−20</text>
     </g>
    </g>
    <g id="ytick_15">
     <g id="line2d_60">
      <path d="M 372.33 31.2688 
L 637.2 31.2688 
" clip-path="url(#p6773e908bc)" style="fill: none; stroke: #b0b0b0; stroke-opacity: 0.25; stroke-width: 0.8; stroke-linecap: square"/>
     </g>
     <g id="line2d_61">
      <g>
       <use xlink:href="#m9ff39248bf" x="372.33" y="31.2688" style="stroke: #000000; stroke-width: 0.8"/>
      </g>
     </g>
     <g id="text_29">
      <text style="font: 10px 'DejaVu Sans', 'Bitstream Vera Sans', 'Computer Modern Sans Serif', 'Lucida Grande', 'Verdana', 'Geneva', 'Lucid', 'Arial', 'Helvetica', 'Avant Garde', sans-serif; text-anchor: end" x="365.33" y="35.068019" transform="rotate(-0 365.33 35.068019)">0</text>
     </g>
    </g>
    <g id="text_30">
     <text style="font: 10px 'DejaVu Sans', 'Bitstream Vera Sans', 'Computer Modern Sans Serif', 'Lucida Grande', 'Verdana', 'Geneva', 'Lucid', 'Arial', 'Helvetica', 'Avant Garde', sans-serif; text-anchor: middle" x="331.783125" y="106.58" transform="rotate(-90 331.783125 106.58)">dB</text>
    </g>
   </g>
   <g id="line2d_62">
    <path d="M 372.35425 184.892608 
L 372.677643 231.4 
M 378.771053 231.4 
L 378.820802 208.803946 
L 378.847138 231.4 
M 385.266218 231.4 
L 385.287355 218.305286 
L 385.30707 231.4 
M 390.110736 231.4 
L 390.13727 209.829676 
L 390.206325 231.4 
M 391.743716 231.4 
L 391.753908 222.741236 
L 391.768405 231.4 
M 396.542947 231.4 
L 396.603822 169.107528 
L 396.668488 173.218432 
L 396.726145 231.4 
M 398.212349 231.4 
L 398.220461 227.348879 
L 398.246087 231.4 
M 401.042445 231.4 
L 401.453737 224.305633 
L 401.518402 220.446311 
L 401.583068 221.094705 
L 402.035727 209.090098 
L 402.42372 193.546442 
L 402.747047 170.818399 
L 402.941044 141.786236 
L 403.00571 121.297416 
L 403.135041 31.2688 
L 403.329037 152.121882 
L 403.652365 185.753008 
L 404.105023 207.429407 
L 404.622348 222.257435 
L 404.687013 221.186148 
L 404.945675 229.095258 
L 405.066574 231.4 
M 407.968552 231.4 
L 407.984955 221.759 
L 407.999817 231.4 
M 409.460529 231.4 
L 409.536928 181.625019 
L 409.601593 154.557623 
L 409.719458 231.4 
M 414.419564 231.4 
L 414.451508 207.490925 
L 414.488576 231.4 
M 415.994679 231.4 
L 416.068146 186.52526 
L 416.136732 231.4 
M 420.869381 231.4 
L 420.918061 191.416263 
L 420.982726 211.283062 
L 421.00918 231.4 
M 422.507877 231.4 
L 422.534699 205.495447 
L 422.575991 231.4 
M 427.32156 231.4 
L 427.384613 165.554434 
L 427.449279 170.335865 
L 427.507693 231.4 
M 428.993763 231.4 
L 429.001252 225.355602 
L 429.039002 231.4 
M 433.37222 231.4 
L 433.592504 211.22469 
L 433.786501 168.634655 
L 433.915832 86.712102 
L 434.109828 199.803905 
L 434.406709 231.4 
M 438.756221 231.4 
L 438.765746 224.32376 
L 438.77487 231.4 
M 440.223055 231.4 
L 440.317719 175.68693 
L 440.382384 150.893766 
L 440.510143 231.4 
M 445.191432 231.4 
L 445.232299 201.622617 
L 445.279629 231.4 
M 446.757543 231.4 
L 446.848937 176.380002 
L 446.933901 231.4 
M 451.635018 231.4 
L 451.698852 179.218788 
L 451.763517 201.019724 
L 451.80378 231.4 
M 453.273538 231.4 
L 453.31549 189.682374 
L 453.374515 231.4 
M 456.541211 231.4 
L 456.548766 224.536409 
L 456.621274 231.4 
M 458.060059 231.4 
L 458.100739 216.447795 
L 458.165404 146.490503 
L 458.23007 151.952329 
L 458.324661 231.4 
M 459.749907 231.4 
L 459.782043 200.278756 
L 459.846708 211.444015 
L 459.868808 231.4 
M 462.99625 231.4 
L 463.079984 211.848517 
L 463.132029 231.4 
M 463.343985 231.4 
L 463.920636 211.40579 
L 464.243964 191.303964 
L 464.437961 168.798976 
L 464.567292 135.240492 
L 464.696623 58.125067 
L 464.890619 166.822902 
L 465.213947 200.189598 
L 465.666606 221.658426 
L 465.984605 231.4 
M 466.195891 231.4 
L 466.248595 210.102084 
L 466.313261 211.272715 
L 466.35853 231.4 
M 469.504825 231.4 
L 469.546537 202.093992 
L 469.575622 231.4 
M 470.895689 231.4 
L 471.033844 199.484657 
L 471.163175 128.710634 
L 471.357172 224.084026 
L 471.403869 231.4 
M 472.71411 231.4 
L 472.779814 217.596999 
L 472.796305 231.4 
M 475.956072 231.4 
L 476.01309 191.207454 
L 476.077297 231.4 
M 477.519674 231.4 
L 477.629728 165.400089 
L 477.734054 231.4 
M 479.239675 231.4 
L 479.246366 225.624872 
L 479.257249 231.4 
M 480.860577 231.4 
L 480.863004 229.62558 
L 480.871691 231.4 
M 482.412283 231.4 
L 482.479643 177.030283 
L 482.544308 200.877206 
L 482.585958 231.4 
M 484.056359 231.4 
L 484.096281 187.665733 
L 484.149344 231.4 
M 487.32583 231.4 
L 487.329557 228.330234 
L 487.396682 231.4 
M 488.87295 231.4 
L 488.88153 228.324563 
L 488.946195 155.023049 
L 489.010861 161.175268 
L 489.072799 231.4 
M 490.53926 231.4 
L 490.562834 209.217932 
L 490.638963 231.4 
M 493.850929 231.4 
L 493.860775 229.648692 
L 493.864186 231.4 
M 494.846498 231.4 
L 495.08942 212.814673 
L 495.283417 183.431568 
L 495.348083 162.496463 
L 495.477414 88.810805 
L 495.67141 194.492787 
L 495.994738 227.843779 
L 496.053156 231.4 
M 497.018546 231.4 
L 497.029386 225.005246 
L 497.10337 231.4 
M 500.295754 231.4 
L 500.327328 211.444908 
L 500.349631 231.4 
M 501.690111 231.4 
L 501.814635 201.544094 
L 501.943966 131.680974 
L 502.16864 231.4 
M 503.503221 231.4 
L 503.560605 220.755481 
L 503.572211 231.4 
M 506.736393 231.4 
L 506.793881 192.162502 
L 506.857058 231.4 
M 508.295509 231.4 
L 508.410519 161.863513 
L 508.518726 231.4 
M 510.015664 231.4 
L 510.027157 221.703628 
L 510.045202 231.4 
M 511.63393 231.4 
L 511.643795 224.940063 
L 511.673349 231.4 
M 513.179811 231.4 
L 513.260434 170.968605 
L 513.325099 197.016068 
L 513.372929 231.4 
M 514.83915 231.4 
L 514.877072 177.862842 
L 514.923265 231.4 
M 516.485363 231.4 
L 516.49371 225.288221 
L 516.515814 231.4 
M 518.094098 231.4 
L 518.110348 215.568466 
L 518.189802 231.4 
M 519.633052 231.4 
L 519.662321 220.594442 
L 519.726986 141.665647 
L 519.791652 148.519212 
L 519.869176 231.4 
M 521.299263 231.4 
L 521.343625 190.393318 
L 521.40829 203.236401 
L 521.438654 231.4 
M 522.957356 231.4 
L 522.960263 229.570582 
L 522.981136 231.4 
M 524.547965 231.4 
L 524.641566 205.22432 
L 524.683278 231.4 
M 525.232006 231.4 
L 525.611549 214.616676 
L 525.870211 195.155912 
L 526.064208 165.666786 
L 526.128874 144.582428 
L 526.258205 73.551608 
L 526.452201 177.006605 
L 526.775529 210.210887 
L 527.223802 231.4 
M 527.767113 231.4 
L 527.810177 201.272215 
L 527.874843 202.279339 
L 527.917067 231.4 
M 529.476733 231.4 
L 529.491481 231.008187 
L 529.492103 231.4 
M 531.046025 231.4 
L 531.108119 196.121818 
L 531.14605 231.4 
M 532.332885 231.4 
L 532.466095 215.182327 
L 532.595426 184.264413 
L 532.724757 115.134657 
L 532.918754 209.606434 
L 533.085999 231.4 
M 534.264193 231.4 
L 534.341396 209.463092 
L 534.365398 231.4 
M 535.941144 231.4 
L 535.958034 226.910758 
L 535.963642 231.4 
M 537.506478 231.4 
L 537.574672 186.794088 
L 537.64732 231.4 
M 539.068246 231.4 
L 539.19131 155.644151 
L 539.30802 231.4 
M 540.788878 231.4 
L 540.807948 218.678302 
L 540.830945 231.4 
M 542.414584 231.4 
L 542.424586 224.672447 
L 542.453351 231.4 
M 543.966943 231.4 
L 544.041225 172.904077 
L 544.10589 201.334716 
L 544.148335 231.4 
M 545.612862 231.4 
L 545.657863 179.67388 
L 545.714228 231.4 
M 547.272115 231.4 
L 547.274501 229.650931 
L 547.280643 231.4 
M 548.880391 231.4 
L 548.891139 222.208989 
L 548.963274 231.4 
M 550.451831 231.4 
L 550.507777 151.742504 
L 550.572443 159.310416 
L 550.623001 231.4 
M 552.087817 231.4 
L 552.124416 199.385421 
L 552.189081 213.13663 
L 552.210275 231.4 
M 555.349317 231.4 
L 555.422357 216.650112 
L 555.443167 231.4 
M 556.397007 231.4 
L 556.651003 212.130799 
L 556.844999 182.535244 
L 556.909665 161.301892 
L 557.038996 92.417299 
L 557.232992 194.157449 
L 557.55632 227.280588 
L 557.623269 231.4 
M 558.564195 231.4 
L 558.590968 209.945355 
L 558.655634 211.409536 
L 558.681569 231.4 
M 561.834689 231.4 
L 561.88891 203.441604 
L 561.921363 231.4 
M 563.125055 231.4 
L 563.311552 204.177007 
L 563.505548 116.138106 
L 563.699545 210.9397 
L 563.853476 231.4 
M 565.046862 231.4 
L 565.122187 212.458435 
L 565.143557 231.4 
M 566.730331 231.4 
L 566.738825 229.342328 
L 566.741792 231.4 
M 568.288438 231.4 
L 568.355463 188.540138 
L 568.424934 231.4 
M 569.847148 231.4 
L 569.972101 153.149529 
L 570.089454 231.4 
M 571.563793 231.4 
L 571.588739 216.147295 
L 571.615758 231.4 
M 573.188449 231.4 
L 573.205378 221.614442 
L 573.244845 231.4 
M 574.740563 231.4 
L 574.822016 168.746515 
L 574.886681 199.790807 
L 574.932275 231.4 
M 576.378891 231.4 
L 576.438654 172.114379 
L 576.516832 231.4 
M 578.04052 231.4 
L 578.055292 221.445706 
L 578.089063 231.4 
M 579.652106 231.4 
L 579.67193 212.727252 
L 579.753538 231.4 
M 581.223913 231.4 
L 581.288568 142.60582 
L 581.353234 150.902764 
L 581.411828 231.4 
M 582.85392 231.4 
L 582.905207 186.592863 
L 582.969872 201.263531 
L 583.004303 231.4 
M 584.514931 231.4 
L 584.521845 225.960224 
L 584.570155 231.4 
M 586.112971 231.4 
L 586.203148 203.993495 
L 586.237276 231.4 
M 587.047645 231.4 
L 587.367128 211.339623 
L 587.561125 188.594627 
L 587.690456 154.225596 
L 587.819787 87.119839 
L 588.013783 187.511839 
L 588.337111 220.616257 
L 588.529324 231.4 
M 589.335775 231.4 
L 589.371759 197.875086 
L 589.436425 199.934119 
L 589.475007 231.4 
M 590.987282 231.4 
L 591.053063 229.825351 
L 591.055195 231.4 
M 592.596964 231.4 
L 592.669701 196.103762 
L 592.709451 231.4 
M 593.78433 231.4 
L 594.027677 205.65989 
L 594.157008 174.418909 
L 594.286339 105.112325 
L 594.480336 200.563876 
L 594.752933 231.4 
M 595.820536 231.4 
L 595.902978 207.160597 
L 595.928304 231.4 
M 597.499298 231.4 
L 597.519616 226.713059 
L 597.526032 231.4 
M 599.066539 231.4 
L 599.136254 187.742581 
L 599.206028 231.4 
M 600.629244 231.4 
L 600.752892 151.18837 
L 600.867935 231.4 
M 602.343187 231.4 
L 602.36953 217.021139 
L 602.394196 231.4 
M 603.974466 231.4 
L 603.986169 224.669099 
L 604.011257 231.4 
M 605.534808 231.4 
L 605.602807 173.22279 
L 605.667472 207.242153 
L 605.70255 231.4 
M 607.158032 231.4 
L 607.219445 175.612016 
L 607.298304 231.4 
M 608.828491 231.4 
L 608.836083 226.517912 
L 608.852308 231.4 
M 610.438556 231.4 
L 610.452721 218.69221 
L 610.526782 231.4 
M 611.993344 231.4 
L 612.004694 227.135658 
L 612.069359 150.346798 
L 612.134025 159.389467 
L 612.194752 231.4 
M 613.639417 231.4 
L 613.685998 191.879222 
L 613.750663 207.532932 
L 613.779407 231.4 
M 615.302013 231.4 
L 615.302636 230.953872 
L 615.306144 231.4 
M 616.901244 231.4 
L 616.98394 209.489102 
L 617.009812 231.4 
M 617.999139 231.4 
L 618.27725 207.314655 
L 618.471247 163.341106 
L 618.600578 97.728067 
L 618.794574 197.067905 
L 619.117902 229.941091 
L 619.140838 231.4 
M 620.122094 231.4 
L 620.15255 200.666787 
L 620.217216 203.327931 
L 620.250089 231.4 
M 623.377583 231.4 
L 623.450492 198.744462 
L 623.488141 231.4 
M 624.515932 231.4 
L 624.743803 211.199891 
L 624.937799 170.812953 
L 625.06713 101.053307 
L 625.261127 197.365566 
L 625.582452 231.4 
M 626.598724 231.4 
L 626.683769 206.721058 
L 626.709965 231.4 
M 628.275868 231.4 
L 628.300407 226.288684 
L 628.307949 231.4 
M 629.844192 231.4 
L 629.917045 186.50579 
L 629.987104 231.4 
M 631.407928 231.4 
L 631.533683 146.828177 
L 631.650167 231.4 
M 633.11431 231.4 
L 633.150321 213.308528 
L 633.180715 231.4 
M 634.747077 231.4 
L 634.76696 220.93627 
L 634.803724 231.4 
M 636.311361 231.4 
L 636.383598 169.418202 
L 636.448263 206.877917 
L 636.484677 231.4 
L 636.484677 231.4 
" clip-path="url(#p6773e908bc)" style="fill: none; stroke: #cf222e; stroke-width: 0.8; stroke-linecap: square"/>
   </g>
   <g id="line2d_63">
    <path d="M 372.33 101.053307 
L 637.2 101.053307 
" clip-path="url(#p6773e908bc)" style="fill: none; stroke-dasharray: 0.7,1.155; stroke-dashoffset: 0; stroke: #333333; stroke-width: 0.7"/>
   </g>
   <g id="patch_8">
    <path d="M 372.33 188.44 
L 372.33 24.72 
" style="fill: none; stroke: #000000; stroke-width: 0.8; stroke-linejoin: miter; stroke-linecap: square"/>
   </g>
   <g id="patch_9">
    <path d="M 637.2 188.44 
L 637.2 24.72 
" style="fill: none; stroke: #000000; stroke-width: 0.8; stroke-linejoin: miter; stroke-linecap: square"/>
   </g>
   <g id="patch_10">
    <path d="M 372.33 188.44 
L 637.2 188.44 
" style="fill: none; stroke: #000000; stroke-width: 0.8; stroke-linejoin: miter; stroke-linecap: square"/>
   </g>
   <g id="patch_11">
    <path d="M 372.33 24.72 
L 637.2 24.72 
" style="fill: none; stroke: #000000; stroke-width: 0.8; stroke-linejoin: miter; stroke-linecap: square"/>
   </g>
   <g id="text_31">
    <text style="font: 10px 'DejaVu Sans', 'Bitstream Vera Sans', 'Computer Modern Sans Serif', 'Lucida Grande', 'Verdana', 'Geneva', 'Lucid', 'Arial', 'Helvetica', 'Avant Garde', sans-serif; text-anchor: middle" x="504.765" y="18.72" transform="rotate(-0 504.765 18.72)">spectrum, 2789 Hz (dotted = alias floor -53 dB)</text>
   </g>
  </g>
 </g>
 <defs>
  <clipPath id="p79bd3beaf9">
   <rect x="48.22" y="24.72" width="264.87" height="163.72"/>
  </clipPath>
  <clipPath id="p6773e908bc">
   <rect x="372.33" y="24.72" width="264.87" height="163.72"/>
  </clipPath>
 </defs>
</svg>
