<?xml version="1.0" encoding="utf-8" standalone="no"?>
<!DOCTYPE svg PUBLIC "-//W3C//DTD SVG 1.1//EN"
  "http://www.w3.org/Graphics/SVG/1.1/DTD/svg11.dtd">
<svg xmlns:xlink="http://www.w3.org/1999/xlink" width="460.8pt" height="244.8pt" viewBox="0 0 460.8 244.8" xmlns="http://www.w3.org/2000/svg" version="1.1">
 <metadata>
  <rdf:RDF xmlns:dc="http://purl.org/dc/elements/1.1/" xmlns:cc="http://creativecommons.org/ns#" xmlns:rdf="http://www.w3.org/1999/02/22-rdf-syntax-ns#">
   <cc:Work>
    <dc:type rdf:resource="http://purl.org/dc/dcmitype/StillImage"/>
    <dc:date>2026-08-26T16:37:16.468245</dc:date>
    <dc:format>image/svg+xml</dc:format>
    <dc:creator>
     <cc:Agent>
      <dc:title>Matplotlib v3.9.4, https://matplotlib.org/</dc:title>
     </cc:Agent>
    </dc:creator>
   </cc:Work>
  </rdf:RDF>
 </metadata>
 <defs>
  <style type="text/css">*{stroke-linejoin: round; stroke-linecap: butt}</style>
 </defs>
 <g id="figure_1">
  <g id="patch_1">
   <path d="M 0 244.8 
L 460.8 244.8 
L 460.8 0 
L 0 0 
z
" style="fill: #ffffff"/>
  </g>
  <g id="axes_1">
   <g id="patch_2">
    <path d="M 52.94 199.528 
L 450 199.528 
L 450 24.72 
L 52.94 24.72 
z
" style="fill: #ffffff"/>
   </g>
   <g id="matplotlib.axis_1">
    <g id="xtick_1">
     <g id="line2d_1">
      <path d="M 143.072086 199.528 
L 143.072086 24.72 
" clip-path="url(#p5153f929a5)" style="fill: none; stroke: #b0b0b0; stroke-opacity: 0.25; stroke-width: 0.8; stroke-linecap: square"/>
     </g>
     <g id="line2d_2">
      <defs>
       <path id="mf9bce17d48" d="M 0 0 
L 0 3.5 
" style="stroke: #000000; stroke-width: 0.8"/>
      </defs>
      <g>
       <use xlink:href="#mf9bce17d48" x="143.072086" y="199.528" style="stroke: #000000; stroke-width: 0.8"/>
      </g>
     </g>
     <g id="text_1">
      <!-- $\mathdefault{10^{2}}$ -->
      <g transform="translate(134.272086 214.126438)">
       <text>
        <tspan style="font: 10px 'DejaVu Sans'" x="0 6.362305" y="-0.9765625">10</tspan>
        <tspan style="font: 7px 'DejaVu Sans'" x="12.820312" y="-4.8046875">2</tspan>
       </text>
      </g>
     </g>
    </g>
    <g id="xtick_2">
     <g id="line2d_3">
      <path d="M 272.021949 199.528 
L 272.021949 24.72 
" clip-path="url(#p5153f929a5)" style="fill: none; stroke: #b0b0b0; stroke-opacity: 0.25; stroke-width: 0.8; stroke-linecap: square"/>
     </g>
     <g id="line2d_4">
      <g>
       <use xlink:href="#mf9bce17d48" x="272.021949" y="199.528" style="stroke: #000000; stroke-width: 0.8"/>
      </g>
     </g>
     <g id="text_2">
      <!-- $\mathdefault{10^{3}}$ -->
      <g transform="translate(263.221949 214.126438)">
       <text>
        <tspan style="font: 10px 'DejaVu Sans'" x="0 6.362305" y="-0.9765625">10</tspan>
        <tspan style="font: 7px 'DejaVu Sans'" x="12.820312" y="-4.8046875">3</tspan>
       </text>
      </g>
     </g>
    </g>
    <g id="xtick_3">
     <g id="line2d_5">
      <path d="M 400.971812 199.528 
L 400.971812 24.72 
" clip-path="url(#p5153f929a5)" style="fill: none; stroke: #b0b0b0; stroke-opacity: 0.25; stroke-width: 0.8; stroke-linecap: square"/>
     </g>
     <g id="line2d_6">
      <g>
       <use xlink:href="#mf9bce17d48" x="400.971812" y="199.528" style="stroke: #000000; stroke-width: 0.8"/>
      </g>
     </g>
     <g id="text_3">
      <!-- $\mathdefault{10^{4}}$ -->
      <g transform="translate(392.171812 214.126438)">
       <text>
        <tspan style="font: 10px 'DejaVu Sans'" x="0 6.362305" y="-0.06406250000000036">10</tspan>
        <tspan style="font: 7px 'DejaVu Sans'" x="12.820312" y="-3.8921875000000004">4</tspan>
       </text>
      </g>
     </g>
    </g>
    <g id="xtick_4">
     <g id="line2d_7">
      <defs>
       <path id="m0afb7cb13f" d="M 0 0 
L 0 2 
" style="stroke: #000000; stroke-width: 0.6"/>
      </defs>
      <g>
       <use xlink:href="#m0afb7cb13f" x="52.94" y="199.528" style="stroke: #000000; stroke-width: 0.6"/>
      </g>
     </g>
    </g>
    <g id="xtick_5">
     <g id="line2d_8">
      <g>
       <use xlink:href="#m0afb7cb13f" x="75.646944" y="199.528" style="stroke: #000000; stroke-width: 0.6"/>
      </g>
     </g>
    </g>
    <g id="xtick_6">
     <g id="line2d_9">
      <g>
       <use xlink:href="#m0afb7cb13f" x="91.757777" y="199.528" style="stroke: #000000; stroke-width: 0.6"/>
      </g>
     </g>
    </g>
    <g id="xtick_7">
     <g id="line2d_10">
      <g>
       <use xlink:href="#m0afb7cb13f" x="104.25431" y="199.528" style="stroke: #000000; stroke-width: 0.6"/>
      </g>
     </g>
    </g>
    <g id="xtick_8">
     <g id="line2d_11">
      <g>
       <use xlink:href="#m0afb7cb13f" x="114.46472" y="199.528" style="stroke: #000000; stroke-width: 0.6"/>
      </g>
     </g>
    </g>
    <g id="xtick_9">
     <g id="line2d_12">
      <g>
       <use xlink:href="#m0afb7cb13f" x="123.0975" y="199.528" style="stroke: #000000; stroke-width: 0.6"/>
      </g>
     </g>
    </g>
    <g id="xtick_10">
     <g id="line2d_13">
      <g>
       <use xlink:href="#m0afb7cb13f" x="130.575553" y="199.528" style="stroke: #000000; stroke-width: 0.6"/>
      </g>
     </g>
    </g>
    <g id="xtick_11">
     <g id="line2d_14">
      <g>
       <use xlink:href="#m0afb7cb13f" x="137.171664" y="199.528" style="stroke: #000000; stroke-width: 0.6"/>
      </g>
     </g>
    </g>
    <g id="xtick_12">
     <g id="line2d_15">
      <g>
       <use xlink:href="#m0afb7cb13f" x="181.889863" y="199.528" style="stroke: #000000; stroke-width: 0.6"/>
      </g>
     </g>
    </g>
    <g id="xtick_13">
     <g id="line2d_16">
      <g>
       <use xlink:href="#m0afb7cb13f" x="204.596807" y="199.528" style="stroke: #000000; stroke-width: 0.6"/>
      </g>
     </g>
    </g>
    <g id="xtick_14">
     <g id="line2d_17">
      <g>
       <use xlink:href="#m0afb7cb13f" x="220.70764" y="199.528" style="stroke: #000000; stroke-width: 0.6"/>
      </g>
     </g>
    </g>
    <g id="xtick_15">
     <g id="line2d_18">
      <g>
       <use xlink:href="#m0afb7cb13f" x="233.204173" y="199.528" style="stroke: #000000; stroke-width: 0.6"/>
      </g>
     </g>
    </g>
    <g id="xtick_16">
     <g id="line2d_19">
      <g>
       <use xlink:href="#m0afb7cb13f" x="243.414584" y="199.528" style="stroke: #000000; stroke-width: 0.6"/>
      </g>
     </g>
    </g>
    <g id="xtick_17">
     <g id="line2d_20">
      <g>
       <use xlink:href="#m0afb7cb13f" x="252.047363" y="199.528" style="stroke: #000000; stroke-width: 0.6"/>
      </g>
     </g>
    </g>
    <g id="xtick_18">
     <g id="line2d_21">
      <g>
       <use xlink:href="#m0afb7cb13f" x="259.525416" y="199.528" style="stroke: #000000; stroke-width: 0.6"/>
      </g>
     </g>
    </g>
    <g id="xtick_19">
     <g id="line2d_22">
      <g>
       <use xlink:href="#m0afb7cb13f" x="266.121527" y="199.528" style="stroke: #000000; stroke-width: 0.6"/>
      </g>
     </g>
    </g>
    <g id="xtick_20">
     <g id="line2d_23">
      <g>
       <use xlink:href="#m0afb7cb13f" x="310.839726" y="199.528" style="stroke: #000000; stroke-width: 0.6"/>
      </g>
     </g>
    </g>
    <g id="xtick_21">
     <g id="line2d_24">
      <g>
       <use xlink:href="#m0afb7cb13f" x="333.54667" y="199.528" style="stroke: #000000; stroke-width: 0.6"/>
      </g>
     </g>
    </g>
    <g id="xtick_22">
     <g id="line2d_25">
      <g>
       <use xlink:href="#m0afb7cb13f" x="349.657503" y="199.528" style="stroke: #000000; stroke-width: 0.6"/>
      </g>
     </g>
    </g>
    <g id="xtick_23">
     <g id="line2d_26">
      <g>
       <use xlink:href="#m0afb7cb13f" x="362.154036" y="199.528" style="stroke: #000000; stroke-width: 0.6"/>
      </g>
     </g>
    </g>
    <g id="xtick_24">
     <g id="line2d_27">
      <g>
       <use xlink:href="#m0afb7cb13f" x="372.364447" y="199.528" style="stroke: #000000; stroke-width: 0.6"/>
      </g>
     </g>
    </g>
    <g id="xtick_25">
     <g id="line2d_28">
      <g>
       <use xlink:href="#m0afb7cb13f" x="380.997226" y="199.528" style="stroke: #000000; stroke-width: 0.6"/>
      </g>
     </g>
    </g>
    <g id="xtick_26">
     <g id="line2d_29">
      <g>
       <use xlink:href="#m0afb7cb13f" x="388.47528" y="199.528" style="stroke: #000000; stroke-width: 0.6"/>
      </g>
     </g>
    </g>
    <g id="xtick_27">
     <g id="line2d_30">
      <g>
       <use xlink:href="#m0afb7cb13f" x="395.07139" y="199.528" style="stroke: #000000; stroke-width: 0.6"/>
      </g>
     </g>
    </g>
    <g id="xtick_28">
     <g id="line2d_31">
      <g>
       <use xlink:href="#m0afb7cb13f" x="439.789589" y="199.528" style="stroke: #000000; stroke-width: 0.6"/>
      </g>
     </g>
    </g>
    <g id="text_4">
     <text style="font: 10px 'DejaVu Sans', 'Bitstream Vera Sans', 'Computer Modern Sans Serif', 'Lucida Grande', 'Verdana', 'Geneva', 'Lucid', 'Arial', 'Helvetica', 'Avant Garde', sans-serif; text-anchor: middle" x="251.47" y="227.804563" transform="rotate(-0 251.47 227.804563)">Hz</text>
    </g>
   </g>
   <g id="matplotlib.axis_2">
    <g id="ytick_1">
     <g id="line2d_32">
      <path d="M 52.94 183.636364 
L 450 183.636364 
" clip-path="url(#p5153f929a5)" style="fill: none; stroke: #b0b0b0; stroke-opacity: 0.25; stroke-width: 0.8; stroke-linecap: square"/>
     </g>
     <g id="line2d_33">
      <defs>
       <path id="mbe75de8c60" d="M 0 0 
L -3.5 0 
" style="stroke: #000000; stroke-width: 0.8"/>
      </defs>
      <g>
       <use xlink:href="#mbe75de8c60" x="52.94" y="183.636364" style="stroke: #000000; stroke-width: 0.8"/>
      </g>
     </g>
     <g id="text_5">
      <text style="font: 10px 'DejaVu Sans', 'Bitstream Vera Sans', 'Computer Modern Sans Serif', 'Lucida Grande', 'Verdana', 'Geneva', 'Lucid', 'Arial', 'Helvetica', 'Avant Garde', sans-serif; text-anchor: end" x="45.94" y="187.435582" transform="rotate(-0 45.94 187.435582)">−40</text>
     </g>
    </g>
    <g id="ytick_2">
     <g id="line2d_34">
      <path d="M 52.94 151.853091 
L 450 151.853091 
" clip-path="url(#p5153f929a5)" style="fill: none; stroke: #b0b0b0; stroke-opacity: 0.25; stroke-width: 0.8; stroke-linecap: square"/>
     </g>
     <g id="line2d_35">
      <g>
       <use xlink:href="#mbe75de8c60" x="52.94" y="151.853091" style="stroke: #000000; stroke-width: 0.8"/>
      </g>
     </g>
     <g id="text_6">
      <text style="font: 10px 'DejaVu Sans', 'Bitstream Vera Sans', 'Computer Modern Sans Serif', 'Lucida Grande', 'Verdana', 'Geneva', 'Lucid', 'Arial', 'Helvetica', 'Avant Garde', sans-serif; text-anchor: end" x="45.94" y="155.65231" transform="rotate(-0 45.94 155.65231)">−30</text>
     </g>
    </g>
    <g id="ytick_3">
     <g id="line2d_36">
      <path d="M 52.94 120.069818 
L 450 120.069818 
" clip-path="url(#p5153f929a5)" style="fill: none; stroke: #b0b0b0; stroke-opacity: 0.25; stroke-width: 0.8; stroke-linecap: square"/>
     </g>
     <g id="line2d_37">
      <g>
       <use xlink:href="#mbe75de8c60" x="52.94" y="120.069818" style="stroke: #000000; stroke-width: 0.8"/>
      </g>
     </g>
     <g id="text_7">
      <text style="font: 10px 'DejaVu Sans', 'Bitstream Vera Sans', 'Computer Modern Sans Serif', 'Lucida Grande', 'Verdana', 'Geneva', 'Lucid', 'Arial', 'Helvetica', 'Avant Garde', sans-serif; text-anchor: end" x="45.94" y="123.869037" transform="rotate(-0 45.94 123.869037)">−20</text>
     </g>
    </g>
    <g id="ytick_4">
     <g id="line2d_38">
      <path d="M 52.94 88.286545 
L 450 88.286545 
" clip-path="url(#p5153f929a5)" style="fill: none; stroke: #b0b0b0; stroke-opacity: 0.25; stroke-width: 0.8; stroke-linecap: square"/>
     </g>
     <g id="line2d_39">
      <g>
       <use xlink:href="#mbe75de8c60" x="52.94" y="88.286545" style="stroke: #000000; stroke-width: 0.8"/>
      </g>
     </g>
     <g id="text_8">
      <text style="font: 10px 'DejaVu Sans', 'Bitstream Vera Sans', 'Computer Modern Sans Serif', 'Lucida Grande', 'Verdana', 'Geneva', 'Lucid', 'Arial', 'Helvetica', 'Avant Garde', sans-serif; text-anchor: end" x="45.94" y="92.085764" transform="rotate(-0 45.94 92.085764)">−10</text>
     </g>
    </g>
    <g id="ytick_5">
     <g id="line2d_40">
      <path d="M 52.94 56.503273 
L 450 56.503273 
" clip-path="url(#p5153f929a5)" style="fill: none; stroke: #b0b0b0; stroke-opacity: 0.25; stroke-width: 0.8; stroke-linecap: square"/>
     </g>
     <g id="line2d_41">
      <g>
       <use xlink:href="#mbe75de8c60" x="52.94" y="56.503273" style="stroke: #000000; stroke-width: 0.8"/>
      </g>
     </g>
     <g id="text_9">
      <text style="font: 10px 'DejaVu Sans', 'Bitstream Vera Sans', 'Computer Modern Sans Serif', 'Lucida Grande', 'Verdana', 'Geneva', 'Lucid', 'Arial', 'Helvetica', 'Avant Garde', sans-serif; text-anchor: end" x="45.94" y="60.302491" transform="rotate(-0 45.94 60.302491)">0</text>
     </g>
    </g>
    <g id="ytick_6">
     <g id="line2d_42">
      <path d="M 52.94 24.72 
L 450 24.72 
" clip-path="url(#p5153f929a5)" style="fill: none; stroke: #b0b0b0; stroke-opacity: 0.25; stroke-width: 0.8; stroke-linecap: square"/>
     </g>
     <g id="line2d_43">
      <g>
       <use xlink:href="#mbe75de8c60" x="52.94" y="24.72" style="stroke: #000000; stroke-width: 0.8"/>
      </g>
     </g>
     <g id="text_10">
      <text style="font: 10px 'DejaVu Sans', 'Bitstream Vera Sans', 'Computer Modern Sans Serif', 'Lucida Grande', 'Verdana', 'Geneva', 'Lucid', 'Arial', 'Helvetica', 'Avant Garde', sans-serif; text-anchor: end" x="45.94" y="28.519219" transform="rotate(-0 45.94 28.519219)">10</text>
     </g>
    </g>
    <g id="text_11">
     <text style="font: 10px 'DejaVu Sans', 'Bitstream Vera Sans', 'Computer Modern Sans Serif', 'Lucida Grande', 'Verdana', 'Geneva', 'Lucid', 'Arial', 'Helvetica', 'Avant Garde', sans-serif; text-anchor: middle" x="18.755625" y="112.124" transform="rotate(-90 18.755625 112.124)">dB</text>
    </g>
   </g>
   <g id="line2d_44">
    <path d="M -1 101.380603 
L 6.893623 97.908302 
L 23.004456 91.503903 
L 35.500989 87.112766 
L 45.7114 83.992536 
L 54.344179 81.725638 
L 61.822233 80.054302 
L 68.418344 78.810593 
L 74.318766 77.881205 
L 79.656347 77.187695 
L 89.011745 76.301915 
L 97.025709 75.868131 
L 104.035123 75.729292 
L 110.264004 75.793351 
L 118.474124 76.150628 
L 125.633075 76.722805 
L 131.979733 77.441533 
L 139.457786 78.555067 
L 146.053897 79.786972 
L 151.954319 81.094305 
L 158.55043 82.791094 
L 164.450852 84.522685 
L 170.797509 86.612471 
L 177.39362 89.034958 
L 184.088413 91.755902 
L 190.772096 94.73834 
L 197.368207 97.94715 
L 203.825869 101.350551 
L 210.113087 104.91746 
L 216.654104 108.885744 
L 224.844176 114.142938 
L 233.313445 119.54827 
L 237.111661 121.713077 
L 240.091205 123.161162 
L 242.643646 124.15233 
L 244.818763 124.770956 
L 246.912547 125.141301 
L 248.930864 125.272822 
L 250.878963 125.184245 
L 252.992505 124.853561 
L 255.250965 124.24875 
L 257.634397 123.362771 
L 260.326334 122.111776 
L 263.661953 120.290256 
L 268.056537 117.611751 
L 287.500293 105.454094 
L 293.84695 101.898167 
L 300.046584 98.677891 
L 306.343483 95.659449 
L 312.642499 92.887568 
L 318.946586 90.354864 
L 325.313519 88.036325 
L 331.71219 85.943001 
L 338.163698 84.065988 
L 344.715025 82.390927 
L 351.460276 80.896859 
L 358.434633 79.580798 
L 365.785424 78.422338 
L 373.60839 77.417128 
L 382.103459 76.552838 
L 391.534817 75.821264 
L 402.24784 75.218768 
L 414.782849 74.743261 
L 429.796421 74.403599 
L 446.908275 74.240309 
L 450 74.235763 
L 450 74.235763 
" clip-path="url(#p5153f929a5)" style="fill: none; stroke: #1f6feb; stroke-width: 1.3; stroke-linecap: square"/>
   </g>
   <g id="line2d_45">
    <path d="M -1 140.987559 
L 6.893623 137.286409 
L 23.004456 130.076149 
L 35.500989 124.804472 
L 45.7114 120.786932 
L 54.344179 117.645438 
L 61.822233 115.145285 
L 68.418344 113.1293 
L 74.318766 111.486783 
L 79.656347 110.137037 
L 89.011745 108.089248 
L 97.025709 106.654731 
L 104.035123 105.633337 
L 113.136542 104.61343 
L 120.963521 103.994691 
L 129.943064 103.559176 
L 137.679789 103.408933 
L 146.053897 103.479797 
L 153.33716 103.746983 
L 160.985692 104.251497 
L 167.71404 104.90707 
L 174.661263 105.820139 
L 180.840998 106.860349 
L 187.157796 108.171338 
L 192.83376 109.579714 
L 198.599074 111.237475 
L 204.923987 113.291373 
L 218.816621 117.934084 
L 222.111819 118.751531 
L 224.844176 119.223132 
L 227.4494 119.446361 
L 229.938797 119.415873 
L 232.32223 119.141109 
L 234.608352 118.644303 
L 237.111661 117.844827 
L 239.507843 116.849152 
L 242.365719 115.408463 
L 245.613134 113.508588 
L 249.913384 110.705257 
L 257.421865 105.476879 
L 266.810013 99.015408 
L 273.585907 94.629696 
L 280.057785 90.704986 
L 286.495742 87.057712 
L 293.06369 83.591181 
L 299.747372 80.316341 
L 306.432305 77.287555 
L 313.117097 74.50066 
L 319.791918 71.957124 
L 326.442381 69.659719 
L 333.107435 67.593063 
L 339.801451 65.751461 
L 346.565778 64.121764 
L 353.488433 62.683068 
L 360.668832 61.418648 
L 368.252085 60.311401 
L 376.37385 59.353664 
L 385.23164 58.536896 
L 395.126053 57.852592 
L 406.47818 57.296313 
L 419.889175 56.868912 
L 435.929742 56.586691 
L 450 56.503273 
L 450 56.503273 
" clip-path="url(#p5153f929a5)" style="fill: none; stroke: #cf222e; stroke-width: 1.3; stroke-linecap: square"/>
   </g>
   <g id="line2d_46">
    <path d="M -1 67.160048 
L 6.893623 65.450834 
L 23.004456 63.284609 
L 35.500989 62.240625 
L 45.7114 61.734034 
L 54.344179 61.520363 
L 61.822233 61.484294 
L 74.318766 61.730588 
L 84.529177 62.234428 
L 93.161956 62.898773 
L 100.64001 63.673071 
L 107.23612 64.525684 
L 115.8689 65.90419 
L 123.346953 67.355889 
L 129.943064 68.843239 
L 137.679789 70.837236 
L 144.476266 72.806639 
L 151.954319 75.196876 
L 159.781297 77.929074 
L 168.760841 81.319556 
L 178.275563 85.163355 
L 189.354243 89.897296 
L 202.137232 95.614438 
L 218.390746 103.143219 
L 242.920201 114.784045 
L 287.125695 135.774748 
L 310.290142 146.490033 
L 351.22146 165.351276 
L 363.558215 171.342352 
L 373.875195 176.594648 
L 382.78865 181.377218 
L 390.535626 185.781607 
L 397.287466 189.871563 
L 403.186136 193.700237 
L 408.364348 197.321957 
L 412.932014 200.783477 
L 416.982748 204.127674 
L 420.598589 207.3971 
L 423.842585 210.626995 
L 426.764179 213.847611 
L 429.4028 217.085723 
L 431.790347 220.365884 
L 433.971141 223.741049 
L 435.947317 227.209167 
L 437.754136 230.830098 
L 439.405447 234.640714 
L 440.913055 238.684243 
L 442.28707 243.013594 
L 443.057493 245.8 
L 443.057493 245.8 
" clip-path="url(#p5153f929a5)" style="fill: none; stroke: #116329; stroke-width: 1.3; stroke-linecap: square"/>
   </g>
   <g id="patch_3">
    <path d="M 52.94 199.528 
L 52.94 24.72 
" style="fill: none; stroke: #000000; stroke-width: 0.8; stroke-linejoin: miter; stroke-linecap: square"/>
   </g>
   <g id="patch_4">
    <path d="M 450 199.528 
L 450 24.72 
" style="fill: none; stroke: #000000; stroke-width: 0.8; stroke-linejoin: miter; stroke-linecap: square"/>
   </g>
   <g id="patch_5">
    <path d="M 52.94 199.528 
L 450 199.528 
" style="fill: none; stroke: #000000; stroke-width: 0.8; stroke-linejoin: miter; stroke-linecap: square"/>
   </g>
   <g id="patch_6">
    <path d="M 52.94 24.72 
L 450 24.72 
" style="fill: none; stroke: #000000; stroke-width: 0.8; stroke-linejoin: miter; stroke-linecap: square"/>
   </g>
   <g id="text_12">
    <text style="font: 10px 'DejaVu Sans', 'Bitstream Vera Sans', 'Computer Modern Sans Serif', 'Lucida Grande', 'Verdana', 'Geneva', 'Lucid', 'Arial', 'Helvetica', 'Avant Garde', sans-serif; text-anchor: middle" x="251.47" y="18.72" transform="rotate(-0 251.47 18.72)">ts.ac30(t, m, l)</text>
   </g>
   <g id="legend_1">
    <g id="patch_7">
     <path d="M 58.54 195.528 
L 130.125 195.528 
Q 131.725 195.528 131.725 193.928 
L 131.725 159.5005 
Q 131.725 157.9005 130.125 157.9005 
L 58.54 157.9005 
Q 56.94 157.9005 56.94 159.5005 
L 56.94 193.928 
Q 56.94 195.528 58.54 195.528 
z
" style="fill: #ffffff; opacity: 0.8; stroke: #cccccc; stroke-linejoin: miter"/>
    </g>
    <g id="line2d_47">
     <path d="M 60.14 164.37925 
L 68.14 164.37925 
L 76.14 164.37925 
" style="fill: none; stroke: #1f6feb; stroke-width: 1.3; stroke-linecap: square"/>
    </g>
    <g id="text_13">
     <text style="font: 8px 'DejaVu Sans', 'Bitstream Vera Sans', 'Computer Modern Sans Serif', 'Lucida Grande', 'Verdana', 'Geneva', 'Lucid', 'Arial', 'Helvetica', 'Avant Garde', sans-serif; text-anchor: start" x="82.54" y="167.17925" transform="rotate(-0 82.54 167.17925)">t=m=l=0.5</text>
    </g>
    <g id="line2d_48">
     <path d="M 60.14 176.12175 
L 68.14 176.12175 
L 76.14 176.12175 
" style="fill: none; stroke: #cf222e; stroke-width: 1.3; stroke-linecap: square"/>
    </g>
    <g id="text_14">
     <text style="font: 8px 'DejaVu Sans', 'Bitstream Vera Sans', 'Computer Modern Sans Serif', 'Lucida Grande', 'Verdana', 'Geneva', 'Lucid', 'Arial', 'Helvetica', 'Avant Garde', sans-serif; text-anchor: start" x="82.54" y="178.92175" transform="rotate(-0 82.54 178.92175)">treble full</text>
    </g>
    <g id="line2d_49">
     <path d="M 60.14 187.86425 
L 68.14 187.86425 
L 76.14 187.86425 
" style="fill: none; stroke: #116329; stroke-width: 1.3; stroke-linecap: square"/>
    </g>
    <g id="text_15">
     <text style="font: 8px 'DejaVu Sans', 'Bitstream Vera Sans', 'Computer Modern Sans Serif', 'Lucida Grande', 'Verdana', 'Geneva', 'Lucid', 'Arial', 'Helvetica', 'Avant Garde', sans-serif; text-anchor: start" x="82.54" y="190.66425" transform="rotate(-0 82.54 190.66425)">bass full</text>
    </g>
   </g>
  </g>
 </g>
 <defs>
  <clipPath id="p5153f929a5">
   <rect x="52.94" y="24.72" width="397.06" height="174.808"/>
  </clipPath>
 </defs>
</svg>
