<?xml version="1.0" encoding="utf-8" standalone="no"?>
<!DOCTYPE svg PUBLIC "-//W3C//DTD SVG 1.1//EN"
  "http://www.w3.org/Graphics/SVG/1.1/DTD/svg11.dtd">
<svg xmlns:xlink="http://www.w3.org/1999/xlink" width="460.8pt" height="244.8pt" viewBox="0 0 460.8 244.8" xmlns="http://www.w3.org/2000/svg" version="1.1">
 <metadata>
  <rdf:RDF xmlns:dc="http://purl.org/dc/elements/1.1/" xmlns:cc="http://creativecommons.org/ns#" xmlns:rdf="http://www.w3.org/1999/02/22-rdf-syntax-ns#">
   <cc:Work>
    <dc:type rdf:resource="http://purl.org/dc/dcmitype/StillImage"/>
    <dc:date>2026-08-26T16:37:24.134130</dc:date>
    <dc:format>image/svg+xml</dc:format>
    <dc:creator>
     <cc:Agent>
      <dc:title>Matplotlib v3.9.4, https://matplotlib.org/</dc:title>
     </cc:Agent>
    </dc:creator>
   </cc:Work>
  </rdf:RDF>
 </metadata>
 <defs>
  <style type="text/css">*{stroke-linejoin: round; stroke-linecap: butt}</style>
 </defs>
 <g id="figure_1">
  <g id="patch_1">
   <path d="M 0 244.8 
L 460.8 244.8 
L 460.8 0 
L 0 0 
z
" style="fill: #ffffff"/>
  </g>
  <g id="axes_1">
   <g id="patch_2">
    <path d="M 52.94 199.528 
L 450 199.528 
L 450 24.72 
L 52.94 24.72 
z
" style="fill: #ffffff"/>
   </g>
   <g id="matplotlib.axis_1">
    <g id="xtick_1">
     <g id="line2d_1">
      <path d="M 143.072086 199.528 
L 143.072086 24.72 
" clip-path="url(#pb72039b33d)" style="fill: none; stroke: #b0b0b0; stroke-opacity: 0.25; stroke-width: 0.8; stroke-linecap: square"/>
     </g>
     <g id="line2d_2">
      <defs>
       <path id="m2db7a22f0a" d="M 0 0 
L 0 3.5 
" style="stroke: #000000; stroke-width: 0.8"/>
      </defs>
      <g>
       <use xlink:href="#m2db7a22f0a" x="143.072086" y="199.528" style="stroke: #000000; stroke-width: 0.8"/>
      </g>
     </g>
     <g id="text_1">
      <!-- $\mathdefault{10^{2}}$ -->
      <g transform="translate(134.272086 214.126438)">
       <text>
        <tspan style="font: 10px 'DejaVu Sans'" x="0 6.362305" y="-0.9765625">10</tspan>
        <tspan style="font: 7px 'DejaVu Sans'" x="12.820312" y="-4.8046875">2</tspan>
       </text>
      </g>
     </g>
    </g>
    <g id="xtick_2">
     <g id="line2d_3">
      <path d="M 272.021949 199.528 
L 272.021949 24.72 
" clip-path="url(#pb72039b33d)" style="fill: none; stroke: #b0b0b0; stroke-opacity: 0.25; stroke-width: 0.8; stroke-linecap: square"/>
     </g>
     <g id="line2d_4">
      <g>
       <use xlink:href="#m2db7a22f0a" x="272.021949" y="199.528" style="stroke: #000000; stroke-width: 0.8"/>
      </g>
     </g>
     <g id="text_2">
      <!-- $\mathdefault{10^{3}}$ -->
      <g transform="translate(263.221949 214.126438)">
       <text>
        <tspan style="font: 10px 'DejaVu Sans'" x="0 6.362305" y="-0.9765625">10</tspan>
        <tspan style="font: 7px 'DejaVu Sans'" x="12.820312" y="-4.8046875">3</tspan>
       </text>
      </g>
     </g>
    </g>
    <g id="xtick_3">
     <g id="line2d_5">
      <path d="M 400.971812 199.528 
L 400.971812 24.72 
" clip-path="url(#pb72039b33d)" style="fill: none; stroke: #b0b0b0; stroke-opacity: 0.25; stroke-width: 0.8; stroke-linecap: square"/>
     </g>
     <g id="line2d_6">
      <g>
       <use xlink:href="#m2db7a22f0a" x="400.971812" y="199.528" style="stroke: #000000; stroke-width: 0.8"/>
      </g>
     </g>
     <g id="text_3">
      <!-- $\mathdefault{10^{4}}$ -->
      <g transform="translate(392.171812 214.126438)">
       <text>
        <tspan style="font: 10px 'DejaVu Sans'" x="0 6.362305" y="-0.06406250000000036">10</tspan>
        <tspan style="font: 7px 'DejaVu Sans'" x="12.820312" y="-3.8921875000000004">4</tspan>
       </text>
      </g>
     </g>
    </g>
    <g id="xtick_4">
     <g id="line2d_7">
      <defs>
       <path id="m763d4a658e" d="M 0 0 
L 0 2 
" style="stroke: #000000; stroke-width: 0.6"/>
      </defs>
      <g>
       <use xlink:href="#m763d4a658e" x="52.94" y="199.528" style="stroke: #000000; stroke-width: 0.6"/>
      </g>
     </g>
    </g>
    <g id="xtick_5">
     <g id="line2d_8">
      <g>
       <use xlink:href="#m763d4a658e" x="75.646944" y="199.528" style="stroke: #000000; stroke-width: 0.6"/>
      </g>
     </g>
    </g>
    <g id="xtick_6">
     <g id="line2d_9">
      <g>
       <use xlink:href="#m763d4a658e" x="91.757777" y="199.528" style="stroke: #000000; stroke-width: 0.6"/>
      </g>
     </g>
    </g>
    <g id="xtick_7">
     <g id="line2d_10">
      <g>
       <use xlink:href="#m763d4a658e" x="104.25431" y="199.528" style="stroke: #000000; stroke-width: 0.6"/>
      </g>
     </g>
    </g>
    <g id="xtick_8">
     <g id="line2d_11">
      <g>
       <use xlink:href="#m763d4a658e" x="114.46472" y="199.528" style="stroke: #000000; stroke-width: 0.6"/>
      </g>
     </g>
    </g>
    <g id="xtick_9">
     <g id="line2d_12">
      <g>
       <use xlink:href="#m763d4a658e" x="123.0975" y="199.528" style="stroke: #000000; stroke-width: 0.6"/>
      </g>
     </g>
    </g>
    <g id="xtick_10">
     <g id="line2d_13">
      <g>
       <use xlink:href="#m763d4a658e" x="130.575553" y="199.528" style="stroke: #000000; stroke-width: 0.6"/>
      </g>
     </g>
    </g>
    <g id="xtick_11">
     <g id="line2d_14">
      <g>
       <use xlink:href="#m763d4a658e" x="137.171664" y="199.528" style="stroke: #000000; stroke-width: 0.6"/>
      </g>
     </g>
    </g>
    <g id="xtick_12">
     <g id="line2d_15">
      <g>
       <use xlink:href="#m763d4a658e" x="181.889863" y="199.528" style="stroke: #000000; stroke-width: 0.6"/>
      </g>
     </g>
    </g>
    <g id="xtick_13">
     <g id="line2d_16">
      <g>
       <use xlink:href="#m763d4a658e" x="204.596807" y="199.528" style="stroke: #000000; stroke-width: 0.6"/>
      </g>
     </g>
    </g>
    <g id="xtick_14">
     <g id="line2d_17">
      <g>
       <use xlink:href="#m763d4a658e" x="220.70764" y="199.528" style="stroke: #000000; stroke-width: 0.6"/>
      </g>
     </g>
    </g>
    <g id="xtick_15">
     <g id="line2d_18">
      <g>
       <use xlink:href="#m763d4a658e" x="233.204173" y="199.528" style="stroke: #000000; stroke-width: 0.6"/>
      </g>
     </g>
    </g>
    <g id="xtick_16">
     <g id="line2d_19">
      <g>
       <use xlink:href="#m763d4a658e" x="243.414584" y="199.528" style="stroke: #000000; stroke-width: 0.6"/>
      </g>
     </g>
    </g>
    <g id="xtick_17">
     <g id="line2d_20">
      <g>
       <use xlink:href="#m763d4a658e" x="252.047363" y="199.528" style="stroke: #000000; stroke-width: 0.6"/>
      </g>
     </g>
    </g>
    <g id="xtick_18">
     <g id="line2d_21">
      <g>
       <use xlink:href="#m763d4a658e" x="259.525416" y="199.528" style="stroke: #000000; stroke-width: 0.6"/>
      </g>
     </g>
    </g>
    <g id="xtick_19">
     <g id="line2d_22">
      <g>
       <use xlink:href="#m763d4a658e" x="266.121527" y="199.528" style="stroke: #000000; stroke-width: 0.6"/>
      </g>
     </g>
    </g>
    <g id="xtick_20">
     <g id="line2d_23">
      <g>
       <use xlink:href="#m763d4a658e" x="310.839726" y="199.528" style="stroke: #000000; stroke-width: 0.6"/>
      </g>
     </g>
    </g>
    <g id="xtick_21">
     <g id="line2d_24">
      <g>
       <use xlink:href="#m763d4a658e" x="333.54667" y="199.528" style="stroke: #000000; stroke-width: 0.6"/>
      </g>
     </g>
    </g>
    <g id="xtick_22">
     <g id="line2d_25">
      <g>
       <use xlink:href="#m763d4a658e" x="349.657503" y="199.528" style="stroke: #000000; stroke-width: 0.6"/>
      </g>
     </g>
    </g>
    <g id="xtick_23">
     <g id="line2d_26">
      <g>
       <use xlink:href="#m763d4a658e" x="362.154036" y="199.528" style="stroke: #000000; stroke-width: 0.6"/>
      </g>
     </g>
    </g>
    <g id="xtick_24">
     <g id="line2d_27">
      <g>
       <use xlink:href="#m763d4a658e" x="372.364447" y="199.528" style="stroke: #000000; stroke-width: 0.6"/>
      </g>
     </g>
    </g>
    <g id="xtick_25">
     <g id="line2d_28">
      <g>
       <use xlink:href="#m763d4a658e" x="380.997226" y="199.528" style="stroke: #000000; stroke-width: 0.6"/>
      </g>
     </g>
    </g>
    <g id="xtick_26">
     <g id="line2d_29">
      <g>
       <use xlink:href="#m763d4a658e" x="388.47528" y="199.528" style="stroke: #000000; stroke-width: 0.6"/>
      </g>
     </g>
    </g>
    <g id="xtick_27">
     <g id="line2d_30">
      <g>
       <use xlink:href="#m763d4a658e" x="395.07139" y="199.528" style="stroke: #000000; stroke-width: 0.6"/>
      </g>
     </g>
    </g>
    <g id="xtick_28">
     <g id="line2d_31">
      <g>
       <use xlink:href="#m763d4a658e" x="439.789589" y="199.528" style="stroke: #000000; stroke-width: 0.6"/>
      </g>
     </g>
    </g>
    <g id="text_4">
     <text style="font: 10px 'DejaVu Sans', 'Bitstream Vera Sans', 'Computer Modern Sans Serif', 'Lucida Grande', 'Verdana', 'Geneva', 'Lucid', 'Arial', 'Helvetica', 'Avant Garde', sans-serif; text-anchor: middle" x="251.47" y="227.804563" transform="rotate(-0 251.47 227.804563)">Hz</text>
    </g>
   </g>
   <g id="matplotlib.axis_2">
    <g id="ytick_1">
     <g id="line2d_32">
      <path d="M 52.94 183.636364 
L 450 183.636364 
" clip-path="url(#pb72039b33d)" style="fill: none; stroke: #b0b0b0; stroke-opacity: 0.25; stroke-width: 0.8; stroke-linecap: square"/>
     </g>
     <g id="line2d_33">
      <defs>
       <path id="me62c00669d" d="M 0 0 
L -3.5 0 
" style="stroke: #000000; stroke-width: 0.8"/>
      </defs>
      <g>
       <use xlink:href="#me62c00669d" x="52.94" y="183.636364" style="stroke: #000000; stroke-width: 0.8"/>
      </g>
     </g>
     <g id="text_5">
      <text style="font: 10px 'DejaVu Sans', 'Bitstream Vera Sans', 'Computer Modern Sans Serif', 'Lucida Grande', 'Verdana', 'Geneva', 'Lucid', 'Arial', 'Helvetica', 'Avant Garde', sans-serif; text-anchor: end" x="45.94" y="187.435582" transform="rotate(-0 45.94 187.435582)">−40</text>
     </g>
    </g>
    <g id="ytick_2">
     <g id="line2d_34">
      <path d="M 52.94 151.853091 
L 450 151.853091 
" clip-path="url(#pb72039b33d)" style="fill: none; stroke: #b0b0b0; stroke-opacity: 0.25; stroke-width: 0.8; stroke-linecap: square"/>
     </g>
     <g id="line2d_35">
      <g>
       <use xlink:href="#me62c00669d" x="52.94" y="151.853091" style="stroke: #000000; stroke-width: 0.8"/>
      </g>
     </g>
     <g id="text_6">
      <text style="font: 10px 'DejaVu Sans', 'Bitstream Vera Sans', 'Computer Modern Sans Serif', 'Lucida Grande', 'Verdana', 'Geneva', 'Lucid', 'Arial', 'Helvetica', 'Avant Garde', sans-serif; text-anchor: end" x="45.94" y="155.65231" transform="rotate(-0 45.94 155.65231)">−30</text>
     </g>
    </g>
    <g id="ytick_3">
     <g id="line2d_36">
      <path d="M 52.94 120.069818 
L 450 120.069818 
" clip-path="url(#pb72039b33d)" style="fill: none; stroke: #b0b0b0; stroke-opacity: 0.25; stroke-width: 0.8; stroke-linecap: square"/>
     </g>
     <g id="line2d_37">
      <g>
       <use xlink:href="#me62c00669d" x="52.94" y="120.069818" style="stroke: #000000; stroke-width: 0.8"/>
      </g>
     </g>
     <g id="text_7">
      <text style="font: 10px 'DejaVu Sans', 'Bitstream Vera Sans', 'Computer Modern Sans Serif', 'Lucida Grande', 'Verdana', 'Geneva', 'Lucid', 'Arial', 'Helvetica', 'Avant Garde', sans-serif; text-anchor: end" x="45.94" y="123.869037" transform="rotate(-0 45.94 123.869037)">−20</text>
     </g>
    </g>
    <g id="ytick_4">
     <g id="line2d_38">
      <path d="M 52.94 88.286545 
L 450 88.286545 
" clip-path="url(#pb72039b33d)" style="fill: none; stroke: #b0b0b0; stroke-opacity: 0.25; stroke-width: 0.8; stroke-linecap: square"/>
     </g>
     <g id="line2d_39">
      <g>
       <use xlink:href="#me62c00669d" x="52.94" y="88.286545" style="stroke: #000000; stroke-width: 0.8"/>
      </g>
     </g>
     <g id="text_8">
      <text style="font: 10px 'DejaVu Sans', 'Bitstream Vera Sans', 'Computer Modern Sans Serif', 'Lucida Grande', 'Verdana', 'Geneva', 'Lucid', 'Arial', 'Helvetica', 'Avant Garde', sans-serif; text-anchor: end" x="45.94" y="92.085764" transform="rotate(-0 45.94 92.085764)">−10</text>
     </g>
    </g>
    <g id="ytick_5">
     <g id="line2d_40">
      <path d="M 52.94 56.503273 
L 450 56.503273 
" clip-path="url(#pb72039b33d)" style="fill: none; stroke: #b0b0b0; stroke-opacity: 0.25; stroke-width: 0.8; stroke-linecap: square"/>
     </g>
     <g id="line2d_41">
      <g>
       <use xlink:href="#me62c00669d" x="52.94" y="56.503273" style="stroke: #000000; stroke-width: 0.8"/>
      </g>
     </g>
     <g id="text_9">
      <text style="font: 10px 'DejaVu Sans', 'Bitstream Vera Sans', 'Computer Modern Sans Serif', 'Lucida Grande', 'Verdana', 'Geneva', 'Lucid', 'Arial', 'Helvetica', 'Avant Garde', sans-serif; text-anchor: end" x="45.94" y="60.302491" transform="rotate(-0 45.94 60.302491)">0</text>
     </g>
    </g>
    <g id="ytick_6">
     <g id="line2d_42">
      <path d="M 52.94 24.72 
L 450 24.72 
" clip-path="url(#pb72039b33d)" style="fill: none; stroke: #b0b0b0; stroke-opacity: 0.25; stroke-width: 0.8; stroke-linecap: square"/>
     </g>
     <g id="line2d_43">
      <g>
       <use xlink:href="#me62c00669d" x="52.94" y="24.72" style="stroke: #000000; stroke-width: 0.8"/>
      </g>
     </g>
     <g id="text_10">
      <text style="font: 10px 'DejaVu Sans', 'Bitstream Vera Sans', 'Computer Modern Sans Serif', 'Lucida Grande', 'Verdana', 'Geneva', 'Lucid', 'Arial', 'Helvetica', 'Avant Garde', sans-serif; text-anchor: end" x="45.94" y="28.519219" transform="rotate(-0 45.94 28.519219)">10</text>
     </g>
    </g>
    <g id="text_11">
     <text style="font: 10px 'DejaVu Sans', 'Bitstream Vera Sans', 'Computer Modern Sans Serif', 'Lucida Grande', 'Verdana', 'Geneva', 'Lucid', 'Arial', 'Helvetica', 'Avant Garde', sans-serif; text-anchor: middle" x="18.755625" y="112.124" transform="rotate(-90 18.755625 112.124)">dB</text>
    </g>
   </g>
   <g id="line2d_44">
    <path d="M -1 102.562584 
L 6.893623 98.920769 
L 23.004456 91.933805 
L 35.500989 86.926419 
L 45.7114 83.203265 
L 54.344179 80.377113 
L 61.822233 78.206238 
L 68.418344 76.528448 
L 74.318766 75.22966 
L 79.656347 74.227002 
L 84.529177 73.458856 
L 93.161956 72.450271 
L 100.64001 71.943863 
L 107.23612 71.778893 
L 113.136542 71.85153 
L 118.474124 72.092077 
L 125.633075 72.665851 
L 131.979733 73.402215 
L 139.457786 74.521171 
L 147.5883 76.006846 
L 156.004436 77.780459 
L 167.71404 80.503563 
L 189.354243 85.582714 
L 197.987022 87.362103 
L 206.000986 88.783247 
L 213.010399 89.806171 
L 219.658775 90.564495 
L 226.347682 91.105238 
L 232.984986 91.413102 
L 239.507843 91.489832 
L 246.136523 91.338343 
L 252.761568 90.959377 
L 259.511742 90.347128 
L 266.448708 89.493709 
L 273.904102 88.346259 
L 282.013173 86.866508 
L 291.579344 84.884838 
L 306.609527 81.506879 
L 322.25395 78.063734 
L 332.274466 76.088813 
L 341.297506 74.534971 
L 350.052606 73.252282 
L 358.958185 72.174096 
L 368.281506 71.27195 
L 378.398698 70.520529 
L 389.719223 69.907913 
L 402.901539 69.42396 
L 418.944964 69.066132 
L 438.965952 68.850216 
L 450 68.816586 
L 450 68.816586 
" clip-path="url(#pb72039b33d)" style="fill: none; stroke: #1f6feb; stroke-width: 1.3; stroke-linecap: square"/>
   </g>
   <g id="line2d_45">
    <path d="M -1 139.035349 
L 6.893623 135.245071 
L 23.004456 127.700644 
L 35.500989 122.036915 
L 45.7114 117.589679 
L 54.344179 113.999452 
L 61.822233 111.04729 
L 68.418344 108.588443 
L 74.318766 106.521341 
L 84.529177 103.282419 
L 93.161956 100.920121 
L 100.64001 99.179496 
L 107.23612 97.8927 
L 113.136542 96.945058 
L 118.474124 96.256133 
L 125.633075 95.586202 
L 131.979733 95.238714 
L 137.679789 95.127553 
L 144.476266 95.25048 
L 150.536466 95.604004 
L 156.004436 96.130957 
L 162.16473 96.976252 
L 167.71404 97.982396 
L 172.762701 99.114469 
L 178.275563 100.603882 
L 183.294042 102.205147 
L 187.899558 103.891776 
L 192.83376 105.936488 
L 197.987022 108.330779 
L 203.825869 111.322362 
L 215.765162 117.585377 
L 218.816621 118.86638 
L 221.306018 119.669049 
L 223.29919 120.107115 
L 225.223854 120.327518 
L 227.084564 120.333125 
L 228.885433 120.136076 
L 230.972714 119.660182 
L 232.984986 118.963986 
L 235.244748 117.935522 
L 237.720387 116.560869 
L 240.668552 114.671339 
L 244.818763 111.725269 
L 262.701343 98.710622 
L 268.756574 94.72989 
L 274.847982 90.993141 
L 281.044013 87.451355 
L 287.500293 84.018392 
L 294.068742 80.777431 
L 300.738588 77.732988 
L 307.487323 74.897547 
L 314.209097 72.314812 
L 320.899538 69.981974 
L 327.548937 67.897325 
L 334.25316 66.028528 
L 341.011049 64.375356 
L 347.935931 62.910813 
L 355.111799 61.622055 
L 362.654934 60.495668 
L 370.699243 59.521794 
L 379.468682 58.687572 
L 389.235748 57.986249 
L 400.422228 57.411698 
L 413.643079 56.962423 
L 429.737554 56.64593 
L 448.313665 56.50444 
L 450 56.503273 
L 450 56.503273 
" clip-path="url(#pb72039b33d)" style="fill: none; stroke: #cf222e; stroke-width: 1.3; stroke-linecap: square"/>
   </g>
   <g id="line2d_46">
    <path d="M -1 71.488762 
L 6.893623 69.043848 
L 23.004456 65.464459 
L 35.500989 63.524432 
L 45.7114 62.45187 
L 54.344179 61.879755 
L 61.822233 61.618577 
L 68.418344 61.56326 
L 74.318766 61.651706 
L 84.529177 62.117519 
L 93.161956 62.833791 
L 100.64001 63.707553 
L 107.23612 64.683797 
L 113.136542 65.726479 
L 120.963521 67.361984 
L 127.829522 69.034127 
L 135.843486 71.259471 
L 142.852899 73.43473 
L 150.536466 76.043939 
L 158.55043 78.987533 
L 167.71404 82.588974 
L 178.275563 86.988485 
L 190.772096 92.443718 
L 208.094771 100.271254 
L 246.655065 117.771877 
L 260.528144 123.775052 
L 272.457766 128.698601 
L 283.902584 133.180521 
L 295.812142 137.600516 
L 311.275543 143.079996 
L 332.720257 150.696934 
L 343.492122 154.776291 
L 352.949576 158.593973 
L 361.802924 162.406914 
L 370.218292 166.27206 
L 378.20194 170.181453 
L 385.664593 174.080469 
L 392.516493 177.908109 
L 398.706195 181.616964 
L 404.248413 185.193226 
L 409.192123 188.643988 
L 413.603812 191.990932 
L 417.546945 195.258253 
L 421.081865 198.473324 
L 424.255487 201.657289 
L 427.115032 204.837566 
L 429.708097 208.051467 
L 432.064105 211.324356 
L 434.207285 214.681413 
L 436.157786 218.148475 
L 437.94098 221.771351 
L 439.570402 225.586336 
L 441.057598 229.636362 
L 442.41246 233.97374 
L 443.643498 238.664284 
L 444.758044 243.794203 
L 445.137506 245.8 
L 445.137506 245.8 
" clip-path="url(#pb72039b33d)" style="fill: none; stroke: #116329; stroke-width: 1.3; stroke-linecap: square"/>
   </g>
   <g id="patch_3">
    <path d="M 52.94 199.528 
L 52.94 24.72 
" style="fill: none; stroke: #000000; stroke-width: 0.8; stroke-linejoin: miter; stroke-linecap: square"/>
   </g>
   <g id="patch_4">
    <path d="M 450 199.528 
L 450 24.72 
" style="fill: none; stroke: #000000; stroke-width: 0.8; stroke-linejoin: miter; stroke-linecap: square"/>
   </g>
   <g id="patch_5">
    <path d="M 52.94 199.528 
L 450 199.528 
" style="fill: none; stroke: #000000; stroke-width: 0.8; stroke-linejoin: miter; stroke-linecap: square"/>
   </g>
   <g id="patch_6">
    <path d="M 52.94 24.72 
L 450 24.72 
" style="fill: none; stroke: #000000; stroke-width: 0.8; stroke-linejoin: miter; stroke-linecap: square"/>
   </g>
   <g id="text_12">
    <text style="font: 10px 'DejaVu Sans', 'Bitstream Vera Sans', 'Computer Modern Sans Serif', 'Lucida Grande', 'Verdana', 'Geneva', 'Lucid', 'Arial', 'Helvetica', 'Avant Garde', sans-serif; text-anchor: middle" x="251.47" y="18.72" transform="rotate(-0 251.47 18.72)">ts.bogner(t, m, l)</text>
   </g>
   <g id="legend_1">
    <g id="patch_7">
     <path d="M 58.54 195.528 
L 130.125 195.528 
Q 131.725 195.528 131.725 193.928 
L 131.725 159.5005 
Q 131.725 157.9005 130.125 157.9005 
L 58.54 157.9005 
Q 56.94 157.9005 56.94 159.5005 
L 56.94 193.928 
Q 56.94 195.528 58.54 195.528 
z
" style="fill: #ffffff; opacity: 0.8; stroke: #cccccc; stroke-linejoin: miter"/>
    </g>
    <g id="line2d_47">
     <path d="M 60.14 164.37925 
L 68.14 164.37925 
L 76.14 164.37925 
" style="fill: none; stroke: #1f6feb; stroke-width: 1.3; stroke-linecap: square"/>
    </g>
    <g id="text_13">
     <text style="font: 8px 'DejaVu Sans', 'Bitstream Vera Sans', 'Computer Modern Sans Serif', 'Lucida Grande', 'Verdana', 'Geneva', 'Lucid', 'Arial', 'Helvetica', 'Avant Garde', sans-serif; text-anchor: start" x="82.54" y="167.17925" transform="rotate(-0 82.54 167.17925)">t=m=l=0.5</text>
    </g>
    <g id="line2d_48">
     <path d="M 60.14 176.12175 
L 68.14 176.12175 
L 76.14 176.12175 
" style="fill: none; stroke: #cf222e; stroke-width: 1.3; stroke-linecap: square"/>
    </g>
    <g id="text_14">
     <text style="font: 8px 'DejaVu Sans', 'Bitstream Vera Sans', 'Computer Modern Sans Serif', 'Lucida Grande', 'Verdana', 'Geneva', 'Lucid', 'Arial', 'Helvetica', 'Avant Garde', sans-serif; text-anchor: start" x="82.54" y="178.92175" transform="rotate(-0 82.54 178.92175)">treble full</text>
    </g>
    <g id="line2d_49">
     <path d="M 60.14 187.86425 
L 68.14 187.86425 
L 76.14 187.86425 
" style="fill: none; stroke: #116329; stroke-width: 1.3; stroke-linecap: square"/>
    </g>
    <g id="text_15">
     <text style="font: 8px 'DejaVu Sans', 'Bitstream Vera Sans', 'Computer Modern Sans Serif', 'Lucida Grande', 'Verdana', 'Geneva', 'Lucid', 'Arial', 'Helvetica', 'Avant Garde', sans-serif; text-anchor: start" x="82.54" y="190.66425" transform="rotate(-0 82.54 190.66425)">bass full</text>
    </g>
   </g>
  </g>
 </g>
 <defs>
  <clipPath id="pb72039b33d">
   <rect x="52.94" y="24.72" width="397.06" height="174.808"/>
  </clipPath>
 </defs>
</svg>
