<?xml version="1.0" encoding="utf-8" standalone="no"?>
<!DOCTYPE svg PUBLIC "-//W3C//DTD SVG 1.1//EN"
  "http://www.w3.org/Graphics/SVG/1.1/DTD/svg11.dtd">
<svg xmlns:xlink="http://www.w3.org/1999/xlink" width="460.8pt" height="244.8pt" viewBox="0 0 460.8 244.8" xmlns="http://www.w3.org/2000/svg" version="1.1">
 <metadata>
  <rdf:RDF xmlns:dc="http://purl.org/dc/elements/1.1/" xmlns:cc="http://creativecommons.org/ns#" xmlns:rdf="http://www.w3.org/1999/02/22-rdf-syntax-ns#">
   <cc:Work>
    <dc:type rdf:resource="http://purl.org/dc/dcmitype/StillImage"/>
    <dc:date>2026-08-26T16:29:52.200939</dc:date>
    <dc:format>image/svg+xml</dc:format>
    <dc:creator>
     <cc:Agent>
      <dc:title>Matplotlib v3.9.4, https://matplotlib.org/</dc:title>
     </cc:Agent>
    </dc:creator>
   </cc:Work>
  </rdf:RDF>
 </metadata>
 <defs>
  <style type="text/css">*{stroke-linejoin: round; stroke-linecap: butt}</style>
 </defs>
 <g id="figure_1">
  <g id="patch_1">
   <path d="M 0 244.8 
L 460.8 244.8 
L 460.8 0 
L 0 0 
z
" style="fill: #ffffff"/>
  </g>
  <g id="axes_1">
   <g id="patch_2">
    <path d="M 52.94 199.528 
L 450 199.528 
L 450 24.72 
L 52.94 24.72 
z
" style="fill: #ffffff"/>
   </g>
   <g id="matplotlib.axis_1">
    <g id="xtick_1">
     <g id="line2d_1">
      <path d="M 143.072086 199.528 
L 143.072086 24.72 
" clip-path="url(#pae5121868d)" style="fill: none; stroke: #b0b0b0; stroke-opacity: 0.25; stroke-width: 0.8; stroke-linecap: square"/>
     </g>
     <g id="line2d_2">
      <defs>
       <path id="m39f0bfb920" d="M 0 0 
L 0 3.5 
" style="stroke: #000000; stroke-width: 0.8"/>
      </defs>
      <g>
       <use xlink:href="#m39f0bfb920" x="143.072086" y="199.528" style="stroke: #000000; stroke-width: 0.8"/>
      </g>
     </g>
     <g id="text_1">
      <!-- $\mathdefault{10^{2}}$ -->
      <g transform="translate(134.272086 214.126438)">
       <text>
        <tspan style="font: 10px 'DejaVu Sans'" x="0 6.362305" y="-0.9765625">10</tspan>
        <tspan style="font: 7px 'DejaVu Sans'" x="12.820312" y="-4.8046875">2</tspan>
       </text>
      </g>
     </g>
    </g>
    <g id="xtick_2">
     <g id="line2d_3">
      <path d="M 272.021949 199.528 
L 272.021949 24.72 
" clip-path="url(#pae5121868d)" style="fill: none; stroke: #b0b0b0; stroke-opacity: 0.25; stroke-width: 0.8; stroke-linecap: square"/>
     </g>
     <g id="line2d_4">
      <g>
       <use xlink:href="#m39f0bfb920" x="272.021949" y="199.528" style="stroke: #000000; stroke-width: 0.8"/>
      </g>
     </g>
     <g id="text_2">
      <!-- $\mathdefault{10^{3}}$ -->
      <g transform="translate(263.221949 214.126438)">
       <text>
        <tspan style="font: 10px 'DejaVu Sans'" x="0 6.362305" y="-0.9765625">10</tspan>
        <tspan style="font: 7px 'DejaVu Sans'" x="12.820312" y="-4.8046875">3</tspan>
       </text>
      </g>
     </g>
    </g>
    <g id="xtick_3">
     <g id="line2d_5">
      <path d="M 400.971812 199.528 
L 400.971812 24.72 
" clip-path="url(#pae5121868d)" style="fill: none; stroke: #b0b0b0; stroke-opacity: 0.25; stroke-width: 0.8; stroke-linecap: square"/>
     </g>
     <g id="line2d_6">
      <g>
       <use xlink:href="#m39f0bfb920" x="400.971812" y="199.528" style="stroke: #000000; stroke-width: 0.8"/>
      </g>
     </g>
     <g id="text_3">
      <!-- $\mathdefault{10^{4}}$ -->
      <g transform="translate(392.171812 214.126438)">
       <text>
        <tspan style="font: 10px 'DejaVu Sans'" x="0 6.362305" y="-0.06406250000000036">10</tspan>
        <tspan style="font: 7px 'DejaVu Sans'" x="12.820312" y="-3.8921875000000004">4</tspan>
       </text>
      </g>
     </g>
    </g>
    <g id="xtick_4">
     <g id="line2d_7">
      <defs>
       <path id="m0a29acf28c" d="M 0 0 
L 0 2 
" style="stroke: #000000; stroke-width: 0.6"/>
      </defs>
      <g>
       <use xlink:href="#m0a29acf28c" x="52.94" y="199.528" style="stroke: #000000; stroke-width: 0.6"/>
      </g>
     </g>
    </g>
    <g id="xtick_5">
     <g id="line2d_8">
      <g>
       <use xlink:href="#m0a29acf28c" x="75.646944" y="199.528" style="stroke: #000000; stroke-width: 0.6"/>
      </g>
     </g>
    </g>
    <g id="xtick_6">
     <g id="line2d_9">
      <g>
       <use xlink:href="#m0a29acf28c" x="91.757777" y="199.528" style="stroke: #000000; stroke-width: 0.6"/>
      </g>
     </g>
    </g>
    <g id="xtick_7">
     <g id="line2d_10">
      <g>
       <use xlink:href="#m0a29acf28c" x="104.25431" y="199.528" style="stroke: #000000; stroke-width: 0.6"/>
      </g>
     </g>
    </g>
    <g id="xtick_8">
     <g id="line2d_11">
      <g>
       <use xlink:href="#m0a29acf28c" x="114.46472" y="199.528" style="stroke: #000000; stroke-width: 0.6"/>
      </g>
     </g>
    </g>
    <g id="xtick_9">
     <g id="line2d_12">
      <g>
       <use xlink:href="#m0a29acf28c" x="123.0975" y="199.528" style="stroke: #000000; stroke-width: 0.6"/>
      </g>
     </g>
    </g>
    <g id="xtick_10">
     <g id="line2d_13">
      <g>
       <use xlink:href="#m0a29acf28c" x="130.575553" y="199.528" style="stroke: #000000; stroke-width: 0.6"/>
      </g>
     </g>
    </g>
    <g id="xtick_11">
     <g id="line2d_14">
      <g>
       <use xlink:href="#m0a29acf28c" x="137.171664" y="199.528" style="stroke: #000000; stroke-width: 0.6"/>
      </g>
     </g>
    </g>
    <g id="xtick_12">
     <g id="line2d_15">
      <g>
       <use xlink:href="#m0a29acf28c" x="181.889863" y="199.528" style="stroke: #000000; stroke-width: 0.6"/>
      </g>
     </g>
    </g>
    <g id="xtick_13">
     <g id="line2d_16">
      <g>
       <use xlink:href="#m0a29acf28c" x="204.596807" y="199.528" style="stroke: #000000; stroke-width: 0.6"/>
      </g>
     </g>
    </g>
    <g id="xtick_14">
     <g id="line2d_17">
      <g>
       <use xlink:href="#m0a29acf28c" x="220.70764" y="199.528" style="stroke: #000000; stroke-width: 0.6"/>
      </g>
     </g>
    </g>
    <g id="xtick_15">
     <g id="line2d_18">
      <g>
       <use xlink:href="#m0a29acf28c" x="233.204173" y="199.528" style="stroke: #000000; stroke-width: 0.6"/>
      </g>
     </g>
    </g>
    <g id="xtick_16">
     <g id="line2d_19">
      <g>
       <use xlink:href="#m0a29acf28c" x="243.414584" y="199.528" style="stroke: #000000; stroke-width: 0.6"/>
      </g>
     </g>
    </g>
    <g id="xtick_17">
     <g id="line2d_20">
      <g>
       <use xlink:href="#m0a29acf28c" x="252.047363" y="199.528" style="stroke: #000000; stroke-width: 0.6"/>
      </g>
     </g>
    </g>
    <g id="xtick_18">
     <g id="line2d_21">
      <g>
       <use xlink:href="#m0a29acf28c" x="259.525416" y="199.528" style="stroke: #000000; stroke-width: 0.6"/>
      </g>
     </g>
    </g>
    <g id="xtick_19">
     <g id="line2d_22">
      <g>
       <use xlink:href="#m0a29acf28c" x="266.121527" y="199.528" style="stroke: #000000; stroke-width: 0.6"/>
      </g>
     </g>
    </g>
    <g id="xtick_20">
     <g id="line2d_23">
      <g>
       <use xlink:href="#m0a29acf28c" x="310.839726" y="199.528" style="stroke: #000000; stroke-width: 0.6"/>
      </g>
     </g>
    </g>
    <g id="xtick_21">
     <g id="line2d_24">
      <g>
       <use xlink:href="#m0a29acf28c" x="333.54667" y="199.528" style="stroke: #000000; stroke-width: 0.6"/>
      </g>
     </g>
    </g>
    <g id="xtick_22">
     <g id="line2d_25">
      <g>
       <use xlink:href="#m0a29acf28c" x="349.657503" y="199.528" style="stroke: #000000; stroke-width: 0.6"/>
      </g>
     </g>
    </g>
    <g id="xtick_23">
     <g id="line2d_26">
      <g>
       <use xlink:href="#m0a29acf28c" x="362.154036" y="199.528" style="stroke: #000000; stroke-width: 0.6"/>
      </g>
     </g>
    </g>
    <g id="xtick_24">
     <g id="line2d_27">
      <g>
       <use xlink:href="#m0a29acf28c" x="372.364447" y="199.528" style="stroke: #000000; stroke-width: 0.6"/>
      </g>
     </g>
    </g>
    <g id="xtick_25">
     <g id="line2d_28">
      <g>
       <use xlink:href="#m0a29acf28c" x="380.997226" y="199.528" style="stroke: #000000; stroke-width: 0.6"/>
      </g>
     </g>
    </g>
    <g id="xtick_26">
     <g id="line2d_29">
      <g>
       <use xlink:href="#m0a29acf28c" x="388.47528" y="199.528" style="stroke: #000000; stroke-width: 0.6"/>
      </g>
     </g>
    </g>
    <g id="xtick_27">
     <g id="line2d_30">
      <g>
       <use xlink:href="#m0a29acf28c" x="395.07139" y="199.528" style="stroke: #000000; stroke-width: 0.6"/>
      </g>
     </g>
    </g>
    <g id="xtick_28">
     <g id="line2d_31">
      <g>
       <use xlink:href="#m0a29acf28c" x="439.789589" y="199.528" style="stroke: #000000; stroke-width: 0.6"/>
      </g>
     </g>
    </g>
    <g id="text_4">
     <text style="font: 10px 'DejaVu Sans', 'Bitstream Vera Sans', 'Computer Modern Sans Serif', 'Lucida Grande', 'Verdana', 'Geneva', 'Lucid', 'Arial', 'Helvetica', 'Avant Garde', sans-serif; text-anchor: middle" x="251.47" y="227.804563" transform="rotate(-0 251.47 227.804563)">Hz</text>
    </g>
   </g>
   <g id="matplotlib.axis_2">
    <g id="ytick_1">
     <g id="line2d_32">
      <path d="M 52.94 183.636364 
L 450 183.636364 
" clip-path="url(#pae5121868d)" style="fill: none; stroke: #b0b0b0; stroke-opacity: 0.25; stroke-width: 0.8; stroke-linecap: square"/>
     </g>
     <g id="line2d_33">
      <defs>
       <path id="m9f5eb7aa17" d="M 0 0 
L -3.5 0 
" style="stroke: #000000; stroke-width: 0.8"/>
      </defs>
      <g>
       <use xlink:href="#m9f5eb7aa17" x="52.94" y="183.636364" style="stroke: #000000; stroke-width: 0.8"/>
      </g>
     </g>
     <g id="text_5">
      <text style="font: 10px 'DejaVu Sans', 'Bitstream Vera Sans', 'Computer Modern Sans Serif', 'Lucida Grande', 'Verdana', 'Geneva', 'Lucid', 'Arial', 'Helvetica', 'Avant Garde', sans-serif; text-anchor: end" x="45.94" y="187.435582" transform="rotate(-0 45.94 187.435582)">−40</text>
     </g>
    </g>
    <g id="ytick_2">
     <g id="line2d_34">
      <path d="M 52.94 151.853091 
L 450 151.853091 
" clip-path="url(#pae5121868d)" style="fill: none; stroke: #b0b0b0; stroke-opacity: 0.25; stroke-width: 0.8; stroke-linecap: square"/>
     </g>
     <g id="line2d_35">
      <g>
       <use xlink:href="#m9f5eb7aa17" x="52.94" y="151.853091" style="stroke: #000000; stroke-width: 0.8"/>
      </g>
     </g>
     <g id="text_6">
      <text style="font: 10px 'DejaVu Sans', 'Bitstream Vera Sans', 'Computer Modern Sans Serif', 'Lucida Grande', 'Verdana', 'Geneva', 'Lucid', 'Arial', 'Helvetica', 'Avant Garde', sans-serif; text-anchor: end" x="45.94" y="155.65231" transform="rotate(-0 45.94 155.65231)">−30</text>
     </g>
    </g>
    <g id="ytick_3">
     <g id="line2d_36">
      <path d="M 52.94 120.069818 
L 450 120.069818 
" clip-path="url(#pae5121868d)" style="fill: none; stroke: #b0b0b0; stroke-opacity: 0.25; stroke-width: 0.8; stroke-linecap: square"/>
     </g>
     <g id="line2d_37">
      <g>
       <use xlink:href="#m9f5eb7aa17" x="52.94" y="120.069818" style="stroke: #000000; stroke-width: 0.8"/>
      </g>
     </g>
     <g id="text_7">
      <text style="font: 10px 'DejaVu Sans', 'Bitstream Vera Sans', 'Computer Modern Sans Serif', 'Lucida Grande', 'Verdana', 'Geneva', 'Lucid', 'Arial', 'Helvetica', 'Avant Garde', sans-serif; text-anchor: end" x="45.94" y="123.869037" transform="rotate(-0 45.94 123.869037)">−20</text>
     </g>
    </g>
    <g id="ytick_4">
     <g id="line2d_38">
      <path d="M 52.94 88.286545 
L 450 88.286545 
" clip-path="url(#pae5121868d)" style="fill: none; stroke: #b0b0b0; stroke-opacity: 0.25; stroke-width: 0.8; stroke-linecap: square"/>
     </g>
     <g id="line2d_39">
      <g>
       <use xlink:href="#m9f5eb7aa17" x="52.94" y="88.286545" style="stroke: #000000; stroke-width: 0.8"/>
      </g>
     </g>
     <g id="text_8">
      <text style="font: 10px 'DejaVu Sans', 'Bitstream Vera Sans', 'Computer Modern Sans Serif', 'Lucida Grande', 'Verdana', 'Geneva', 'Lucid', 'Arial', 'Helvetica', 'Avant Garde', sans-serif; text-anchor: end" x="45.94" y="92.085764" transform="rotate(-0 45.94 92.085764)">−10</text>
     </g>
    </g>
    <g id="ytick_5">
     <g id="line2d_40">
      <path d="M 52.94 56.503273 
L 450 56.503273 
" clip-path="url(#pae5121868d)" style="fill: none; stroke: #b0b0b0; stroke-opacity: 0.25; stroke-width: 0.8; stroke-linecap: square"/>
     </g>
     <g id="line2d_41">
      <g>
       <use xlink:href="#m9f5eb7aa17" x="52.94" y="56.503273" style="stroke: #000000; stroke-width: 0.8"/>
      </g>
     </g>
     <g id="text_9">
      <text style="font: 10px 'DejaVu Sans', 'Bitstream Vera Sans', 'Computer Modern Sans Serif', 'Lucida Grande', 'Verdana', 'Geneva', 'Lucid', 'Arial', 'Helvetica', 'Avant Garde', sans-serif; text-anchor: end" x="45.94" y="60.302491" transform="rotate(-0 45.94 60.302491)">0</text>
     </g>
    </g>
    <g id="ytick_6">
     <g id="line2d_42">
      <path d="M 52.94 24.72 
L 450 24.72 
" clip-path="url(#pae5121868d)" style="fill: none; stroke: #b0b0b0; stroke-opacity: 0.25; stroke-width: 0.8; stroke-linecap: square"/>
     </g>
     <g id="line2d_43">
      <g>
       <use xlink:href="#m9f5eb7aa17" x="52.94" y="24.72" style="stroke: #000000; stroke-width: 0.8"/>
      </g>
     </g>
     <g id="text_10">
      <text style="font: 10px 'DejaVu Sans', 'Bitstream Vera Sans', 'Computer Modern Sans Serif', 'Lucida Grande', 'Verdana', 'Geneva', 'Lucid', 'Arial', 'Helvetica', 'Avant Garde', sans-serif; text-anchor: end" x="45.94" y="28.519219" transform="rotate(-0 45.94 28.519219)">10</text>
     </g>
    </g>
    <g id="text_11">
     <text style="font: 10px 'DejaVu Sans', 'Bitstream Vera Sans', 'Computer Modern Sans Serif', 'Lucida Grande', 'Verdana', 'Geneva', 'Lucid', 'Arial', 'Helvetica', 'Avant Garde', sans-serif; text-anchor: middle" x="18.755625" y="112.124" transform="rotate(-90 18.755625 112.124)">dB</text>
    </g>
   </g>
   <g id="line2d_44">
    <path d="M -1 117.283932 
L 6.893623 114.184455 
L 23.004456 108.91699 
L 35.500989 105.588092 
L 45.7114 103.391679 
L 54.344179 101.895497 
L 61.822233 100.851581 
L 68.418344 100.110967 
L 79.656347 99.20106 
L 89.011745 98.746906 
L 97.025709 98.557078 
L 107.23612 98.56931 
L 115.8689 98.803919 
L 125.633075 99.334761 
L 133.944924 100.033756 
L 141.181067 100.850899 
L 149.081781 101.9913 
L 156.004436 103.22493 
L 163.319456 104.785479 
L 169.788433 106.396244 
L 176.497566 108.298874 
L 183.294042 110.459627 
L 190.772096 113.078541 
L 200.982507 116.92653 
L 210.606502 120.506591 
L 215.765162 122.192589 
L 219.658775 123.250877 
L 223.29919 124.00891 
L 226.347682 124.433267 
L 229.23876 124.634403 
L 232.32223 124.61695 
L 235.244748 124.373889 
L 238.322567 123.884699 
L 241.523564 123.139166 
L 245.084807 122.05933 
L 248.930864 120.648121 
L 253.451542 118.743188 
L 259.306229 116.017074 
L 269.103338 111.165139 
L 283.636539 104.008 
L 292.950896 99.680438 
L 301.325004 96.031843 
L 309.202686 92.838144 
L 316.775685 90.006825 
L 324.031948 87.529163 
L 331.144211 85.334993 
L 338.163698 83.402698 
L 345.16126 81.707249 
L 352.249053 80.218951 
L 359.545687 78.915008 
L 367.182515 77.778272 
L 375.294379 76.797977 
L 384.112217 75.959768 
L 393.910967 75.256364 
L 405.093108 74.682529 
L 418.226209 74.238168 
L 433.934723 73.93596 
L 450 73.827791 
L 450 73.827791 
" clip-path="url(#pae5121868d)" style="fill: none; stroke: #1f6feb; stroke-width: 1.3; stroke-linecap: square"/>
   </g>
   <g id="line2d_45">
    <path d="M -1 147.204835 
L 6.893623 143.963536 
L 23.004456 138.276845 
L 35.500989 134.564313 
L 45.7114 132.03485 
L 54.344179 130.254284 
L 61.822233 128.966471 
L 68.418344 128.013304 
L 79.656347 126.741534 
L 89.011745 125.973456 
L 100.64001 125.318192 
L 113.136542 124.91152 
L 125.633075 124.755834 
L 139.457786 124.837999 
L 153.33716 125.170251 
L 169.788433 125.821923 
L 184.088413 126.336939 
L 190.772096 126.359025 
L 196.109677 126.158283 
L 200.396091 125.796325 
L 204.37762 125.259607 
L 208.094771 124.558099 
L 212.061186 123.578129 
L 215.765162 122.441845 
L 219.658775 121.024111 
L 224.077011 119.162959 
L 228.885433 116.881118 
L 234.608352 113.905212 
L 242.643646 109.444307 
L 266.267177 96.181517 
L 275.622575 91.256599 
L 284.562217 86.801232 
L 293.06369 82.809342 
L 301.325004 79.174575 
L 309.202686 75.949023 
L 316.775685 73.085594 
L 324.096728 70.553011 
L 331.258269 68.310809 
L 338.264331 66.348909 
L 345.29444 64.61175 
L 352.366417 63.093445 
L 359.648727 61.758873 
L 367.242474 60.595906 
L 375.294379 59.590875 
L 384.001255 58.731869 
L 393.631096 58.009679 
L 404.572438 57.417818 
L 417.351346 56.955981 
L 432.570322 56.635265 
L 449.326012 56.503506 
L 450 56.503272 
L 450 56.503272 
" clip-path="url(#pae5121868d)" style="fill: none; stroke: #cf222e; stroke-width: 1.3; stroke-linecap: square"/>
   </g>
   <g id="line2d_46">
    <path d="M -1 82.273584 
L 6.893623 79.930039 
L 23.004456 76.621446 
L 35.500989 74.931311 
L 45.7114 74.097556 
L 54.344179 73.760744 
L 61.822233 73.735303 
L 68.418344 73.917449 
L 74.318766 74.244784 
L 79.656347 74.677282 
L 89.011745 75.756916 
L 97.025709 77.017211 
L 104.035123 78.378586 
L 110.264004 79.791307 
L 118.474124 81.938676 
L 125.633075 84.06349 
L 133.944924 86.801834 
L 142.852899 90.023651 
L 151.954319 93.575327 
L 162.16473 97.811483 
L 174.661263 103.267314 
L 190.067656 110.264845 
L 215.765162 122.232932 
L 240.955009 133.881829 
L 255.911116 140.557252 
L 268.407649 145.896834 
L 279.772786 150.512331 
L 290.763481 154.735612 
L 302.47973 158.994117 
L 318.304106 164.48281 
L 337.556073 171.200981 
L 348.020462 175.098235 
L 357.121882 178.72253 
L 365.569734 182.324356 
L 373.554877 185.969315 
L 381.083101 189.647818 
L 388.111783 193.326634 
L 394.577008 196.957981 
L 400.438794 200.501074 
L 405.729676 203.955267 
L 410.466706 207.309682 
L 414.70587 210.579922 
L 418.514819 213.795958 
L 421.934621 216.97149 
L 425.018896 220.13654 
L 427.810213 223.318377 
L 430.333172 226.529673 
L 432.626287 229.80646 
L 434.721525 233.18875 
L 436.628469 236.689644 
L 438.371736 240.356054 
L 439.964323 244.22575 
L 440.547242 245.8 
L 440.547242 245.8 
" clip-path="url(#pae5121868d)" style="fill: none; stroke: #116329; stroke-width: 1.3; stroke-linecap: square"/>
   </g>
   <g id="patch_3">
    <path d="M 52.94 199.528 
L 52.94 24.72 
" style="fill: none; stroke: #000000; stroke-width: 0.8; stroke-linejoin: miter; stroke-linecap: square"/>
   </g>
   <g id="patch_4">
    <path d="M 450 199.528 
L 450 24.72 
" style="fill: none; stroke: #000000; stroke-width: 0.8; stroke-linejoin: miter; stroke-linecap: square"/>
   </g>
   <g id="patch_5">
    <path d="M 52.94 199.528 
L 450 199.528 
" style="fill: none; stroke: #000000; stroke-width: 0.8; stroke-linejoin: miter; stroke-linecap: square"/>
   </g>
   <g id="patch_6">
    <path d="M 52.94 24.72 
L 450 24.72 
" style="fill: none; stroke: #000000; stroke-width: 0.8; stroke-linejoin: miter; stroke-linecap: square"/>
   </g>
   <g id="text_12">
    <text style="font: 10px 'DejaVu Sans', 'Bitstream Vera Sans', 'Computer Modern Sans Serif', 'Lucida Grande', 'Verdana', 'Geneva', 'Lucid', 'Arial', 'Helvetica', 'Avant Garde', sans-serif; text-anchor: middle" x="251.47" y="18.72" transform="rotate(-0 251.47 18.72)">ts.crunch(t, m, l)</text>
   </g>
   <g id="legend_1">
    <g id="patch_7">
     <path d="M 58.54 195.528 
L 130.125 195.528 
Q 131.725 195.528 131.725 193.928 
L 131.725 159.5005 
Q 131.725 157.9005 130.125 157.9005 
L 58.54 157.9005 
Q 56.94 157.9005 56.94 159.5005 
L 56.94 193.928 
Q 56.94 195.528 58.54 195.528 
z
" style="fill: #ffffff; opacity: 0.8; stroke: #cccccc; stroke-linejoin: miter"/>
    </g>
    <g id="line2d_47">
     <path d="M 60.14 164.37925 
L 68.14 164.37925 
L 76.14 164.37925 
" style="fill: none; stroke: #1f6feb; stroke-width: 1.3; stroke-linecap: square"/>
    </g>
    <g id="text_13">
     <text style="font: 8px 'DejaVu Sans', 'Bitstream Vera Sans', 'Computer Modern Sans Serif', 'Lucida Grande', 'Verdana', 'Geneva', 'Lucid', 'Arial', 'Helvetica', 'Avant Garde', sans-serif; text-anchor: start" x="82.54" y="167.17925" transform="rotate(-0 82.54 167.17925)">t=m=l=0.5</text>
    </g>
    <g id="line2d_48">
     <path d="M 60.14 176.12175 
L 68.14 176.12175 
L 76.14 176.12175 
" style="fill: none; stroke: #cf222e; stroke-width: 1.3; stroke-linecap: square"/>
    </g>
    <g id="text_14">
     <text style="font: 8px 'DejaVu Sans', 'Bitstream Vera Sans', 'Computer Modern Sans Serif', 'Lucida Grande', 'Verdana', 'Geneva', 'Lucid', 'Arial', 'Helvetica', 'Avant Garde', sans-serif; text-anchor: start" x="82.54" y="178.92175" transform="rotate(-0 82.54 178.92175)">treble full</text>
    </g>
    <g id="line2d_49">
     <path d="M 60.14 187.86425 
L 68.14 187.86425 
L 76.14 187.86425 
" style="fill: none; stroke: #116329; stroke-width: 1.3; stroke-linecap: square"/>
    </g>
    <g id="text_15">
     <text style="font: 8px 'DejaVu Sans', 'Bitstream Vera Sans', 'Computer Modern Sans Serif', 'Lucida Grande', 'Verdana', 'Geneva', 'Lucid', 'Arial', 'Helvetica', 'Avant Garde', sans-serif; text-anchor: start" x="82.54" y="190.66425" transform="rotate(-0 82.54 190.66425)">bass full</text>
    </g>
   </g>
  </g>
 </g>
 <defs>
  <clipPath id="pae5121868d">
   <rect x="52.94" y="24.72" width="397.06" height="174.808"/>
  </clipPath>
 </defs>
</svg>
