<?xml version="1.0" encoding="utf-8" standalone="no"?>
<!DOCTYPE svg PUBLIC "-//W3C//DTD SVG 1.1//EN"
  "http://www.w3.org/Graphics/SVG/1.1/DTD/svg11.dtd">
<svg xmlns:xlink="http://www.w3.org/1999/xlink" width="460.8pt" height="244.8pt" viewBox="0 0 460.8 244.8" xmlns="http://www.w3.org/2000/svg" version="1.1">
 <metadata>
  <rdf:RDF xmlns:dc="http://purl.org/dc/elements/1.1/" xmlns:cc="http://creativecommons.org/ns#" xmlns:rdf="http://www.w3.org/1999/02/22-rdf-syntax-ns#">
   <cc:Work>
    <dc:type rdf:resource="http://purl.org/dc/dcmitype/StillImage"/>
    <dc:date>2026-08-26T16:29:54.375117</dc:date>
    <dc:format>image/svg+xml</dc:format>
    <dc:creator>
     <cc:Agent>
      <dc:title>Matplotlib v3.9.4, https://matplotlib.org/</dc:title>
     </cc:Agent>
    </dc:creator>
   </cc:Work>
  </rdf:RDF>
 </metadata>
 <defs>
  <style type="text/css">*{stroke-linejoin: round; stroke-linecap: butt}</style>
 </defs>
 <g id="figure_1">
  <g id="patch_1">
   <path d="M 0 244.8 
L 460.8 244.8 
L 460.8 0 
L 0 0 
z
" style="fill: #ffffff"/>
  </g>
  <g id="axes_1">
   <g id="patch_2">
    <path d="M 52.94 199.528 
L 450 199.528 
L 450 24.72 
L 52.94 24.72 
z
" style="fill: #ffffff"/>
   </g>
   <g id="matplotlib.axis_1">
    <g id="xtick_1">
     <g id="line2d_1">
      <path d="M 143.072086 199.528 
L 143.072086 24.72 
" clip-path="url(#p51665b658a)" style="fill: none; stroke: #b0b0b0; stroke-opacity: 0.25; stroke-width: 0.8; stroke-linecap: square"/>
     </g>
     <g id="line2d_2">
      <defs>
       <path id="m878f5c9705" d="M 0 0 
L 0 3.5 
" style="stroke: #000000; stroke-width: 0.8"/>
      </defs>
      <g>
       <use xlink:href="#m878f5c9705" x="143.072086" y="199.528" style="stroke: #000000; stroke-width: 0.8"/>
      </g>
     </g>
     <g id="text_1">
      <!-- $\mathdefault{10^{2}}$ -->
      <g transform="translate(134.272086 214.126438)">
       <text>
        <tspan style="font: 10px 'DejaVu Sans'" x="0 6.362305" y="-0.9765625">10</tspan>
        <tspan style="font: 7px 'DejaVu Sans'" x="12.820312" y="-4.8046875">2</tspan>
       </text>
      </g>
     </g>
    </g>
    <g id="xtick_2">
     <g id="line2d_3">
      <path d="M 272.021949 199.528 
L 272.021949 24.72 
" clip-path="url(#p51665b658a)" style="fill: none; stroke: #b0b0b0; stroke-opacity: 0.25; stroke-width: 0.8; stroke-linecap: square"/>
     </g>
     <g id="line2d_4">
      <g>
       <use xlink:href="#m878f5c9705" x="272.021949" y="199.528" style="stroke: #000000; stroke-width: 0.8"/>
      </g>
     </g>
     <g id="text_2">
      <!-- $\mathdefault{10^{3}}$ -->
      <g transform="translate(263.221949 214.126438)">
       <text>
        <tspan style="font: 10px 'DejaVu Sans'" x="0 6.362305" y="-0.9765625">10</tspan>
        <tspan style="font: 7px 'DejaVu Sans'" x="12.820312" y="-4.8046875">3</tspan>
       </text>
      </g>
     </g>
    </g>
    <g id="xtick_3">
     <g id="line2d_5">
      <path d="M 400.971812 199.528 
L 400.971812 24.72 
" clip-path="url(#p51665b658a)" style="fill: none; stroke: #b0b0b0; stroke-opacity: 0.25; stroke-width: 0.8; stroke-linecap: square"/>
     </g>
     <g id="line2d_6">
      <g>
       <use xlink:href="#m878f5c9705" x="400.971812" y="199.528" style="stroke: #000000; stroke-width: 0.8"/>
      </g>
     </g>
     <g id="text_3">
      <!-- $\mathdefault{10^{4}}$ -->
      <g transform="translate(392.171812 214.126438)">
       <text>
        <tspan style="font: 10px 'DejaVu Sans'" x="0 6.362305" y="-0.06406250000000036">10</tspan>
        <tspan style="font: 7px 'DejaVu Sans'" x="12.820312" y="-3.8921875000000004">4</tspan>
       </text>
      </g>
     </g>
    </g>
    <g id="xtick_4">
     <g id="line2d_7">
      <defs>
       <path id="m3b33e9c278" d="M 0 0 
L 0 2 
" style="stroke: #000000; stroke-width: 0.6"/>
      </defs>
      <g>
       <use xlink:href="#m3b33e9c278" x="52.94" y="199.528" style="stroke: #000000; stroke-width: 0.6"/>
      </g>
     </g>
    </g>
    <g id="xtick_5">
     <g id="line2d_8">
      <g>
       <use xlink:href="#m3b33e9c278" x="75.646944" y="199.528" style="stroke: #000000; stroke-width: 0.6"/>
      </g>
     </g>
    </g>
    <g id="xtick_6">
     <g id="line2d_9">
      <g>
       <use xlink:href="#m3b33e9c278" x="91.757777" y="199.528" style="stroke: #000000; stroke-width: 0.6"/>
      </g>
     </g>
    </g>
    <g id="xtick_7">
     <g id="line2d_10">
      <g>
       <use xlink:href="#m3b33e9c278" x="104.25431" y="199.528" style="stroke: #000000; stroke-width: 0.6"/>
      </g>
     </g>
    </g>
    <g id="xtick_8">
     <g id="line2d_11">
      <g>
       <use xlink:href="#m3b33e9c278" x="114.46472" y="199.528" style="stroke: #000000; stroke-width: 0.6"/>
      </g>
     </g>
    </g>
    <g id="xtick_9">
     <g id="line2d_12">
      <g>
       <use xlink:href="#m3b33e9c278" x="123.0975" y="199.528" style="stroke: #000000; stroke-width: 0.6"/>
      </g>
     </g>
    </g>
    <g id="xtick_10">
     <g id="line2d_13">
      <g>
       <use xlink:href="#m3b33e9c278" x="130.575553" y="199.528" style="stroke: #000000; stroke-width: 0.6"/>
      </g>
     </g>
    </g>
    <g id="xtick_11">
     <g id="line2d_14">
      <g>
       <use xlink:href="#m3b33e9c278" x="137.171664" y="199.528" style="stroke: #000000; stroke-width: 0.6"/>
      </g>
     </g>
    </g>
    <g id="xtick_12">
     <g id="line2d_15">
      <g>
       <use xlink:href="#m3b33e9c278" x="181.889863" y="199.528" style="stroke: #000000; stroke-width: 0.6"/>
      </g>
     </g>
    </g>
    <g id="xtick_13">
     <g id="line2d_16">
      <g>
       <use xlink:href="#m3b33e9c278" x="204.596807" y="199.528" style="stroke: #000000; stroke-width: 0.6"/>
      </g>
     </g>
    </g>
    <g id="xtick_14">
     <g id="line2d_17">
      <g>
       <use xlink:href="#m3b33e9c278" x="220.70764" y="199.528" style="stroke: #000000; stroke-width: 0.6"/>
      </g>
     </g>
    </g>
    <g id="xtick_15">
     <g id="line2d_18">
      <g>
       <use xlink:href="#m3b33e9c278" x="233.204173" y="199.528" style="stroke: #000000; stroke-width: 0.6"/>
      </g>
     </g>
    </g>
    <g id="xtick_16">
     <g id="line2d_19">
      <g>
       <use xlink:href="#m3b33e9c278" x="243.414584" y="199.528" style="stroke: #000000; stroke-width: 0.6"/>
      </g>
     </g>
    </g>
    <g id="xtick_17">
     <g id="line2d_20">
      <g>
       <use xlink:href="#m3b33e9c278" x="252.047363" y="199.528" style="stroke: #000000; stroke-width: 0.6"/>
      </g>
     </g>
    </g>
    <g id="xtick_18">
     <g id="line2d_21">
      <g>
       <use xlink:href="#m3b33e9c278" x="259.525416" y="199.528" style="stroke: #000000; stroke-width: 0.6"/>
      </g>
     </g>
    </g>
    <g id="xtick_19">
     <g id="line2d_22">
      <g>
       <use xlink:href="#m3b33e9c278" x="266.121527" y="199.528" style="stroke: #000000; stroke-width: 0.6"/>
      </g>
     </g>
    </g>
    <g id="xtick_20">
     <g id="line2d_23">
      <g>
       <use xlink:href="#m3b33e9c278" x="310.839726" y="199.528" style="stroke: #000000; stroke-width: 0.6"/>
      </g>
     </g>
    </g>
    <g id="xtick_21">
     <g id="line2d_24">
      <g>
       <use xlink:href="#m3b33e9c278" x="333.54667" y="199.528" style="stroke: #000000; stroke-width: 0.6"/>
      </g>
     </g>
    </g>
    <g id="xtick_22">
     <g id="line2d_25">
      <g>
       <use xlink:href="#m3b33e9c278" x="349.657503" y="199.528" style="stroke: #000000; stroke-width: 0.6"/>
      </g>
     </g>
    </g>
    <g id="xtick_23">
     <g id="line2d_26">
      <g>
       <use xlink:href="#m3b33e9c278" x="362.154036" y="199.528" style="stroke: #000000; stroke-width: 0.6"/>
      </g>
     </g>
    </g>
    <g id="xtick_24">
     <g id="line2d_27">
      <g>
       <use xlink:href="#m3b33e9c278" x="372.364447" y="199.528" style="stroke: #000000; stroke-width: 0.6"/>
      </g>
     </g>
    </g>
    <g id="xtick_25">
     <g id="line2d_28">
      <g>
       <use xlink:href="#m3b33e9c278" x="380.997226" y="199.528" style="stroke: #000000; stroke-width: 0.6"/>
      </g>
     </g>
    </g>
    <g id="xtick_26">
     <g id="line2d_29">
      <g>
       <use xlink:href="#m3b33e9c278" x="388.47528" y="199.528" style="stroke: #000000; stroke-width: 0.6"/>
      </g>
     </g>
    </g>
    <g id="xtick_27">
     <g id="line2d_30">
      <g>
       <use xlink:href="#m3b33e9c278" x="395.07139" y="199.528" style="stroke: #000000; stroke-width: 0.6"/>
      </g>
     </g>
    </g>
    <g id="xtick_28">
     <g id="line2d_31">
      <g>
       <use xlink:href="#m3b33e9c278" x="439.789589" y="199.528" style="stroke: #000000; stroke-width: 0.6"/>
      </g>
     </g>
    </g>
    <g id="text_4">
     <text style="font: 10px 'DejaVu Sans', 'Bitstream Vera Sans', 'Computer Modern Sans Serif', 'Lucida Grande', 'Verdana', 'Geneva', 'Lucid', 'Arial', 'Helvetica', 'Avant Garde', sans-serif; text-anchor: middle" x="251.47" y="227.804563" transform="rotate(-0 251.47 227.804563)">Hz</text>
    </g>
   </g>
   <g id="matplotlib.axis_2">
    <g id="ytick_1">
     <g id="line2d_32">
      <path d="M 52.94 183.636364 
L 450 183.636364 
" clip-path="url(#p51665b658a)" style="fill: none; stroke: #b0b0b0; stroke-opacity: 0.25; stroke-width: 0.8; stroke-linecap: square"/>
     </g>
     <g id="line2d_33">
      <defs>
       <path id="m905ed652ea" d="M 0 0 
L -3.5 0 
" style="stroke: #000000; stroke-width: 0.8"/>
      </defs>
      <g>
       <use xlink:href="#m905ed652ea" x="52.94" y="183.636364" style="stroke: #000000; stroke-width: 0.8"/>
      </g>
     </g>
     <g id="text_5">
      <text style="font: 10px 'DejaVu Sans', 'Bitstream Vera Sans', 'Computer Modern Sans Serif', 'Lucida Grande', 'Verdana', 'Geneva', 'Lucid', 'Arial', 'Helvetica', 'Avant Garde', sans-serif; text-anchor: end" x="45.94" y="187.435582" transform="rotate(-0 45.94 187.435582)">−40</text>
     </g>
    </g>
    <g id="ytick_2">
     <g id="line2d_34">
      <path d="M 52.94 151.853091 
L 450 151.853091 
" clip-path="url(#p51665b658a)" style="fill: none; stroke: #b0b0b0; stroke-opacity: 0.25; stroke-width: 0.8; stroke-linecap: square"/>
     </g>
     <g id="line2d_35">
      <g>
       <use xlink:href="#m905ed652ea" x="52.94" y="151.853091" style="stroke: #000000; stroke-width: 0.8"/>
      </g>
     </g>
     <g id="text_6">
      <text style="font: 10px 'DejaVu Sans', 'Bitstream Vera Sans', 'Computer Modern Sans Serif', 'Lucida Grande', 'Verdana', 'Geneva', 'Lucid', 'Arial', 'Helvetica', 'Avant Garde', sans-serif; text-anchor: end" x="45.94" y="155.65231" transform="rotate(-0 45.94 155.65231)">−30</text>
     </g>
    </g>
    <g id="ytick_3">
     <g id="line2d_36">
      <path d="M 52.94 120.069818 
L 450 120.069818 
" clip-path="url(#p51665b658a)" style="fill: none; stroke: #b0b0b0; stroke-opacity: 0.25; stroke-width: 0.8; stroke-linecap: square"/>
     </g>
     <g id="line2d_37">
      <g>
       <use xlink:href="#m905ed652ea" x="52.94" y="120.069818" style="stroke: #000000; stroke-width: 0.8"/>
      </g>
     </g>
     <g id="text_7">
      <text style="font: 10px 'DejaVu Sans', 'Bitstream Vera Sans', 'Computer Modern Sans Serif', 'Lucida Grande', 'Verdana', 'Geneva', 'Lucid', 'Arial', 'Helvetica', 'Avant Garde', sans-serif; text-anchor: end" x="45.94" y="123.869037" transform="rotate(-0 45.94 123.869037)">−20</text>
     </g>
    </g>
    <g id="ytick_4">
     <g id="line2d_38">
      <path d="M 52.94 88.286545 
L 450 88.286545 
" clip-path="url(#p51665b658a)" style="fill: none; stroke: #b0b0b0; stroke-opacity: 0.25; stroke-width: 0.8; stroke-linecap: square"/>
     </g>
     <g id="line2d_39">
      <g>
       <use xlink:href="#m905ed652ea" x="52.94" y="88.286545" style="stroke: #000000; stroke-width: 0.8"/>
      </g>
     </g>
     <g id="text_8">
      <text style="font: 10px 'DejaVu Sans', 'Bitstream Vera Sans', 'Computer Modern Sans Serif', 'Lucida Grande', 'Verdana', 'Geneva', 'Lucid', 'Arial', 'Helvetica', 'Avant Garde', sans-serif; text-anchor: end" x="45.94" y="92.085764" transform="rotate(-0 45.94 92.085764)">−10</text>
     </g>
    </g>
    <g id="ytick_5">
     <g id="line2d_40">
      <path d="M 52.94 56.503273 
L 450 56.503273 
" clip-path="url(#p51665b658a)" style="fill: none; stroke: #b0b0b0; stroke-opacity: 0.25; stroke-width: 0.8; stroke-linecap: square"/>
     </g>
     <g id="line2d_41">
      <g>
       <use xlink:href="#m905ed652ea" x="52.94" y="56.503273" style="stroke: #000000; stroke-width: 0.8"/>
      </g>
     </g>
     <g id="text_9">
      <text style="font: 10px 'DejaVu Sans', 'Bitstream Vera Sans', 'Computer Modern Sans Serif', 'Lucida Grande', 'Verdana', 'Geneva', 'Lucid', 'Arial', 'Helvetica', 'Avant Garde', sans-serif; text-anchor: end" x="45.94" y="60.302491" transform="rotate(-0 45.94 60.302491)">0</text>
     </g>
    </g>
    <g id="ytick_6">
     <g id="line2d_42">
      <path d="M 52.94 24.72 
L 450 24.72 
" clip-path="url(#p51665b658a)" style="fill: none; stroke: #b0b0b0; stroke-opacity: 0.25; stroke-width: 0.8; stroke-linecap: square"/>
     </g>
     <g id="line2d_43">
      <g>
       <use xlink:href="#m905ed652ea" x="52.94" y="24.72" style="stroke: #000000; stroke-width: 0.8"/>
      </g>
     </g>
     <g id="text_10">
      <text style="font: 10px 'DejaVu Sans', 'Bitstream Vera Sans', 'Computer Modern Sans Serif', 'Lucida Grande', 'Verdana', 'Geneva', 'Lucid', 'Arial', 'Helvetica', 'Avant Garde', sans-serif; text-anchor: end" x="45.94" y="28.519219" transform="rotate(-0 45.94 28.519219)">10</text>
     </g>
    </g>
    <g id="text_11">
     <text style="font: 10px 'DejaVu Sans', 'Bitstream Vera Sans', 'Computer Modern Sans Serif', 'Lucida Grande', 'Verdana', 'Geneva', 'Lucid', 'Arial', 'Helvetica', 'Avant Garde', sans-serif; text-anchor: middle" x="18.755625" y="112.124" transform="rotate(-90 18.755625 112.124)">dB</text>
    </g>
   </g>
   <g id="line2d_44">
    <path d="M -1 96.00129 
L 6.893623 94.080019 
L 23.004456 91.481877 
L 35.500989 90.106495 
L 45.7114 89.315176 
L 54.344179 88.83407 
L 68.418344 88.342634 
L 84.529177 88.134017 
L 97.025709 88.199033 
L 110.264004 88.494876 
L 120.963521 88.937829 
L 131.979733 89.635252 
L 141.181067 90.45292 
L 149.081781 91.362293 
L 157.2919 92.543401 
L 164.450852 93.79252 
L 171.788725 95.300287 
L 179.143832 97.047419 
L 187.157796 99.206318 
L 196.109677 101.874041 
L 214.861881 107.573487 
L 220.07515 108.870838 
L 224.461907 109.734182 
L 228.172019 110.25289 
L 231.651537 110.532488 
L 235.244748 110.589929 
L 238.621246 110.420151 
L 242.086406 110.021465 
L 245.613134 109.393921 
L 249.424278 108.488608 
L 253.679657 107.240728 
L 258.685126 105.522902 
L 264.793349 103.1768 
L 274.53512 99.161546 
L 289.336596 93.088093 
L 298.020966 89.777831 
L 305.807573 87.04773 
L 313.117097 84.719362 
L 320.209847 82.692123 
L 327.243747 80.913086 
L 334.307138 79.356307 
L 341.535106 77.992014 
L 349.066481 76.799373 
L 357.014082 75.768644 
L 365.600598 74.882895 
L 375.060332 74.134711 
L 385.793829 73.5142 
L 398.38065 73.016372 
L 413.760717 72.639543 
L 433.311961 72.392872 
L 450 72.325429 
L 450 72.325429 
" clip-path="url(#p51665b658a)" style="fill: none; stroke: #1f6feb; stroke-width: 1.3; stroke-linecap: square"/>
   </g>
   <g id="line2d_45">
    <path d="M -1 114.930836 
L 6.893623 112.663184 
L 23.004456 109.391712 
L 35.500989 107.577044 
L 45.7114 106.492051 
L 54.344179 105.805986 
L 68.418344 105.049399 
L 79.656347 104.698589 
L 93.161956 104.51228 
L 107.23612 104.561161 
L 120.963521 104.861809 
L 131.979733 105.326461 
L 141.181067 105.913263 
L 150.536466 106.749863 
L 158.55043 107.708527 
L 165.559843 108.768713 
L 172.762701 110.105993 
L 179.143832 111.516046 
L 186.406077 113.365319 
L 203.825869 117.98859 
L 207.578617 118.638663 
L 210.606502 118.934347 
L 213.47904 118.974788 
L 216.211397 118.763211 
L 218.816621 118.317477 
L 221.306018 117.666581 
L 224.077011 116.695233 
L 227.084564 115.377292 
L 230.285561 113.724721 
L 234.287421 111.390576 
L 239.800283 107.88476 
L 258.267198 95.936943 
L 265.35059 91.712062 
L 272.294732 87.829298 
L 279.198399 84.223357 
L 286.114341 80.860213 
L 293.06369 77.728101 
L 299.947024 74.868823 
L 306.786191 72.268411 
L 313.587707 69.921724 
L 320.348466 67.826328 
L 327.059832 65.978257 
L 333.87385 64.332714 
L 340.819261 62.884292 
L 348.020462 61.610275 
L 355.593462 60.497659 
L 363.717993 59.53186 
L 372.582779 58.706248 
L 382.469937 58.013485 
L 393.836472 57.4459 
L 407.378011 57.000029 
L 424.168813 56.678895 
L 444.885518 56.51109 
L 450 56.503272 
L 450 56.503272 
" clip-path="url(#p51665b658a)" style="fill: none; stroke: #cf222e; stroke-width: 1.3; stroke-linecap: square"/>
   </g>
   <g id="line2d_46">
    <path d="M -1 71.203286 
L 6.893623 70.35869 
L 23.004456 69.476522 
L 35.500989 69.138734 
L 45.7114 69.048313 
L 61.822233 69.22569 
L 74.318766 69.658579 
L 84.529177 70.245605 
L 93.161956 70.941829 
L 100.64001 71.720188 
L 110.264004 72.999949 
L 118.474124 74.370763 
L 125.633075 75.794762 
L 133.944924 77.727923 
L 141.181067 79.657835 
L 149.081781 82.02003 
L 157.2919 84.738455 
L 165.559843 87.719517 
L 174.661263 91.242781 
L 184.871674 95.438669 
L 197.368207 100.831115 
L 214.404717 108.455533 
L 252.761568 125.700315 
L 266.810013 131.721594 
L 279.629741 136.975107 
L 292.950896 142.18831 
L 312.403684 149.524311 
L 329.874004 156.200068 
L 341.297506 160.805714 
L 351.420544 165.124711 
L 360.93775 169.425172 
L 369.990524 173.758189 
L 378.472305 178.061669 
L 386.265159 182.261235 
L 393.293393 186.29745 
L 399.537129 190.134707 
L 405.077863 193.796319 
L 409.993876 197.307949 
L 414.345229 200.684963 
L 418.226209 203.97393 
L 421.708486 207.21357 
L 424.837053 210.425838 
L 427.657604 213.639 
L 430.206767 216.878437 
L 432.523642 220.181732 
L 434.631649 223.574862 
L 436.550296 227.084735 
L 438.304385 230.758832 
L 439.907049 234.63556 
L 441.369499 238.760753 
L 442.701353 243.190587 
L 443.385716 245.8 
L 443.385716 245.8 
" clip-path="url(#p51665b658a)" style="fill: none; stroke: #116329; stroke-width: 1.3; stroke-linecap: square"/>
   </g>
   <g id="patch_3">
    <path d="M 52.94 199.528 
L 52.94 24.72 
" style="fill: none; stroke: #000000; stroke-width: 0.8; stroke-linejoin: miter; stroke-linecap: square"/>
   </g>
   <g id="patch_4">
    <path d="M 450 199.528 
L 450 24.72 
" style="fill: none; stroke: #000000; stroke-width: 0.8; stroke-linejoin: miter; stroke-linecap: square"/>
   </g>
   <g id="patch_5">
    <path d="M 52.94 199.528 
L 450 199.528 
" style="fill: none; stroke: #000000; stroke-width: 0.8; stroke-linejoin: miter; stroke-linecap: square"/>
   </g>
   <g id="patch_6">
    <path d="M 52.94 24.72 
L 450 24.72 
" style="fill: none; stroke: #000000; stroke-width: 0.8; stroke-linejoin: miter; stroke-linecap: square"/>
   </g>
   <g id="text_12">
    <text style="font: 10px 'DejaVu Sans', 'Bitstream Vera Sans', 'Computer Modern Sans Serif', 'Lucida Grande', 'Verdana', 'Geneva', 'Lucid', 'Arial', 'Helvetica', 'Avant Garde', sans-serif; text-anchor: middle" x="251.47" y="18.72" transform="rotate(-0 251.47 18.72)">ts.fender_deville(t, m, l)</text>
   </g>
   <g id="legend_1">
    <g id="patch_7">
     <path d="M 58.54 195.528 
L 130.125 195.528 
Q 131.725 195.528 131.725 193.928 
L 131.725 159.5005 
Q 131.725 157.9005 130.125 157.9005 
L 58.54 157.9005 
Q 56.94 157.9005 56.94 159.5005 
L 56.94 193.928 
Q 56.94 195.528 58.54 195.528 
z
" style="fill: #ffffff; opacity: 0.8; stroke: #cccccc; stroke-linejoin: miter"/>
    </g>
    <g id="line2d_47">
     <path d="M 60.14 164.37925 
L 68.14 164.37925 
L 76.14 164.37925 
" style="fill: none; stroke: #1f6feb; stroke-width: 1.3; stroke-linecap: square"/>
    </g>
    <g id="text_13">
     <text style="font: 8px 'DejaVu Sans', 'Bitstream Vera Sans', 'Computer Modern Sans Serif', 'Lucida Grande', 'Verdana', 'Geneva', 'Lucid', 'Arial', 'Helvetica', 'Avant Garde', sans-serif; text-anchor: start" x="82.54" y="167.17925" transform="rotate(-0 82.54 167.17925)">t=m=l=0.5</text>
    </g>
    <g id="line2d_48">
     <path d="M 60.14 176.12175 
L 68.14 176.12175 
L 76.14 176.12175 
" style="fill: none; stroke: #cf222e; stroke-width: 1.3; stroke-linecap: square"/>
    </g>
    <g id="text_14">
     <text style="font: 8px 'DejaVu Sans', 'Bitstream Vera Sans', 'Computer Modern Sans Serif', 'Lucida Grande', 'Verdana', 'Geneva', 'Lucid', 'Arial', 'Helvetica', 'Avant Garde', sans-serif; text-anchor: start" x="82.54" y="178.92175" transform="rotate(-0 82.54 178.92175)">treble full</text>
    </g>
    <g id="line2d_49">
     <path d="M 60.14 187.86425 
L 68.14 187.86425 
L 76.14 187.86425 
" style="fill: none; stroke: #116329; stroke-width: 1.3; stroke-linecap: square"/>
    </g>
    <g id="text_15">
     <text style="font: 8px 'DejaVu Sans', 'Bitstream Vera Sans', 'Computer Modern Sans Serif', 'Lucida Grande', 'Verdana', 'Geneva', 'Lucid', 'Arial', 'Helvetica', 'Avant Garde', sans-serif; text-anchor: start" x="82.54" y="190.66425" transform="rotate(-0 82.54 190.66425)">bass full</text>
    </g>
   </g>
  </g>
 </g>
 <defs>
  <clipPath id="p51665b658a">
   <rect x="52.94" y="24.72" width="397.06" height="174.808"/>
  </clipPath>
 </defs>
</svg>
