<?xml version="1.0" encoding="utf-8" standalone="no"?>
<!DOCTYPE svg PUBLIC "-//W3C//DTD SVG 1.1//EN"
  "http://www.w3.org/Graphics/SVG/1.1/DTD/svg11.dtd">
<svg xmlns:xlink="http://www.w3.org/1999/xlink" width="460.8pt" height="244.8pt" viewBox="0 0 460.8 244.8" xmlns="http://www.w3.org/2000/svg" version="1.1">
 <metadata>
  <rdf:RDF xmlns:dc="http://purl.org/dc/elements/1.1/" xmlns:cc="http://creativecommons.org/ns#" xmlns:rdf="http://www.w3.org/1999/02/22-rdf-syntax-ns#">
   <cc:Work>
    <dc:type rdf:resource="http://purl.org/dc/dcmitype/StillImage"/>
    <dc:date>2026-08-26T16:37:12.069166</dc:date>
    <dc:format>image/svg+xml</dc:format>
    <dc:creator>
     <cc:Agent>
      <dc:title>Matplotlib v3.9.4, https://matplotlib.org/</dc:title>
     </cc:Agent>
    </dc:creator>
   </cc:Work>
  </rdf:RDF>
 </metadata>
 <defs>
  <style type="text/css">*{stroke-linejoin: round; stroke-linecap: butt}</style>
 </defs>
 <g id="figure_1">
  <g id="patch_1">
   <path d="M 0 244.8 
L 460.8 244.8 
L 460.8 0 
L 0 0 
z
" style="fill: #ffffff"/>
  </g>
  <g id="axes_1">
   <g id="patch_2">
    <path d="M 52.94 199.528 
L 450 199.528 
L 450 24.72 
L 52.94 24.72 
z
" style="fill: #ffffff"/>
   </g>
   <g id="matplotlib.axis_1">
    <g id="xtick_1">
     <g id="line2d_1">
      <path d="M 143.072086 199.528 
L 143.072086 24.72 
" clip-path="url(#p566652c490)" style="fill: none; stroke: #b0b0b0; stroke-opacity: 0.25; stroke-width: 0.8; stroke-linecap: square"/>
     </g>
     <g id="line2d_2">
      <defs>
       <path id="mec1cf72872" d="M 0 0 
L 0 3.5 
" style="stroke: #000000; stroke-width: 0.8"/>
      </defs>
      <g>
       <use xlink:href="#mec1cf72872" x="143.072086" y="199.528" style="stroke: #000000; stroke-width: 0.8"/>
      </g>
     </g>
     <g id="text_1">
      <!-- $\mathdefault{10^{2}}$ -->
      <g transform="translate(134.272086 214.126438)">
       <text>
        <tspan style="font: 10px 'DejaVu Sans'" x="0 6.362305" y="-0.9765625">10</tspan>
        <tspan style="font: 7px 'DejaVu Sans'" x="12.820312" y="-4.8046875">2</tspan>
       </text>
      </g>
     </g>
    </g>
    <g id="xtick_2">
     <g id="line2d_3">
      <path d="M 272.021949 199.528 
L 272.021949 24.72 
" clip-path="url(#p566652c490)" style="fill: none; stroke: #b0b0b0; stroke-opacity: 0.25; stroke-width: 0.8; stroke-linecap: square"/>
     </g>
     <g id="line2d_4">
      <g>
       <use xlink:href="#mec1cf72872" x="272.021949" y="199.528" style="stroke: #000000; stroke-width: 0.8"/>
      </g>
     </g>
     <g id="text_2">
      <!-- $\mathdefault{10^{3}}$ -->
      <g transform="translate(263.221949 214.126438)">
       <text>
        <tspan style="font: 10px 'DejaVu Sans'" x="0 6.362305" y="-0.9765625">10</tspan>
        <tspan style="font: 7px 'DejaVu Sans'" x="12.820312" y="-4.8046875">3</tspan>
       </text>
      </g>
     </g>
    </g>
    <g id="xtick_3">
     <g id="line2d_5">
      <path d="M 400.971812 199.528 
L 400.971812 24.72 
" clip-path="url(#p566652c490)" style="fill: none; stroke: #b0b0b0; stroke-opacity: 0.25; stroke-width: 0.8; stroke-linecap: square"/>
     </g>
     <g id="line2d_6">
      <g>
       <use xlink:href="#mec1cf72872" x="400.971812" y="199.528" style="stroke: #000000; stroke-width: 0.8"/>
      </g>
     </g>
     <g id="text_3">
      <!-- $\mathdefault{10^{4}}$ -->
      <g transform="translate(392.171812 214.126438)">
       <text>
        <tspan style="font: 10px 'DejaVu Sans'" x="0 6.362305" y="-0.06406250000000036">10</tspan>
        <tspan style="font: 7px 'DejaVu Sans'" x="12.820312" y="-3.8921875000000004">4</tspan>
       </text>
      </g>
     </g>
    </g>
    <g id="xtick_4">
     <g id="line2d_7">
      <defs>
       <path id="m8bac956742" d="M 0 0 
L 0 2 
" style="stroke: #000000; stroke-width: 0.6"/>
      </defs>
      <g>
       <use xlink:href="#m8bac956742" x="52.94" y="199.528" style="stroke: #000000; stroke-width: 0.6"/>
      </g>
     </g>
    </g>
    <g id="xtick_5">
     <g id="line2d_8">
      <g>
       <use xlink:href="#m8bac956742" x="75.646944" y="199.528" style="stroke: #000000; stroke-width: 0.6"/>
      </g>
     </g>
    </g>
    <g id="xtick_6">
     <g id="line2d_9">
      <g>
       <use xlink:href="#m8bac956742" x="91.757777" y="199.528" style="stroke: #000000; stroke-width: 0.6"/>
      </g>
     </g>
    </g>
    <g id="xtick_7">
     <g id="line2d_10">
      <g>
       <use xlink:href="#m8bac956742" x="104.25431" y="199.528" style="stroke: #000000; stroke-width: 0.6"/>
      </g>
     </g>
    </g>
    <g id="xtick_8">
     <g id="line2d_11">
      <g>
       <use xlink:href="#m8bac956742" x="114.46472" y="199.528" style="stroke: #000000; stroke-width: 0.6"/>
      </g>
     </g>
    </g>
    <g id="xtick_9">
     <g id="line2d_12">
      <g>
       <use xlink:href="#m8bac956742" x="123.0975" y="199.528" style="stroke: #000000; stroke-width: 0.6"/>
      </g>
     </g>
    </g>
    <g id="xtick_10">
     <g id="line2d_13">
      <g>
       <use xlink:href="#m8bac956742" x="130.575553" y="199.528" style="stroke: #000000; stroke-width: 0.6"/>
      </g>
     </g>
    </g>
    <g id="xtick_11">
     <g id="line2d_14">
      <g>
       <use xlink:href="#m8bac956742" x="137.171664" y="199.528" style="stroke: #000000; stroke-width: 0.6"/>
      </g>
     </g>
    </g>
    <g id="xtick_12">
     <g id="line2d_15">
      <g>
       <use xlink:href="#m8bac956742" x="181.889863" y="199.528" style="stroke: #000000; stroke-width: 0.6"/>
      </g>
     </g>
    </g>
    <g id="xtick_13">
     <g id="line2d_16">
      <g>
       <use xlink:href="#m8bac956742" x="204.596807" y="199.528" style="stroke: #000000; stroke-width: 0.6"/>
      </g>
     </g>
    </g>
    <g id="xtick_14">
     <g id="line2d_17">
      <g>
       <use xlink:href="#m8bac956742" x="220.70764" y="199.528" style="stroke: #000000; stroke-width: 0.6"/>
      </g>
     </g>
    </g>
    <g id="xtick_15">
     <g id="line2d_18">
      <g>
       <use xlink:href="#m8bac956742" x="233.204173" y="199.528" style="stroke: #000000; stroke-width: 0.6"/>
      </g>
     </g>
    </g>
    <g id="xtick_16">
     <g id="line2d_19">
      <g>
       <use xlink:href="#m8bac956742" x="243.414584" y="199.528" style="stroke: #000000; stroke-width: 0.6"/>
      </g>
     </g>
    </g>
    <g id="xtick_17">
     <g id="line2d_20">
      <g>
       <use xlink:href="#m8bac956742" x="252.047363" y="199.528" style="stroke: #000000; stroke-width: 0.6"/>
      </g>
     </g>
    </g>
    <g id="xtick_18">
     <g id="line2d_21">
      <g>
       <use xlink:href="#m8bac956742" x="259.525416" y="199.528" style="stroke: #000000; stroke-width: 0.6"/>
      </g>
     </g>
    </g>
    <g id="xtick_19">
     <g id="line2d_22">
      <g>
       <use xlink:href="#m8bac956742" x="266.121527" y="199.528" style="stroke: #000000; stroke-width: 0.6"/>
      </g>
     </g>
    </g>
    <g id="xtick_20">
     <g id="line2d_23">
      <g>
       <use xlink:href="#m8bac956742" x="310.839726" y="199.528" style="stroke: #000000; stroke-width: 0.6"/>
      </g>
     </g>
    </g>
    <g id="xtick_21">
     <g id="line2d_24">
      <g>
       <use xlink:href="#m8bac956742" x="333.54667" y="199.528" style="stroke: #000000; stroke-width: 0.6"/>
      </g>
     </g>
    </g>
    <g id="xtick_22">
     <g id="line2d_25">
      <g>
       <use xlink:href="#m8bac956742" x="349.657503" y="199.528" style="stroke: #000000; stroke-width: 0.6"/>
      </g>
     </g>
    </g>
    <g id="xtick_23">
     <g id="line2d_26">
      <g>
       <use xlink:href="#m8bac956742" x="362.154036" y="199.528" style="stroke: #000000; stroke-width: 0.6"/>
      </g>
     </g>
    </g>
    <g id="xtick_24">
     <g id="line2d_27">
      <g>
       <use xlink:href="#m8bac956742" x="372.364447" y="199.528" style="stroke: #000000; stroke-width: 0.6"/>
      </g>
     </g>
    </g>
    <g id="xtick_25">
     <g id="line2d_28">
      <g>
       <use xlink:href="#m8bac956742" x="380.997226" y="199.528" style="stroke: #000000; stroke-width: 0.6"/>
      </g>
     </g>
    </g>
    <g id="xtick_26">
     <g id="line2d_29">
      <g>
       <use xlink:href="#m8bac956742" x="388.47528" y="199.528" style="stroke: #000000; stroke-width: 0.6"/>
      </g>
     </g>
    </g>
    <g id="xtick_27">
     <g id="line2d_30">
      <g>
       <use xlink:href="#m8bac956742" x="395.07139" y="199.528" style="stroke: #000000; stroke-width: 0.6"/>
      </g>
     </g>
    </g>
    <g id="xtick_28">
     <g id="line2d_31">
      <g>
       <use xlink:href="#m8bac956742" x="439.789589" y="199.528" style="stroke: #000000; stroke-width: 0.6"/>
      </g>
     </g>
    </g>
    <g id="text_4">
     <text style="font: 10px 'DejaVu Sans', 'Bitstream Vera Sans', 'Computer Modern Sans Serif', 'Lucida Grande', 'Verdana', 'Geneva', 'Lucid', 'Arial', 'Helvetica', 'Avant Garde', sans-serif; text-anchor: middle" x="251.47" y="227.804563" transform="rotate(-0 251.47 227.804563)">Hz</text>
    </g>
   </g>
   <g id="matplotlib.axis_2">
    <g id="ytick_1">
     <g id="line2d_32">
      <path d="M 52.94 183.636364 
L 450 183.636364 
" clip-path="url(#p566652c490)" style="fill: none; stroke: #b0b0b0; stroke-opacity: 0.25; stroke-width: 0.8; stroke-linecap: square"/>
     </g>
     <g id="line2d_33">
      <defs>
       <path id="mc85e1b015c" d="M 0 0 
L -3.5 0 
" style="stroke: #000000; stroke-width: 0.8"/>
      </defs>
      <g>
       <use xlink:href="#mc85e1b015c" x="52.94" y="183.636364" style="stroke: #000000; stroke-width: 0.8"/>
      </g>
     </g>
     <g id="text_5">
      <text style="font: 10px 'DejaVu Sans', 'Bitstream Vera Sans', 'Computer Modern Sans Serif', 'Lucida Grande', 'Verdana', 'Geneva', 'Lucid', 'Arial', 'Helvetica', 'Avant Garde', sans-serif; text-anchor: end" x="45.94" y="187.435582" transform="rotate(-0 45.94 187.435582)">−40</text>
     </g>
    </g>
    <g id="ytick_2">
     <g id="line2d_34">
      <path d="M 52.94 151.853091 
L 450 151.853091 
" clip-path="url(#p566652c490)" style="fill: none; stroke: #b0b0b0; stroke-opacity: 0.25; stroke-width: 0.8; stroke-linecap: square"/>
     </g>
     <g id="line2d_35">
      <g>
       <use xlink:href="#mc85e1b015c" x="52.94" y="151.853091" style="stroke: #000000; stroke-width: 0.8"/>
      </g>
     </g>
     <g id="text_6">
      <text style="font: 10px 'DejaVu Sans', 'Bitstream Vera Sans', 'Computer Modern Sans Serif', 'Lucida Grande', 'Verdana', 'Geneva', 'Lucid', 'Arial', 'Helvetica', 'Avant Garde', sans-serif; text-anchor: end" x="45.94" y="155.65231" transform="rotate(-0 45.94 155.65231)">−30</text>
     </g>
    </g>
    <g id="ytick_3">
     <g id="line2d_36">
      <path d="M 52.94 120.069818 
L 450 120.069818 
" clip-path="url(#p566652c490)" style="fill: none; stroke: #b0b0b0; stroke-opacity: 0.25; stroke-width: 0.8; stroke-linecap: square"/>
     </g>
     <g id="line2d_37">
      <g>
       <use xlink:href="#mc85e1b015c" x="52.94" y="120.069818" style="stroke: #000000; stroke-width: 0.8"/>
      </g>
     </g>
     <g id="text_7">
      <text style="font: 10px 'DejaVu Sans', 'Bitstream Vera Sans', 'Computer Modern Sans Serif', 'Lucida Grande', 'Verdana', 'Geneva', 'Lucid', 'Arial', 'Helvetica', 'Avant Garde', sans-serif; text-anchor: end" x="45.94" y="123.869037" transform="rotate(-0 45.94 123.869037)">−20</text>
     </g>
    </g>
    <g id="ytick_4">
     <g id="line2d_38">
      <path d="M 52.94 88.286545 
L 450 88.286545 
" clip-path="url(#p566652c490)" style="fill: none; stroke: #b0b0b0; stroke-opacity: 0.25; stroke-width: 0.8; stroke-linecap: square"/>
     </g>
     <g id="line2d_39">
      <g>
       <use xlink:href="#mc85e1b015c" x="52.94" y="88.286545" style="stroke: #000000; stroke-width: 0.8"/>
      </g>
     </g>
     <g id="text_8">
      <text style="font: 10px 'DejaVu Sans', 'Bitstream Vera Sans', 'Computer Modern Sans Serif', 'Lucida Grande', 'Verdana', 'Geneva', 'Lucid', 'Arial', 'Helvetica', 'Avant Garde', sans-serif; text-anchor: end" x="45.94" y="92.085764" transform="rotate(-0 45.94 92.085764)">−10</text>
     </g>
    </g>
    <g id="ytick_5">
     <g id="line2d_40">
      <path d="M 52.94 56.503273 
L 450 56.503273 
" clip-path="url(#p566652c490)" style="fill: none; stroke: #b0b0b0; stroke-opacity: 0.25; stroke-width: 0.8; stroke-linecap: square"/>
     </g>
     <g id="line2d_41">
      <g>
       <use xlink:href="#mc85e1b015c" x="52.94" y="56.503273" style="stroke: #000000; stroke-width: 0.8"/>
      </g>
     </g>
     <g id="text_9">
      <text style="font: 10px 'DejaVu Sans', 'Bitstream Vera Sans', 'Computer Modern Sans Serif', 'Lucida Grande', 'Verdana', 'Geneva', 'Lucid', 'Arial', 'Helvetica', 'Avant Garde', sans-serif; text-anchor: end" x="45.94" y="60.302491" transform="rotate(-0 45.94 60.302491)">0</text>
     </g>
    </g>
    <g id="ytick_6">
     <g id="line2d_42">
      <path d="M 52.94 24.72 
L 450 24.72 
" clip-path="url(#p566652c490)" style="fill: none; stroke: #b0b0b0; stroke-opacity: 0.25; stroke-width: 0.8; stroke-linecap: square"/>
     </g>
     <g id="line2d_43">
      <g>
       <use xlink:href="#mc85e1b015c" x="52.94" y="24.72" style="stroke: #000000; stroke-width: 0.8"/>
      </g>
     </g>
     <g id="text_10">
      <text style="font: 10px 'DejaVu Sans', 'Bitstream Vera Sans', 'Computer Modern Sans Serif', 'Lucida Grande', 'Verdana', 'Geneva', 'Lucid', 'Arial', 'Helvetica', 'Avant Garde', sans-serif; text-anchor: end" x="45.94" y="28.519219" transform="rotate(-0 45.94 28.519219)">10</text>
     </g>
    </g>
    <g id="text_11">
     <text style="font: 10px 'DejaVu Sans', 'Bitstream Vera Sans', 'Computer Modern Sans Serif', 'Lucida Grande', 'Verdana', 'Geneva', 'Lucid', 'Arial', 'Helvetica', 'Avant Garde', sans-serif; text-anchor: middle" x="18.755625" y="112.124" transform="rotate(-90 18.755625 112.124)">dB</text>
    </g>
   </g>
   <g id="line2d_44">
    <path d="M -1 97.533844 
L 6.893623 93.879534 
L 23.004456 86.840512 
L 35.500989 81.76388 
L 45.7114 77.953557 
L 54.344179 75.022038 
L 61.822233 72.727801 
L 68.418344 70.909272 
L 74.318766 69.453308 
L 79.656347 68.27821 
L 89.011745 66.544458 
L 97.025709 65.382205 
L 104.035123 64.599565 
L 113.136542 63.891845 
L 120.963521 63.547827 
L 127.829522 63.439866 
L 135.843486 63.539504 
L 142.852899 63.827486 
L 150.536466 64.364626 
L 158.55043 65.18179 
L 165.559843 66.120405 
L 172.762701 67.308364 
L 179.998844 68.729777 
L 187.899558 70.531454 
L 196.109677 72.648288 
L 206.000986 75.441562 
L 224.461907 80.703874 
L 230.630191 82.203209 
L 235.873993 83.259386 
L 240.668552 83.999221 
L 245.084807 84.459443 
L 249.424278 84.688663 
L 253.679657 84.695125 
L 258.057058 84.484691 
L 262.894787 84.020253 
L 268.232368 83.271308 
L 274.53512 82.149856 
L 283.503042 80.303168 
L 301.905343 76.477005 
L 310.867064 74.874413 
L 319.370847 73.580308 
L 327.973428 72.498573 
L 336.993232 71.591263 
L 346.825248 70.830359 
L 357.870729 70.204638 
L 370.755555 69.704465 
L 386.605469 69.321279 
L 407.509557 69.051447 
L 437.822151 68.899864 
L 450 68.886178 
L 450 68.886178 
" clip-path="url(#p566652c490)" style="fill: none; stroke: #1f6feb; stroke-width: 1.3; stroke-linecap: square"/>
   </g>
   <g id="line2d_45">
    <path d="M -1 132.303209 
L 23.004456 120.69154 
L 45.7114 109.992825 
L 61.822233 102.71772 
L 74.318766 97.374278 
L 84.529177 93.283864 
L 93.161956 90.073393 
L 100.64001 87.512068 
L 107.23612 85.445486 
L 115.8689 83.043209 
L 123.346953 81.261329 
L 129.943064 79.932253 
L 135.843486 78.941399 
L 142.852899 78.010809 
L 149.081781 77.410129 
L 156.004436 76.994254 
L 162.16473 76.849966 
L 168.760841 76.937198 
L 174.661263 77.235204 
L 180.840998 77.781763 
L 186.406077 78.491531 
L 192.154937 79.454971 
L 197.368207 80.542091 
L 202.705788 81.873406 
L 208.094771 83.442004 
L 213.943791 85.381271 
L 221.710368 88.224727 
L 229.589873 91.060519 
L 233.313445 92.175756 
L 236.496246 92.901091 
L 239.213867 93.296258 
L 241.805692 93.442892 
L 244.282852 93.351357 
L 246.655065 93.044095 
L 249.178114 92.487144 
L 251.828176 91.667292 
L 254.8065 90.500583 
L 258.267198 88.893276 
L 262.894787 86.473993 
L 281.322632 76.569796 
L 287.00027 73.904485 
L 292.497434 71.567411 
L 298.020966 69.461248 
L 303.611126 67.568476 
L 309.371367 65.855272 
L 315.35594 64.311451 
L 321.580839 62.937877 
L 328.154372 61.716863 
L 335.216893 60.634522 
L 342.893654 59.687616 
L 351.340995 58.873727 
L 360.904206 58.181335 
L 371.980304 57.609212 
L 385.275086 57.153189 
L 402.071151 56.810007 
L 424.815621 56.581614 
L 450 56.503273 
L 450 56.503273 
" clip-path="url(#p566652c490)" style="fill: none; stroke: #cf222e; stroke-width: 1.3; stroke-linecap: square"/>
   </g>
   <g id="line2d_46">
    <path d="M -1 65.556698 
L 6.893623 63.742479 
L 23.004456 61.33178 
L 35.500989 60.06672 
L 45.7114 59.340307 
L 61.822233 58.615394 
L 74.318766 58.318119 
L 89.011745 58.195252 
L 104.035123 58.297428 
L 118.474124 58.634613 
L 129.943064 59.114095 
L 141.181067 59.823129 
L 150.536466 60.643172 
L 158.55043 61.547626 
L 166.647299 62.680993 
L 174.661263 64.045207 
L 182.488241 65.628102 
L 190.067656 67.404799 
L 197.368207 69.341289 
L 204.923987 71.567151 
L 213.010399 74.176784 
L 222.111819 77.355212 
L 232.654588 81.287527 
L 245.87544 86.473139 
L 268.056537 95.453221 
L 299.947024 108.574319 
L 315.507093 115.218993 
L 328.931778 121.193076 
L 341.677184 127.108548 
L 353.9842 133.065042 
L 365.477041 138.870655 
L 375.78529 144.321513 
L 384.751493 149.308697 
L 392.459221 153.844811 
L 399.097761 158.004258 
L 404.84869 161.86433 
L 409.882039 165.505647 
L 414.31938 168.986462 
L 418.250317 172.349365 
L 421.753786 175.636281 
L 424.890598 178.881307 
L 427.718698 182.125251 
L 430.274867 185.394969 
L 432.588983 188.715308 
L 434.694578 192.125304 
L 436.611106 195.652539 
L 438.363321 199.345368 
L 439.964323 203.243173 
L 441.425298 207.392922 
L 442.748061 211.824185 
L 443.948979 216.629441 
L 445.035117 221.902691 
L 446.01257 227.773694 
L 446.879371 234.369431 
L 447.63321 241.84603 
L 447.954154 245.8 
L 447.954154 245.8 
" clip-path="url(#p566652c490)" style="fill: none; stroke: #116329; stroke-width: 1.3; stroke-linecap: square"/>
   </g>
   <g id="patch_3">
    <path d="M 52.94 199.528 
L 52.94 24.72 
" style="fill: none; stroke: #000000; stroke-width: 0.8; stroke-linejoin: miter; stroke-linecap: square"/>
   </g>
   <g id="patch_4">
    <path d="M 450 199.528 
L 450 24.72 
" style="fill: none; stroke: #000000; stroke-width: 0.8; stroke-linejoin: miter; stroke-linecap: square"/>
   </g>
   <g id="patch_5">
    <path d="M 52.94 199.528 
L 450 199.528 
" style="fill: none; stroke: #000000; stroke-width: 0.8; stroke-linejoin: miter; stroke-linecap: square"/>
   </g>
   <g id="patch_6">
    <path d="M 52.94 24.72 
L 450 24.72 
" style="fill: none; stroke: #000000; stroke-width: 0.8; stroke-linejoin: miter; stroke-linecap: square"/>
   </g>
   <g id="text_12">
    <text style="font: 10px 'DejaVu Sans', 'Bitstream Vera Sans', 'Computer Modern Sans Serif', 'Lucida Grande', 'Verdana', 'Geneva', 'Lucid', 'Arial', 'Helvetica', 'Avant Garde', sans-serif; text-anchor: middle" x="251.47" y="18.72" transform="rotate(-0 251.47 18.72)">ts.jcm800(t, m, l)</text>
   </g>
   <g id="legend_1">
    <g id="patch_7">
     <path d="M 58.54 195.528 
L 130.125 195.528 
Q 131.725 195.528 131.725 193.928 
L 131.725 159.5005 
Q 131.725 157.9005 130.125 157.9005 
L 58.54 157.9005 
Q 56.94 157.9005 56.94 159.5005 
L 56.94 193.928 
Q 56.94 195.528 58.54 195.528 
z
" style="fill: #ffffff; opacity: 0.8; stroke: #cccccc; stroke-linejoin: miter"/>
    </g>
    <g id="line2d_47">
     <path d="M 60.14 164.37925 
L 68.14 164.37925 
L 76.14 164.37925 
" style="fill: none; stroke: #1f6feb; stroke-width: 1.3; stroke-linecap: square"/>
    </g>
    <g id="text_13">
     <text style="font: 8px 'DejaVu Sans', 'Bitstream Vera Sans', 'Computer Modern Sans Serif', 'Lucida Grande', 'Verdana', 'Geneva', 'Lucid', 'Arial', 'Helvetica', 'Avant Garde', sans-serif; text-anchor: start" x="82.54" y="167.17925" transform="rotate(-0 82.54 167.17925)">t=m=l=0.5</text>
    </g>
    <g id="line2d_48">
     <path d="M 60.14 176.12175 
L 68.14 176.12175 
L 76.14 176.12175 
" style="fill: none; stroke: #cf222e; stroke-width: 1.3; stroke-linecap: square"/>
    </g>
    <g id="text_14">
     <text style="font: 8px 'DejaVu Sans', 'Bitstream Vera Sans', 'Computer Modern Sans Serif', 'Lucida Grande', 'Verdana', 'Geneva', 'Lucid', 'Arial', 'Helvetica', 'Avant Garde', sans-serif; text-anchor: start" x="82.54" y="178.92175" transform="rotate(-0 82.54 178.92175)">treble full</text>
    </g>
    <g id="line2d_49">
     <path d="M 60.14 187.86425 
L 68.14 187.86425 
L 76.14 187.86425 
" style="fill: none; stroke: #116329; stroke-width: 1.3; stroke-linecap: square"/>
    </g>
    <g id="text_15">
     <text style="font: 8px 'DejaVu Sans', 'Bitstream Vera Sans', 'Computer Modern Sans Serif', 'Lucida Grande', 'Verdana', 'Geneva', 'Lucid', 'Arial', 'Helvetica', 'Avant Garde', sans-serif; text-anchor: start" x="82.54" y="190.66425" transform="rotate(-0 82.54 190.66425)">bass full</text>
    </g>
   </g>
  </g>
 </g>
 <defs>
  <clipPath id="p566652c490">
   <rect x="52.94" y="24.72" width="397.06" height="174.808"/>
  </clipPath>
 </defs>
</svg>
