<?xml version="1.0" encoding="utf-8" standalone="no"?>
<!DOCTYPE svg PUBLIC "-//W3C//DTD SVG 1.1//EN"
  "http://www.w3.org/Graphics/SVG/1.1/DTD/svg11.dtd">
<svg xmlns:xlink="http://www.w3.org/1999/xlink" width="648pt" height="230.4pt" viewBox="0 0 648 230.4" xmlns="http://www.w3.org/2000/svg" version="1.1">
 <metadata>
  <rdf:RDF xmlns:dc="http://purl.org/dc/elements/1.1/" xmlns:cc="http://creativecommons.org/ns#" xmlns:rdf="http://www.w3.org/1999/02/22-rdf-syntax-ns#">
   <cc:Work>
    <dc:type rdf:resource="http://purl.org/dc/dcmitype/StillImage"/>
    <dc:date>2026-08-26T16:37:32.857604</dc:date>
    <dc:format>image/svg+xml</dc:format>
    <dc:creator>
     <cc:Agent>
      <dc:title>Matplotlib v3.9.4, https://matplotlib.org/</dc:title>
     </cc:Agent>
    </dc:creator>
   </cc:Work>
  </rdf:RDF>
 </metadata>
 <defs>
  <style type="text/css">*{stroke-linejoin: round; stroke-linecap: butt}</style>
 </defs>
 <g id="figure_1">
  <g id="patch_1">
   <path d="M 0 230.4 
L 648 230.4 
L 648 0 
L 0 0 
z
" style="fill: #ffffff"/>
  </g>
  <g id="axes_1">
   <g id="patch_2">
    <path d="M 41.92 188.44 
L 309.94 188.44 
L 309.94 24.72 
L 41.92 24.72 
z
" style="fill: #ffffff"/>
   </g>
   <g id="matplotlib.axis_1">
    <g id="xtick_1">
     <g id="line2d_1">
      <path d="M 54.102727 188.44 
L 54.102727 24.72 
" clip-path="url(#pc1ed898e69)" style="fill: none; stroke: #b0b0b0; stroke-opacity: 0.25; stroke-width: 0.8; stroke-linecap: square"/>
     </g>
     <g id="line2d_2">
      <defs>
       <path id="m0422f144cc" d="M 0 0 
L 0 3.5 
" style="stroke: #000000; stroke-width: 0.8"/>
      </defs>
      <g>
       <use xlink:href="#m0422f144cc" x="54.102727" y="188.44" style="stroke: #000000; stroke-width: 0.8"/>
      </g>
     </g>
     <g id="text_1">
      <text style="font: 10px 'DejaVu Sans', 'Bitstream Vera Sans', 'Computer Modern Sans Serif', 'Lucida Grande', 'Verdana', 'Geneva', 'Lucid', 'Arial', 'Helvetica', 'Avant Garde', sans-serif; text-anchor: middle" x="54.102727" y="203.038437" transform="rotate(-0 54.102727 203.038437)">0</text>
     </g>
    </g>
    <g id="xtick_2">
     <g id="line2d_3">
      <path d="M 89.868532 188.44 
L 89.868532 24.72 
" clip-path="url(#pc1ed898e69)" style="fill: none; stroke: #b0b0b0; stroke-opacity: 0.25; stroke-width: 0.8; stroke-linecap: square"/>
     </g>
     <g id="line2d_4">
      <g>
       <use xlink:href="#m0422f144cc" x="89.868532" y="188.44" style="stroke: #000000; stroke-width: 0.8"/>
      </g>
     </g>
     <g id="text_2">
      <text style="font: 10px 'DejaVu Sans', 'Bitstream Vera Sans', 'Computer Modern Sans Serif', 'Lucida Grande', 'Verdana', 'Geneva', 'Lucid', 'Arial', 'Helvetica', 'Avant Garde', sans-serif; text-anchor: middle" x="89.868532" y="203.038437" transform="rotate(-0 89.868532 203.038437)">2</text>
     </g>
    </g>
    <g id="xtick_3">
     <g id="line2d_5">
      <path d="M 125.634337 188.44 
L 125.634337 24.72 
" clip-path="url(#pc1ed898e69)" style="fill: none; stroke: #b0b0b0; stroke-opacity: 0.25; stroke-width: 0.8; stroke-linecap: square"/>
     </g>
     <g id="line2d_6">
      <g>
       <use xlink:href="#m0422f144cc" x="125.634337" y="188.44" style="stroke: #000000; stroke-width: 0.8"/>
      </g>
     </g>
     <g id="text_3">
      <text style="font: 10px 'DejaVu Sans', 'Bitstream Vera Sans', 'Computer Modern Sans Serif', 'Lucida Grande', 'Verdana', 'Geneva', 'Lucid', 'Arial', 'Helvetica', 'Avant Garde', sans-serif; text-anchor: middle" x="125.634337" y="203.038437" transform="rotate(-0 125.634337 203.038437)">4</text>
     </g>
    </g>
    <g id="xtick_4">
     <g id="line2d_7">
      <path d="M 161.400142 188.44 
L 161.400142 24.72 
" clip-path="url(#pc1ed898e69)" style="fill: none; stroke: #b0b0b0; stroke-opacity: 0.25; stroke-width: 0.8; stroke-linecap: square"/>
     </g>
     <g id="line2d_8">
      <g>
       <use xlink:href="#m0422f144cc" x="161.400142" y="188.44" style="stroke: #000000; stroke-width: 0.8"/>
      </g>
     </g>
     <g id="text_4">
      <text style="font: 10px 'DejaVu Sans', 'Bitstream Vera Sans', 'Computer Modern Sans Serif', 'Lucida Grande', 'Verdana', 'Geneva', 'Lucid', 'Arial', 'Helvetica', 'Avant Garde', sans-serif; text-anchor: middle" x="161.400142" y="203.038437" transform="rotate(-0 161.400142 203.038437)">6</text>
     </g>
    </g>
    <g id="xtick_5">
     <g id="line2d_9">
      <path d="M 197.165947 188.44 
L 197.165947 24.72 
" clip-path="url(#pc1ed898e69)" style="fill: none; stroke: #b0b0b0; stroke-opacity: 0.25; stroke-width: 0.8; stroke-linecap: square"/>
     </g>
     <g id="line2d_10">
      <g>
       <use xlink:href="#m0422f144cc" x="197.165947" y="188.44" style="stroke: #000000; stroke-width: 0.8"/>
      </g>
     </g>
     <g id="text_5">
      <text style="font: 10px 'DejaVu Sans', 'Bitstream Vera Sans', 'Computer Modern Sans Serif', 'Lucida Grande', 'Verdana', 'Geneva', 'Lucid', 'Arial', 'Helvetica', 'Avant Garde', sans-serif; text-anchor: middle" x="197.165947" y="203.038437" transform="rotate(-0 197.165947 203.038437)">8</text>
     </g>
    </g>
    <g id="xtick_6">
     <g id="line2d_11">
      <path d="M 232.931751 188.44 
L 232.931751 24.72 
" clip-path="url(#pc1ed898e69)" style="fill: none; stroke: #b0b0b0; stroke-opacity: 0.25; stroke-width: 0.8; stroke-linecap: square"/>
     </g>
     <g id="line2d_12">
      <g>
       <use xlink:href="#m0422f144cc" x="232.931751" y="188.44" style="stroke: #000000; stroke-width: 0.8"/>
      </g>
     </g>
     <g id="text_6">
      <text style="font: 10px 'DejaVu Sans', 'Bitstream Vera Sans', 'Computer Modern Sans Serif', 'Lucida Grande', 'Verdana', 'Geneva', 'Lucid', 'Arial', 'Helvetica', 'Avant Garde', sans-serif; text-anchor: middle" x="232.931751" y="203.038437" transform="rotate(-0 232.931751 203.038437)">10</text>
     </g>
    </g>
    <g id="xtick_7">
     <g id="line2d_13">
      <path d="M 268.697556 188.44 
L 268.697556 24.72 
" clip-path="url(#pc1ed898e69)" style="fill: none; stroke: #b0b0b0; stroke-opacity: 0.25; stroke-width: 0.8; stroke-linecap: square"/>
     </g>
     <g id="line2d_14">
      <g>
       <use xlink:href="#m0422f144cc" x="268.697556" y="188.44" style="stroke: #000000; stroke-width: 0.8"/>
      </g>
     </g>
     <g id="text_7">
      <text style="font: 10px 'DejaVu Sans', 'Bitstream Vera Sans', 'Computer Modern Sans Serif', 'Lucida Grande', 'Verdana', 'Geneva', 'Lucid', 'Arial', 'Helvetica', 'Avant Garde', sans-serif; text-anchor: middle" x="268.697556" y="203.038437" transform="rotate(-0 268.697556 203.038437)">12</text>
     </g>
    </g>
    <g id="xtick_8">
     <g id="line2d_15">
      <path d="M 304.463361 188.44 
L 304.463361 24.72 
" clip-path="url(#pc1ed898e69)" style="fill: none; stroke: #b0b0b0; stroke-opacity: 0.25; stroke-width: 0.8; stroke-linecap: square"/>
     </g>
     <g id="line2d_16">
      <g>
       <use xlink:href="#m0422f144cc" x="304.463361" y="188.44" style="stroke: #000000; stroke-width: 0.8"/>
      </g>
     </g>
     <g id="text_8">
      <text style="font: 10px 'DejaVu Sans', 'Bitstream Vera Sans', 'Computer Modern Sans Serif', 'Lucida Grande', 'Verdana', 'Geneva', 'Lucid', 'Arial', 'Helvetica', 'Avant Garde', sans-serif; text-anchor: middle" x="304.463361" y="203.038437" transform="rotate(-0 304.463361 203.038437)">14</text>
     </g>
    </g>
    <g id="text_9">
     <text style="font: 10px 'DejaVu Sans', 'Bitstream Vera Sans', 'Computer Modern Sans Serif', 'Lucida Grande', 'Verdana', 'Geneva', 'Lucid', 'Arial', 'Helvetica', 'Avant Garde', sans-serif; text-anchor: middle" x="175.93" y="216.716562" transform="rotate(-0 175.93 216.716562)">ms</text>
    </g>
   </g>
   <g id="matplotlib.axis_2">
    <g id="ytick_1">
     <g id="line2d_17">
      <path d="M 41.92 175.792359 
L 309.94 175.792359 
" clip-path="url(#pc1ed898e69)" style="fill: none; stroke: #b0b0b0; stroke-opacity: 0.25; stroke-width: 0.8; stroke-linecap: square"/>
     </g>
     <g id="line2d_18">
      <defs>
       <path id="mf77341fdd5" d="M 0 0 
L -3.5 0 
" style="stroke: #000000; stroke-width: 0.8"/>
      </defs>
      <g>
       <use xlink:href="#mf77341fdd5" x="41.92" y="175.792359" style="stroke: #000000; stroke-width: 0.8"/>
      </g>
     </g>
     <g id="text_10">
      <text style="font: 10px 'DejaVu Sans', 'Bitstream Vera Sans', 'Computer Modern Sans Serif', 'Lucida Grande', 'Verdana', 'Geneva', 'Lucid', 'Arial', 'Helvetica', 'Avant Garde', sans-serif; text-anchor: end" x="34.92" y="179.591577" transform="rotate(-0 34.92 179.591577)">−0.4</text>
     </g>
    </g>
    <g id="ytick_2">
     <g id="line2d_19">
      <path d="M 41.92 140.381176 
L 309.94 140.381176 
" clip-path="url(#pc1ed898e69)" style="fill: none; stroke: #b0b0b0; stroke-opacity: 0.25; stroke-width: 0.8; stroke-linecap: square"/>
     </g>
     <g id="line2d_20">
      <g>
       <use xlink:href="#mf77341fdd5" x="41.92" y="140.381176" style="stroke: #000000; stroke-width: 0.8"/>
      </g>
     </g>
     <g id="text_11">
      <text style="font: 10px 'DejaVu Sans', 'Bitstream Vera Sans', 'Computer Modern Sans Serif', 'Lucida Grande', 'Verdana', 'Geneva', 'Lucid', 'Arial', 'Helvetica', 'Avant Garde', sans-serif; text-anchor: end" x="34.92" y="144.180395" transform="rotate(-0 34.92 144.180395)">−0.2</text>
     </g>
    </g>
    <g id="ytick_3">
     <g id="line2d_21">
      <path d="M 41.92 104.969993 
L 309.94 104.969993 
" clip-path="url(#pc1ed898e69)" style="fill: none; stroke: #b0b0b0; stroke-opacity: 0.25; stroke-width: 0.8; stroke-linecap: square"/>
     </g>
     <g id="line2d_22">
      <g>
       <use xlink:href="#mf77341fdd5" x="41.92" y="104.969993" style="stroke: #000000; stroke-width: 0.8"/>
      </g>
     </g>
     <g id="text_12">
      <text style="font: 10px 'DejaVu Sans', 'Bitstream Vera Sans', 'Computer Modern Sans Serif', 'Lucida Grande', 'Verdana', 'Geneva', 'Lucid', 'Arial', 'Helvetica', 'Avant Garde', sans-serif; text-anchor: end" x="34.92" y="108.769212" transform="rotate(-0 34.92 108.769212)">0.0</text>
     </g>
    </g>
    <g id="ytick_4">
     <g id="line2d_23">
      <path d="M 41.92 69.558811 
L 309.94 69.558811 
" clip-path="url(#pc1ed898e69)" style="fill: none; stroke: #b0b0b0; stroke-opacity: 0.25; stroke-width: 0.8; stroke-linecap: square"/>
     </g>
     <g id="line2d_24">
      <g>
       <use xlink:href="#mf77341fdd5" x="41.92" y="69.558811" style="stroke: #000000; stroke-width: 0.8"/>
      </g>
     </g>
     <g id="text_13">
      <text style="font: 10px 'DejaVu Sans', 'Bitstream Vera Sans', 'Computer Modern Sans Serif', 'Lucida Grande', 'Verdana', 'Geneva', 'Lucid', 'Arial', 'Helvetica', 'Avant Garde', sans-serif; text-anchor: end" x="34.92" y="73.35803" transform="rotate(-0 34.92 73.35803)">0.2</text>
     </g>
    </g>
    <g id="ytick_5">
     <g id="line2d_25">
      <path d="M 41.92 34.147628 
L 309.94 34.147628 
" clip-path="url(#pc1ed898e69)" style="fill: none; stroke: #b0b0b0; stroke-opacity: 0.25; stroke-width: 0.8; stroke-linecap: square"/>
     </g>
     <g id="line2d_26">
      <g>
       <use xlink:href="#mf77341fdd5" x="41.92" y="34.147628" style="stroke: #000000; stroke-width: 0.8"/>
      </g>
     </g>
     <g id="text_14">
      <text style="font: 10px 'DejaVu Sans', 'Bitstream Vera Sans', 'Computer Modern Sans Serif', 'Lucida Grande', 'Verdana', 'Geneva', 'Lucid', 'Arial', 'Helvetica', 'Avant Garde', sans-serif; text-anchor: end" x="34.92" y="37.946847" transform="rotate(-0 34.92 37.946847)">0.4</text>
     </g>
    </g>
   </g>
   <g id="line2d_27">
    <path d="M 54.102727 136.689808 
L 54.475288 138.392946 
L 54.847848 141.011853 
L 56.33809 147.771928 
L 56.710651 150.383126 
L 58.573453 158.737352 
L 58.946013 159.458832 
L 60.063695 164.431394 
L 60.436255 165.136284 
L 61.181376 168.434281 
L 61.553937 169.127584 
L 61.926497 170.771174 
L 62.671618 172.142566 
L 63.044178 173.78137 
L 66.397223 179.819958 
L 66.769783 179.516839 
L 67.142344 180.180144 
L 67.514904 179.875569 
L 67.887465 180.538356 
L 68.260025 180.23233 
L 68.632585 180.894606 
L 71.613069 178.469429 
L 71.98563 177.20471 
L 72.730751 176.62084 
L 73.103311 175.364548 
L 73.475872 175.07947 
L 74.220992 172.587227 
L 74.593553 172.313399 
L 76.828916 164.985687 
L 77.201476 162.828091 
L 77.946597 160.453465 
L 78.319158 158.321661 
L 79.064279 155.990868 
L 79.809399 151.790464 
L 80.18196 150.654247 
L 80.927081 146.515443 
L 81.299641 145.405207 
L 87.633169 110.445518 
L 88.00573 107.702038 
L 88.750851 104.071678 
L 89.123411 101.37321 
L 89.868532 97.819548 
L 90.241093 95.165592 
L 90.613653 93.421257 
L 90.986214 90.798819 
L 91.731334 87.374405 
L 92.103895 84.795648 
L 92.849016 81.445299 
L 93.221576 78.909755 
L 93.966697 75.632543 
L 94.339258 73.139754 
L 95.084379 69.934763 
L 95.456939 67.484287 
L 97.319741 59.725002 
L 97.692302 57.351679 
L 98.809983 52.860197 
L 99.182544 52.226405 
L 100.672786 46.391086 
L 101.045346 45.791803 
L 101.790467 42.940118 
L 102.163028 42.359435 
L 102.535588 40.952003 
L 102.908148 40.382159 
L 103.280709 38.988303 
L 104.39839 37.320541 
L 104.770951 35.948378 
L 106.261193 33.798496 
L 106.633753 34.086713 
L 107.751435 32.503309 
L 108.123995 32.796777 
L 108.496555 32.273921 
L 109.241676 32.861516 
L 109.614237 32.339336 
L 112.594721 34.659301 
L 112.967281 35.758233 
L 113.712402 36.317671 
L 114.457523 38.500485 
L 114.830083 38.769669 
L 118.555688 49.466465 
L 118.928249 51.344794 
L 119.300809 52.39013 
L 119.673369 54.262189 
L 120.04593 55.298497 
L 120.791051 59.026333 
L 121.163611 60.047971 
L 122.281293 65.604125 
L 122.653853 66.605596 
L 124.144095 73.951958 
L 124.516656 76.631368 
L 126.379458 85.703925 
L 126.752018 88.371554 
L 127.497139 91.96435 
L 127.8697 94.625867 
L 128.614821 98.193697 
L 128.987381 100.849207 
L 129.359942 102.622513 
L 129.732502 105.273805 
L 130.477623 108.799378 
L 130.850183 111.444851 
L 131.222744 113.197187 
L 131.595304 115.838558 
L 131.967865 117.582239 
L 132.340425 120.219561 
L 133.085546 123.686346 
L 133.458107 126.31814 
L 133.830667 128.041318 
L 134.203228 130.669193 
L 134.948349 134.095316 
L 135.320909 136.717891 
L 136.43859 141.817277 
L 136.811151 144.433316 
L 140.909316 162.832708 
L 141.281877 163.542221 
L 142.026997 166.845721 
L 142.399558 167.543604 
L 142.772118 169.189901 
L 143.144679 169.881072 
L 143.517239 171.523464 
L 143.8898 172.207965 
L 144.26236 173.846506 
L 147.615405 179.882756 
L 147.987965 179.579384 
L 148.360525 180.24244 
L 148.733086 179.937607 
L 149.105646 180.600146 
L 149.478207 180.293867 
L 149.850767 180.9559 
L 153.203812 178.230871 
L 153.576372 176.967122 
L 153.948932 176.675554 
L 154.321493 175.41904 
L 154.694053 175.133741 
L 155.439174 172.641059 
L 155.811735 172.367015 
L 158.419658 163.837018 
L 158.792219 161.685933 
L 159.537339 159.322393 
L 159.9099 157.197021 
L 160.28246 156.034279 
L 160.655021 153.927782 
L 161.027581 152.78106 
L 161.772702 148.617685 
L 162.145263 147.49709 
L 165.870867 127.46077 
L 166.988549 121.677769 
L 167.361109 118.855848 
L 168.478791 113.226248 
L 168.851351 110.463274 
L 169.596472 106.799644 
L 169.969033 104.081901 
L 170.341593 102.28318 
L 170.714153 99.597439 
L 171.459274 96.065427 
L 171.831835 93.424057 
L 172.576956 89.967479 
L 172.949516 87.369995 
L 173.322077 85.673679 
L 173.694637 83.107294 
L 174.439758 79.777895 
L 174.812319 77.254591 
L 175.55744 73.998063 
L 175.93 71.517389 
L 177.047681 66.755707 
L 177.420242 64.329108 
L 181.145847 49.255298 
L 181.518407 47.801436 
L 181.890967 47.194587 
L 182.636088 44.324174 
L 183.008649 43.736036 
L 183.75377 40.912058 
L 184.498891 39.775921 
L 184.871451 38.386377 
L 186.361693 36.182435 
L 186.734254 34.818604 
L 187.106814 34.282895 
L 187.479374 34.569155 
L 188.597056 32.977123 
L 188.969616 33.26867 
L 189.714737 32.220331 
L 190.459858 32.808364 
L 190.832419 32.286395 
L 193.812902 34.608049 
L 194.185463 35.707191 
L 194.930584 36.267042 
L 195.303144 37.360401 
L 195.675705 37.634197 
L 196.793386 40.89006 
L 197.165947 41.149562 
L 198.283628 44.371248 
L 198.656188 46.26091 
L 199.77387 49.434658 
L 200.14643 51.313118 
L 200.891551 53.40074 
L 201.636672 57.136517 
L 202.009233 58.163965 
L 202.754354 61.87972 
L 203.126914 62.892581 
L 206.479958 79.405921 
L 206.852519 82.079788 
L 207.9702 87.501352 
L 208.342761 90.167202 
L 209.087882 93.752798 
L 209.460442 96.412566 
L 210.205563 99.97326 
L 210.578123 102.627051 
L 210.950684 104.396815 
L 211.323244 107.046407 
L 212.068365 110.564949 
L 212.440926 113.208756 
L 212.813486 114.957604 
L 213.186047 117.597329 
L 213.558607 119.337543 
L 213.931168 121.973238 
L 214.676289 125.433146 
L 215.048849 128.063351 
L 215.42141 129.78312 
L 215.79397 132.409431 
L 216.539091 135.828794 
L 216.911651 138.449841 
L 218.401893 145.22929 
L 218.774454 147.842522 
L 221.754937 161.210088 
L 222.127498 161.924323 
L 223.245179 166.883619 
L 223.61774 167.581348 
L 223.9903 169.227492 
L 224.362861 169.91851 
L 224.735421 171.560749 
L 225.480542 172.927615 
L 225.853103 174.565099 
L 228.461026 179.258746 
L 228.833586 178.957902 
L 229.578707 180.285414 
L 229.951268 179.980411 
L 230.323828 180.642776 
L 230.696389 180.336323 
L 231.068949 180.998182 
L 234.421993 178.271638 
L 234.794554 177.007726 
L 235.167114 176.715995 
L 235.539675 175.459312 
L 235.912235 175.173854 
L 236.284796 173.924353 
L 236.657356 173.645111 
L 240.0104 162.676397 
L 240.382961 160.531871 
L 241.128082 158.179512 
L 241.500642 156.06062 
L 241.873203 154.903408 
L 242.618324 150.715494 
L 242.990884 149.584554 
L 244.108565 143.412907 
L 244.481126 142.318005 
L 246.716489 130.333852 
L 247.089049 127.452114 
L 248.951852 117.871166 
L 249.324412 115.075652 
L 250.069533 111.356481 
L 250.442093 108.606567 
L 251.187214 104.965246 
L 251.559775 102.260417 
L 251.932335 100.472729 
L 252.304896 97.799803 
L 253.050017 94.289616 
L 253.422577 91.660922 
L 254.167698 88.22589 
L 254.540259 85.640942 
L 254.912819 83.955287 
L 255.285379 81.401347 
L 256.0305 78.093037 
L 256.403061 75.582048 
L 257.148182 72.346347 
L 257.520742 69.877857 
L 259.010984 63.590091 
L 259.383545 61.187327 
L 262.364028 49.208562 
L 262.736589 48.594173 
L 263.85427 44.274822 
L 264.226831 43.686884 
L 264.599391 42.27037 
L 264.971952 41.693329 
L 265.344512 40.29045 
L 266.089633 39.161194 
L 266.462193 37.775997 
L 269.815238 32.917897 
L 270.187798 33.209682 
L 270.932919 32.161818 
L 271.67804 32.750326 
L 272.050601 32.228589 
L 275.403645 34.837262 
L 275.776205 35.935476 
L 276.148766 36.215045 
L 276.521326 37.308615 
L 276.893887 37.582623 
L 277.639008 39.757078 
L 278.011568 40.021171 
L 279.87437 45.391646 
L 280.246931 47.27904 
L 281.364612 50.443247 
L 281.737173 52.319475 
L 282.109733 53.361793 
L 282.482294 55.231774 
L 282.854854 56.265079 
L 283.599975 59.988799 
L 283.972535 61.007469 
L 288.443261 83.004655 
L 288.815822 85.67496 
L 289.560942 89.278577 
L 289.933503 91.942728 
L 290.678624 95.521283 
L 291.051184 98.17938 
L 291.796305 101.733096 
L 292.168866 104.385247 
L 292.541426 106.151548 
L 292.913987 108.799519 
L 293.659108 112.311188 
L 294.031668 114.953406 
L 294.404229 116.698844 
L 294.776789 119.337001 
L 295.149349 121.073824 
L 295.52191 123.707972 
L 296.267031 127.161155 
L 296.639591 129.789851 
L 297.384712 133.21943 
L 297.757273 135.842804 
L 297.757273 135.842804 
" clip-path="url(#pc1ed898e69)" style="fill: none; stroke: #1f6feb; stroke-width: 1.2; stroke-linecap: square"/>
   </g>
   <g id="patch_3">
    <path d="M 41.92 188.44 
L 41.92 24.72 
" style="fill: none; stroke: #000000; stroke-width: 0.8; stroke-linejoin: miter; stroke-linecap: square"/>
   </g>
   <g id="patch_4">
    <path d="M 309.94 188.44 
L 309.94 24.72 
" style="fill: none; stroke: #000000; stroke-width: 0.8; stroke-linejoin: miter; stroke-linecap: square"/>
   </g>
   <g id="patch_5">
    <path d="M 41.92 188.44 
L 309.94 188.44 
" style="fill: none; stroke: #000000; stroke-width: 0.8; stroke-linejoin: miter; stroke-linecap: square"/>
   </g>
   <g id="patch_6">
    <path d="M 41.92 24.72 
L 309.94 24.72 
" style="fill: none; stroke: #000000; stroke-width: 0.8; stroke-linejoin: miter; stroke-linecap: square"/>
   </g>
   <g id="text_15">
    <text style="font: 10px 'DejaVu Sans', 'Bitstream Vera Sans', 'Computer Modern Sans Serif', 'Lucida Grande', 'Verdana', 'Geneva', 'Lucid', 'Arial', 'Helvetica', 'Avant Garde', sans-serif; text-anchor: middle" x="175.93" y="18.72" transform="rotate(-0 175.93 18.72)">tu.T1_6V6 — output, 0.5 * osc(220)</text>
   </g>
  </g>
  <g id="axes_2">
   <g id="patch_7">
    <path d="M 369.18 188.44 
L 637.2 188.44 
L 637.2 24.72 
L 369.18 24.72 
z
" style="fill: #ffffff"/>
   </g>
   <g id="matplotlib.axis_3">
    <g id="xtick_9">
     <g id="line2d_28">
      <path d="M 409.554162 188.44 
L 409.554162 24.72 
" clip-path="url(#p611d1325cf)" style="fill: none; stroke: #b0b0b0; stroke-opacity: 0.25; stroke-width: 0.8; stroke-linecap: square"/>
     </g>
     <g id="line2d_29">
      <g>
       <use xlink:href="#m0422f144cc" x="409.554162" y="188.44" style="stroke: #000000; stroke-width: 0.8"/>
      </g>
     </g>
     <g id="text_16">
      <text style="font: 10px 'DejaVu Sans', 'Bitstream Vera Sans', 'Computer Modern Sans Serif', 'Lucida Grande', 'Verdana', 'Geneva', 'Lucid', 'Arial', 'Helvetica', 'Avant Garde', sans-serif; text-anchor: middle" x="409.554162" y="203.038437" transform="rotate(-0 409.554162 203.038437)">500</text>
     </g>
    </g>
    <g id="xtick_10">
     <g id="line2d_30">
      <path d="M 459.896011 188.44 
L 459.896011 24.72 
" clip-path="url(#p611d1325cf)" style="fill: none; stroke: #b0b0b0; stroke-opacity: 0.25; stroke-width: 0.8; stroke-linecap: square"/>
     </g>
     <g id="line2d_31">
      <g>
       <use xlink:href="#m0422f144cc" x="459.896011" y="188.44" style="stroke: #000000; stroke-width: 0.8"/>
      </g>
     </g>
     <g id="text_17">
      <text style="font: 10px 'DejaVu Sans', 'Bitstream Vera Sans', 'Computer Modern Sans Serif', 'Lucida Grande', 'Verdana', 'Geneva', 'Lucid', 'Arial', 'Helvetica', 'Avant Garde', sans-serif; text-anchor: middle" x="459.896011" y="203.038437" transform="rotate(-0 459.896011 203.038437)">1000</text>
     </g>
    </g>
    <g id="xtick_11">
     <g id="line2d_32">
      <path d="M 510.237859 188.44 
L 510.237859 24.72 
" clip-path="url(#p611d1325cf)" style="fill: none; stroke: #b0b0b0; stroke-opacity: 0.25; stroke-width: 0.8; stroke-linecap: square"/>
     </g>
     <g id="line2d_33">
      <g>
       <use xlink:href="#m0422f144cc" x="510.237859" y="188.44" style="stroke: #000000; stroke-width: 0.8"/>
      </g>
     </g>
     <g id="text_18">
      <text style="font: 10px 'DejaVu Sans', 'Bitstream Vera Sans', 'Computer Modern Sans Serif', 'Lucida Grande', 'Verdana', 'Geneva', 'Lucid', 'Arial', 'Helvetica', 'Avant Garde', sans-serif; text-anchor: middle" x="510.237859" y="203.038437" transform="rotate(-0 510.237859 203.038437)">1500</text>
     </g>
    </g>
    <g id="xtick_12">
     <g id="line2d_34">
      <path d="M 560.579707 188.44 
L 560.579707 24.72 
" clip-path="url(#p611d1325cf)" style="fill: none; stroke: #b0b0b0; stroke-opacity: 0.25; stroke-width: 0.8; stroke-linecap: square"/>
     </g>
     <g id="line2d_35">
      <g>
       <use xlink:href="#m0422f144cc" x="560.579707" y="188.44" style="stroke: #000000; stroke-width: 0.8"/>
      </g>
     </g>
     <g id="text_19">
      <text style="font: 10px 'DejaVu Sans', 'Bitstream Vera Sans', 'Computer Modern Sans Serif', 'Lucida Grande', 'Verdana', 'Geneva', 'Lucid', 'Arial', 'Helvetica', 'Avant Garde', sans-serif; text-anchor: middle" x="560.579707" y="203.038437" transform="rotate(-0 560.579707 203.038437)">2000</text>
     </g>
    </g>
    <g id="xtick_13">
     <g id="line2d_36">
      <path d="M 610.921555 188.44 
L 610.921555 24.72 
" clip-path="url(#p611d1325cf)" style="fill: none; stroke: #b0b0b0; stroke-opacity: 0.25; stroke-width: 0.8; stroke-linecap: square"/>
     </g>
     <g id="line2d_37">
      <g>
       <use xlink:href="#m0422f144cc" x="610.921555" y="188.44" style="stroke: #000000; stroke-width: 0.8"/>
      </g>
     </g>
     <g id="text_20">
      <text style="font: 10px 'DejaVu Sans', 'Bitstream Vera Sans', 'Computer Modern Sans Serif', 'Lucida Grande', 'Verdana', 'Geneva', 'Lucid', 'Arial', 'Helvetica', 'Avant Garde', sans-serif; text-anchor: middle" x="610.921555" y="203.038437" transform="rotate(-0 610.921555 203.038437)">2500</text>
     </g>
    </g>
    <g id="text_21">
     <text style="font: 10px 'DejaVu Sans', 'Bitstream Vera Sans', 'Computer Modern Sans Serif', 'Lucida Grande', 'Verdana', 'Geneva', 'Lucid', 'Arial', 'Helvetica', 'Avant Garde', sans-serif; text-anchor: middle" x="503.19" y="216.716562" transform="rotate(-0 503.19 216.716562)">Hz</text>
    </g>
   </g>
   <g id="matplotlib.axis_4">
    <g id="ytick_6">
     <g id="line2d_38">
      <path d="M 369.18 188.44 
L 637.2 188.44 
" clip-path="url(#p611d1325cf)" style="fill: none; stroke: #b0b0b0; stroke-opacity: 0.25; stroke-width: 0.8; stroke-linecap: square"/>
     </g>
     <g id="line2d_39">
      <g>
       <use xlink:href="#mf77341fdd5" x="369.18" y="188.44" style="stroke: #000000; stroke-width: 0.8"/>
      </g>
     </g>
     <g id="text_22">
      <text style="font: 10px 'DejaVu Sans', 'Bitstream Vera Sans', 'Computer Modern Sans Serif', 'Lucida Grande', 'Verdana', 'Geneva', 'Lucid', 'Arial', 'Helvetica', 'Avant Garde', sans-serif; text-anchor: end" x="362.18" y="192.239219" transform="rotate(-0 362.18 192.239219)">−100</text>
     </g>
    </g>
    <g id="ytick_7">
     <g id="line2d_40">
      <path d="M 369.18 157.255238 
L 637.2 157.255238 
" clip-path="url(#p611d1325cf)" style="fill: none; stroke: #b0b0b0; stroke-opacity: 0.25; stroke-width: 0.8; stroke-linecap: square"/>
     </g>
     <g id="line2d_41">
      <g>
       <use xlink:href="#mf77341fdd5" x="369.18" y="157.255238" style="stroke: #000000; stroke-width: 0.8"/>
      </g>
     </g>
     <g id="text_23">
      <text style="font: 10px 'DejaVu Sans', 'Bitstream Vera Sans', 'Computer Modern Sans Serif', 'Lucida Grande', 'Verdana', 'Geneva', 'Lucid', 'Arial', 'Helvetica', 'Avant Garde', sans-serif; text-anchor: end" x="362.18" y="161.054457" transform="rotate(-0 362.18 161.054457)">−80</text>
     </g>
    </g>
    <g id="ytick_8">
     <g id="line2d_42">
      <path d="M 369.18 126.070476 
L 637.2 126.070476 
" clip-path="url(#p611d1325cf)" style="fill: none; stroke: #b0b0b0; stroke-opacity: 0.25; stroke-width: 0.8; stroke-linecap: square"/>
     </g>
     <g id="line2d_43">
      <g>
       <use xlink:href="#mf77341fdd5" x="369.18" y="126.070476" style="stroke: #000000; stroke-width: 0.8"/>
      </g>
     </g>
     <g id="text_24">
      <text style="font: 10px 'DejaVu Sans', 'Bitstream Vera Sans', 'Computer Modern Sans Serif', 'Lucida Grande', 'Verdana', 'Geneva', 'Lucid', 'Arial', 'Helvetica', 'Avant Garde', sans-serif; text-anchor: end" x="362.18" y="129.869695" transform="rotate(-0 362.18 129.869695)">−60</text>
     </g>
    </g>
    <g id="ytick_9">
     <g id="line2d_44">
      <path d="M 369.18 94.885714 
L 637.2 94.885714 
" clip-path="url(#p611d1325cf)" style="fill: none; stroke: #b0b0b0; stroke-opacity: 0.25; stroke-width: 0.8; stroke-linecap: square"/>
     </g>
     <g id="line2d_45">
      <g>
       <use xlink:href="#mf77341fdd5" x="369.18" y="94.885714" style="stroke: #000000; stroke-width: 0.8"/>
      </g>
     </g>
     <g id="text_25">
      <text style="font: 10px 'DejaVu Sans', 'Bitstream Vera Sans', 'Computer Modern Sans Serif', 'Lucida Grande', 'Verdana', 'Geneva', 'Lucid', 'Arial', 'Helvetica', 'Avant Garde', sans-serif; text-anchor: end" x="362.18" y="98.684933" transform="rotate(-0 362.18 98.684933)">−40</text>
     </g>
    </g>
    <g id="ytick_10">
     <g id="line2d_46">
      <path d="M 369.18 63.700952 
L 637.2 63.700952 
" clip-path="url(#p611d1325cf)" style="fill: none; stroke: #b0b0b0; stroke-opacity: 0.25; stroke-width: 0.8; stroke-linecap: square"/>
     </g>
     <g id="line2d_47">
      <g>
       <use xlink:href="#mf77341fdd5" x="369.18" y="63.700952" style="stroke: #000000; stroke-width: 0.8"/>
      </g>
     </g>
     <g id="text_26">
      <text style="font: 10px 'DejaVu Sans', 'Bitstream Vera Sans', 'Computer Modern Sans Serif', 'Lucida Grande', 'Verdana', 'Geneva', 'Lucid', 'Arial', 'Helvetica', 'Avant Garde', sans-serif; text-anchor: end" x="362.18" y="67.500171" transform="rotate(-0 362.18 67.500171)">−20</text>
     </g>
    </g>
    <g id="ytick_11">
     <g id="line2d_48">
      <path d="M 369.18 32.51619 
L 637.2 32.51619 
" clip-path="url(#p611d1325cf)" style="fill: none; stroke: #b0b0b0; stroke-opacity: 0.25; stroke-width: 0.8; stroke-linecap: square"/>
     </g>
     <g id="line2d_49">
      <g>
       <use xlink:href="#mf77341fdd5" x="369.18" y="32.51619" style="stroke: #000000; stroke-width: 0.8"/>
      </g>
     </g>
     <g id="text_27">
      <text style="font: 10px 'DejaVu Sans', 'Bitstream Vera Sans', 'Computer Modern Sans Serif', 'Lucida Grande', 'Verdana', 'Geneva', 'Lucid', 'Arial', 'Helvetica', 'Avant Garde', sans-serif; text-anchor: end" x="362.18" y="36.315409" transform="rotate(-0 362.18 36.315409)">0</text>
     </g>
    </g>
    <g id="text_28">
     <text style="font: 10px 'DejaVu Sans', 'Bitstream Vera Sans', 'Computer Modern Sans Serif', 'Lucida Grande', 'Verdana', 'Geneva', 'Lucid', 'Arial', 'Helvetica', 'Avant Garde', sans-serif; text-anchor: middle" x="328.633125" y="106.58" transform="rotate(-90 328.633125 106.58)">dB</text>
    </g>
   </g>
   <g id="LineCollection_1">
    <path d="M 381.362727 32.51619 
L 381.362727 32.51619 
" clip-path="url(#p611d1325cf)" style="fill: none; stroke: #1f77b4; stroke-width: 1.5"/>
    <path d="M 403.51314 32.51619 
L 403.51314 85.920051 
" clip-path="url(#p611d1325cf)" style="fill: none; stroke: #1f77b4; stroke-width: 1.5"/>
    <path d="M 425.663554 32.51619 
L 425.663554 145.732854 
" clip-path="url(#p611d1325cf)" style="fill: none; stroke: #1f77b4; stroke-width: 1.5"/>
    <path d="M 447.813967 32.51619 
L 447.813967 161.782579 
" clip-path="url(#p611d1325cf)" style="fill: none; stroke: #1f77b4; stroke-width: 1.5"/>
    <path d="M 469.96438 32.51619 
L 469.96438 146.100067 
" clip-path="url(#p611d1325cf)" style="fill: none; stroke: #1f77b4; stroke-width: 1.5"/>
    <path d="M 492.114793 32.51619 
L 492.114793 164.848782 
" clip-path="url(#p611d1325cf)" style="fill: none; stroke: #1f77b4; stroke-width: 1.5"/>
    <path d="M 514.265207 32.51619 
L 514.265207 150.571704 
" clip-path="url(#p611d1325cf)" style="fill: none; stroke: #1f77b4; stroke-width: 1.5"/>
    <path d="M 536.41562 32.51619 
L 536.41562 170.02831 
" clip-path="url(#p611d1325cf)" style="fill: none; stroke: #1f77b4; stroke-width: 1.5"/>
    <path d="M 558.566033 32.51619 
L 558.566033 153.576059 
" clip-path="url(#p611d1325cf)" style="fill: none; stroke: #1f77b4; stroke-width: 1.5"/>
    <path d="M 580.716446 32.51619 
L 580.716446 177.548877 
" clip-path="url(#p611d1325cf)" style="fill: none; stroke: #1f77b4; stroke-width: 1.5"/>
    <path d="M 602.86686 32.51619 
L 602.86686 146.766478 
" clip-path="url(#p611d1325cf)" style="fill: none; stroke: #1f77b4; stroke-width: 1.5"/>
    <path d="M 625.017273 32.51619 
L 625.017273 175.503281 
" clip-path="url(#p611d1325cf)" style="fill: none; stroke: #1f77b4; stroke-width: 1.5"/>
   </g>
   <g id="line2d_50">
    <defs>
     <path id="mc5e83f2fdf" d="M 0 3 
C 0.795609 3 1.55874 2.683901 2.12132 2.12132 
C 2.683901 1.55874 3 0.795609 3 0 
C 3 -0.795609 2.683901 -1.55874 2.12132 -2.12132 
C 1.55874 -2.683901 0.795609 -3 0 -3 
C -0.795609 -3 -1.55874 -2.683901 -2.12132 -2.12132 
C -2.683901 -1.55874 -3 -0.795609 -3 0 
C -3 0.795609 -2.683901 1.55874 -2.12132 2.12132 
C -1.55874 2.683901 -0.795609 3 0 3 
z
" style="stroke: #1f77b4"/>
    </defs>
    <g clip-path="url(#p611d1325cf)">
     <use xlink:href="#mc5e83f2fdf" x="381.362727" y="32.51619" style="fill: #1f77b4; stroke: #1f77b4"/>
     <use xlink:href="#mc5e83f2fdf" x="403.51314" y="85.920051" style="fill: #1f77b4; stroke: #1f77b4"/>
     <use xlink:href="#mc5e83f2fdf" x="425.663554" y="145.732854" style="fill: #1f77b4; stroke: #1f77b4"/>
     <use xlink:href="#mc5e83f2fdf" x="447.813967" y="161.782579" style="fill: #1f77b4; stroke: #1f77b4"/>
     <use xlink:href="#mc5e83f2fdf" x="469.96438" y="146.100067" style="fill: #1f77b4; stroke: #1f77b4"/>
     <use xlink:href="#mc5e83f2fdf" x="492.114793" y="164.848782" style="fill: #1f77b4; stroke: #1f77b4"/>
     <use xlink:href="#mc5e83f2fdf" x="514.265207" y="150.571704" style="fill: #1f77b4; stroke: #1f77b4"/>
     <use xlink:href="#mc5e83f2fdf" x="536.41562" y="170.02831" style="fill: #1f77b4; stroke: #1f77b4"/>
     <use xlink:href="#mc5e83f2fdf" x="558.566033" y="153.576059" style="fill: #1f77b4; stroke: #1f77b4"/>
     <use xlink:href="#mc5e83f2fdf" x="580.716446" y="177.548877" style="fill: #1f77b4; stroke: #1f77b4"/>
     <use xlink:href="#mc5e83f2fdf" x="602.86686" y="146.766478" style="fill: #1f77b4; stroke: #1f77b4"/>
     <use xlink:href="#mc5e83f2fdf" x="625.017273" y="175.503281" style="fill: #1f77b4; stroke: #1f77b4"/>
    </g>
   </g>
   <g id="line2d_51"/>
   <g id="patch_8">
    <path d="M 369.18 188.44 
L 369.18 24.72 
" style="fill: none; stroke: #000000; stroke-width: 0.8; stroke-linejoin: miter; stroke-linecap: square"/>
   </g>
   <g id="patch_9">
    <path d="M 637.2 188.44 
L 637.2 24.72 
" style="fill: none; stroke: #000000; stroke-width: 0.8; stroke-linejoin: miter; stroke-linecap: square"/>
   </g>
   <g id="patch_10">
    <path d="M 369.18 188.44 
L 637.2 188.44 
" style="fill: none; stroke: #000000; stroke-width: 0.8; stroke-linejoin: miter; stroke-linecap: square"/>
   </g>
   <g id="patch_11">
    <path d="M 369.18 24.72 
L 637.2 24.72 
" style="fill: none; stroke: #000000; stroke-width: 0.8; stroke-linejoin: miter; stroke-linecap: square"/>
   </g>
   <g id="text_29">
    <text style="font: 10px 'DejaVu Sans', 'Bitstream Vera Sans', 'Computer Modern Sans Serif', 'Lucida Grande', 'Verdana', 'Geneva', 'Lucid', 'Arial', 'Helvetica', 'Avant Garde', sans-serif; text-anchor: middle" x="503.19" y="18.72" transform="rotate(-0 503.19 18.72)">harmonics (dB rel. fundamental)</text>
   </g>
  </g>
 </g>
 <defs>
  <clipPath id="pc1ed898e69">
   <rect x="41.92" y="24.72" width="268.02" height="163.72"/>
  </clipPath>
  <clipPath id="p611d1325cf">
   <rect x="369.18" y="24.72" width="268.02" height="163.72"/>
  </clipPath>
 </defs>
</svg>
